{
  "header": {
    "formatType": 1,
    "trackCount": 3,
    "ticksPerBeat": 1024
  },
  "tracks": [
    [
      {
        "deltaTime": 0,
        "type": "meta",
        "subtype": "smpteOffset",
        "frameRate": 24,
        "hour": 0,
        "min": 0,
        "sec": 0,
        "frame": 0,
        "subframe": 0
      },
      {
        "deltaTime": 0,
        "type": "meta",
        "subtype": "timeSignature",
        "numerator": 4,
        "denominator": 4,
        "metronome": 24,
        "thirtyseconds": 8
      },
      {
        "deltaTime": 0,
        "type": "meta",
        "subtype": "keySignature",
        "key": 0,
        "scale": 0
      },
      {
        "deltaTime": 0,
        "type": "meta",
        "subtype": "setTempo",
        "microsecondsPerBeat": 857139
      },
      {
        "deltaTime": 221185,
        "type": "meta",
        "subtype": "endOfTrack"
      }
    ],
    [
      {
        "deltaTime": 0,
        "type": "meta",
        "subtype": "unknown",
        "data": "QuickTime 1"
      },
      {
        "deltaTime": 0,
        "type": "meta",
        "subtype": "trackName",
        "text": "Grand Piano"
      },
      {
        "deltaTime": 0,
        "channel": 0,
        "type": "channel",
        "subtype": "programChange",
        "programNumber": 0
      },
      {
        "deltaTime": 0,
        "channel": 0,
        "type": "channel",
        "subtype": "controller",
        "controllerType": 7,
        "value": 101
      },
      {
        "deltaTime": 0,
        "channel": 0,
        "type": "channel",
        "subtype": "controller",
        "controllerType": 10,
        "value": 64
      },
      {
        "deltaTime": 4096,
        "channel": 0,
        "type": "channel",
        "noteNumber": 60,
        "velocity": 64,
        "subtype": "noteOn"
      },
      {
        "deltaTime": 0,
        "channel": 0,
        "type": "channel",
        "noteNumber": 67,
        "velocity": 64,
        "subtype": "noteOn"
      },
      {
        "deltaTime": 1024,
        "channel": 0,
        "type": "channel",
        "subtype": "noteOff",
        "noteNumber": 60,
        "velocity": 0
      },
      {
        "deltaTime": 0,
        "channel": 0,
        "type": "channel",
        "subtype": "noteOff",
        "noteNumber": 67,
        "velocity": 0
      },
      {
        "deltaTime": 0,
        "channel": 0,
        "type": "channel",
        "noteNumber": 60,
        "velocity": 64,
        "subtype": "noteOn"
      },
      {
        "deltaTime": 0,
        "channel": 0,
        "type": "channel",
        "noteNumber": 67,
        "velocity": 64,
        "subtype": "noteOn"
      },
      {
        "deltaTime": 1024,
        "channel": 0,
        "type": "channel",
        "subtype": "noteOff",
        "noteNumber": 60,
        "velocity": 0
      },
      {
        "deltaTime": 0,
        "channel": 0,
        "type": "channel",
        "subtype": "noteOff",
        "noteNumber": 67,
        "velocity": 0
      },
      {
        "deltaTime": 0,
        "channel": 0,
        "type": "channel",
        "noteNumber": 60,
        "velocity": 64,
        "subtype": "noteOn"
      },
      {
        "deltaTime": 0,
        "channel": 0,
        "type": "channel",
        "noteNumber": 67,
        "velocity": 64,
        "subtype": "noteOn"
      },
      {
        "deltaTime": 1024,
        "channel": 0,
        "type": "channel",
        "subtype": "noteOff",
        "noteNumber": 60,
        "velocity": 0
      },
      {
        "deltaTime": 0,
        "channel": 0,
        "type": "channel",
        "subtype": "noteOff",
        "noteNumber": 67,
        "velocity": 0
      },
      {
        "deltaTime": 0,
        "channel": 0,
        "type": "channel",
        "noteNumber": 62,
        "velocity": 64,
        "subtype": "noteOn"
      },
      {
        "deltaTime": 0,
        "channel": 0,
        "type": "channel",
        "noteNumber": 69,
        "velocity": 64,
        "subtype": "noteOn"
      },
      {
        "deltaTime": 1024,
        "channel": 0,
        "type": "channel",
        "subtype": "noteOff",
        "noteNumber": 62,
        "velocity": 0
      },
      {
        "deltaTime": 0,
        "channel": 0,
        "type": "channel",
        "subtype": "noteOff",
        "noteNumber": 69,
        "velocity": 0
      },
      {
        "deltaTime": 0,
        "channel": 0,
        "type": "channel",
        "noteNumber": 64,
        "velocity": 64,
        "subtype": "noteOn"
      },
      {
        "deltaTime": 0,
        "channel": 0,
        "type": "channel",
        "noteNumber": 71,
        "velocity": 64,
        "subtype": "noteOn"
      },
      {
        "deltaTime": 1024,
        "channel": 0,
        "type": "channel",
        "subtype": "noteOff",
        "noteNumber": 64,
        "velocity": 0
      },
      {
        "deltaTime": 0,
        "channel": 0,
        "type": "channel",
        "subtype": "noteOff",
        "noteNumber": 71,
        "velocity": 0
      },
      {
        "deltaTime": 0,
        "channel": 0,
        "type": "channel",
        "noteNumber": 64,
        "velocity": 64,
        "subtype": "noteOn"
      },
      {
        "deltaTime": 0,
        "channel": 0,
        "type": "channel",
        "noteNumber": 71,
        "velocity": 64,
        "subtype": "noteOn"
      },
      {
        "deltaTime": 1024,
        "channel": 0,
        "type": "channel",
        "subtype": "noteOff",
        "noteNumber": 64,
        "velocity": 0
      },
      {
        "deltaTime": 0,
        "channel": 0,
        "type": "channel",
        "subtype": "noteOff",
        "noteNumber": 71,
        "velocity": 0
      },
      {
        "deltaTime": 0,
        "channel": 0,
        "type": "channel",
        "noteNumber": 62,
        "velocity": 64,
        "subtype": "noteOn"
      },
      {
        "deltaTime": 0,
        "channel": 0,
        "type": "channel",
        "noteNumber": 69,
        "velocity": 64,
        "subtype": "noteOn"
      },
      {
        "deltaTime": 1024,
        "channel": 0,
        "type": "channel",
        "subtype": "noteOff",
        "noteNumber": 62,
        "velocity": 0
      },
      {
        "deltaTime": 0,
        "channel": 0,
        "type": "channel",
        "subtype": "noteOff",
        "noteNumber": 69,
        "velocity": 0
      },
      {
        "deltaTime": 0,
        "channel": 0,
        "type": "channel",
        "noteNumber": 62,
        "velocity": 64,
        "subtype": "noteOn"
      },
      {
        "deltaTime": 0,
        "channel": 0,
        "type": "channel",
        "noteNumber": 69,
        "velocity": 64,
        "subtype": "noteOn"
      },
      {
        "deltaTime": 1024,
        "channel": 0,
        "type": "channel",
        "subtype": "noteOff",
        "noteNumber": 62,
        "velocity": 0
      },
      {
        "deltaTime": 0,
        "channel": 0,
        "type": "channel",
        "subtype": "noteOff",
        "noteNumber": 69,
        "velocity": 0
      },
      {
        "deltaTime": 0,
        "channel": 0,
        "type": "channel",
        "noteNumber": 60,
        "velocity": 64,
        "subtype": "noteOn"
      },
      {
        "deltaTime": 0,
        "channel": 0,
        "type": "channel",
        "noteNumber": 67,
        "velocity": 64,
        "subtype": "noteOn"
      },
      {
        "deltaTime": 1024,
        "channel": 0,
        "type": "channel",
        "subtype": "noteOff",
        "noteNumber": 60,
        "velocity": 0
      },
      {
        "deltaTime": 0,
        "channel": 0,
        "type": "channel",
        "subtype": "noteOff",
        "noteNumber": 67,
        "velocity": 0
      },
      {
        "deltaTime": 0,
        "channel": 0,
        "type": "channel",
        "noteNumber": 60,
        "velocity": 64,
        "subtype": "noteOn"
      },
      {
        "deltaTime": 0,
        "channel": 0,
        "type": "channel",
        "noteNumber": 67,
        "velocity": 64,
        "subtype": "noteOn"
      },
      {
        "deltaTime": 1024,
        "channel": 0,
        "type": "channel",
        "subtype": "noteOff",
        "noteNumber": 60,
        "velocity": 0
      },
      {
        "deltaTime": 0,
        "channel": 0,
        "type": "channel",
        "subtype": "noteOff",
        "noteNumber": 67,
        "velocity": 0
      },
      {
        "deltaTime": 0,
        "channel": 0,
        "type": "channel",
        "noteNumber": 60,
        "velocity": 64,
        "subtype": "noteOn"
      },
      {
        "deltaTime": 0,
        "channel": 0,
        "type": "channel",
        "noteNumber": 67,
        "velocity": 64,
        "subtype": "noteOn"
      },
      {
        "deltaTime": 1024,
        "channel": 0,
        "type": "channel",
        "subtype": "noteOff",
        "noteNumber": 60,
        "velocity": 0
      },
      {
        "deltaTime": 0,
        "channel": 0,
        "type": "channel",
        "subtype": "noteOff",
        "noteNumber": 67,
        "velocity": 0
      },
      {
        "deltaTime": 0,
        "channel": 0,
        "type": "channel",
        "noteNumber": 62,
        "velocity": 64,
        "subtype": "noteOn"
      },
      {
        "deltaTime": 0,
        "channel": 0,
        "type": "channel",
        "noteNumber": 69,
        "velocity": 64,
        "subtype": "noteOn"
      },
      {
        "deltaTime": 1024,
        "channel": 0,
        "type": "channel",
        "subtype": "noteOff",
        "noteNumber": 62,
        "velocity": 0
      },
      {
        "deltaTime": 0,
        "channel": 0,
        "type": "channel",
        "subtype": "noteOff",
        "noteNumber": 69,
        "velocity": 0
      },
      {
        "deltaTime": 0,
        "channel": 0,
        "type": "channel",
        "noteNumber": 64,
        "velocity": 64,
        "subtype": "noteOn"
      },
      {
        "deltaTime": 0,
        "channel": 0,
        "type": "channel",
        "noteNumber": 71,
        "velocity": 64,
        "subtype": "noteOn"
      },
      {
        "deltaTime": 1024,
        "channel": 0,
        "type": "channel",
        "subtype": "noteOff",
        "noteNumber": 64,
        "velocity": 0
      },
      {
        "deltaTime": 0,
        "channel": 0,
        "type": "channel",
        "subtype": "noteOff",
        "noteNumber": 71,
        "velocity": 0
      },
      {
        "deltaTime": 0,
        "channel": 0,
        "type": "channel",
        "noteNumber": 64,
        "velocity": 64,
        "subtype": "noteOn"
      },
      {
        "deltaTime": 0,
        "channel": 0,
        "type": "channel",
        "noteNumber": 71,
        "velocity": 64,
        "subtype": "noteOn"
      },
      {
        "deltaTime": 1024,
        "channel": 0,
        "type": "channel",
        "subtype": "noteOff",
        "noteNumber": 64,
        "velocity": 0
      },
      {
        "deltaTime": 0,
        "channel": 0,
        "type": "channel",
        "subtype": "noteOff",
        "noteNumber": 71,
        "velocity": 0
      },
      {
        "deltaTime": 0,
        "channel": 0,
        "type": "channel",
        "noteNumber": 64,
        "velocity": 64,
        "subtype": "noteOn"
      },
      {
        "deltaTime": 0,
        "channel": 0,
        "type": "channel",
        "noteNumber": 71,
        "velocity": 64,
        "subtype": "noteOn"
      },
      {
        "deltaTime": 1024,
        "channel": 0,
        "type": "channel",
        "subtype": "noteOff",
        "noteNumber": 64,
        "velocity": 0
      },
      {
        "deltaTime": 0,
        "channel": 0,
        "type": "channel",
        "subtype": "noteOff",
        "noteNumber": 71,
        "velocity": 0
      },
      {
        "deltaTime": 0,
        "channel": 0,
        "type": "channel",
        "noteNumber": 62,
        "velocity": 64,
        "subtype": "noteOn"
      },
      {
        "deltaTime": 0,
        "channel": 0,
        "type": "channel",
        "noteNumber": 69,
        "velocity": 64,
        "subtype": "noteOn"
      },
      {
        "deltaTime": 1024,
        "channel": 0,
        "type": "channel",
        "subtype": "noteOff",
        "noteNumber": 62,
        "velocity": 0
      },
      {
        "deltaTime": 0,
        "channel": 0,
        "type": "channel",
        "subtype": "noteOff",
        "noteNumber": 69,
        "velocity": 0
      },
      {
        "deltaTime": 0,
        "channel": 0,
        "type": "channel",
        "noteNumber": 60,
        "velocity": 64,
        "subtype": "noteOn"
      },
      {
        "deltaTime": 0,
        "channel": 0,
        "type": "channel",
        "noteNumber": 67,
        "velocity": 64,
        "subtype": "noteOn"
      },
      {
        "deltaTime": 1024,
        "channel": 0,
        "type": "channel",
        "subtype": "noteOff",
        "noteNumber": 60,
        "velocity": 0
      },
      {
        "deltaTime": 0,
        "channel": 0,
        "type": "channel",
        "subtype": "noteOff",
        "noteNumber": 67,
        "velocity": 0
      },
      {
        "deltaTime": 0,
        "channel": 0,
        "type": "channel",
        "noteNumber": 60,
        "velocity": 64,
        "subtype": "noteOn"
      },
      {
        "deltaTime": 0,
        "channel": 0,
        "type": "channel",
        "noteNumber": 67,
        "velocity": 64,
        "subtype": "noteOn"
      },
      {
        "deltaTime": 1024,
        "channel": 0,
        "type": "channel",
        "subtype": "noteOff",
        "noteNumber": 60,
        "velocity": 0
      },
      {
        "deltaTime": 0,
        "channel": 0,
        "type": "channel",
        "subtype": "noteOff",
        "noteNumber": 67,
        "velocity": 0
      },
      {
        "deltaTime": 0,
        "channel": 0,
        "type": "channel",
        "noteNumber": 60,
        "velocity": 64,
        "subtype": "noteOn"
      },
      {
        "deltaTime": 0,
        "channel": 0,
        "type": "channel",
        "noteNumber": 67,
        "velocity": 64,
        "subtype": "noteOn"
      },
      {
        "deltaTime": 1024,
        "channel": 0,
        "type": "channel",
        "subtype": "noteOff",
        "noteNumber": 60,
        "velocity": 0
      },
      {
        "deltaTime": 0,
        "channel": 0,
        "type": "channel",
        "subtype": "noteOff",
        "noteNumber": 67,
        "velocity": 0
      },
      {
        "deltaTime": 0,
        "channel": 0,
        "type": "channel",
        "noteNumber": 62,
        "velocity": 64,
        "subtype": "noteOn"
      },
      {
        "deltaTime": 0,
        "channel": 0,
        "type": "channel",
        "noteNumber": 69,
        "velocity": 64,
        "subtype": "noteOn"
      },
      {
        "deltaTime": 1024,
        "channel": 0,
        "type": "channel",
        "subtype": "noteOff",
        "noteNumber": 62,
        "velocity": 0
      },
      {
        "deltaTime": 0,
        "channel": 0,
        "type": "channel",
        "subtype": "noteOff",
        "noteNumber": 69,
        "velocity": 0
      },
      {
        "deltaTime": 0,
        "channel": 0,
        "type": "channel",
        "noteNumber": 64,
        "velocity": 64,
        "subtype": "noteOn"
      },
      {
        "deltaTime": 0,
        "channel": 0,
        "type": "channel",
        "noteNumber": 71,
        "velocity": 64,
        "subtype": "noteOn"
      },
      {
        "deltaTime": 1024,
        "channel": 0,
        "type": "channel",
        "subtype": "noteOff",
        "noteNumber": 64,
        "velocity": 0
      },
      {
        "deltaTime": 0,
        "channel": 0,
        "type": "channel",
        "subtype": "noteOff",
        "noteNumber": 71,
        "velocity": 0
      },
      {
        "deltaTime": 0,
        "channel": 0,
        "type": "channel",
        "noteNumber": 64,
        "velocity": 64,
        "subtype": "noteOn"
      },
      {
        "deltaTime": 0,
        "channel": 0,
        "type": "channel",
        "noteNumber": 71,
        "velocity": 64,
        "subtype": "noteOn"
      },
      {
        "deltaTime": 1024,
        "channel": 0,
        "type": "channel",
        "subtype": "noteOff",
        "noteNumber": 64,
        "velocity": 0
      },
      {
        "deltaTime": 0,
        "channel": 0,
        "type": "channel",
        "subtype": "noteOff",
        "noteNumber": 71,
        "velocity": 0
      },
      {
        "deltaTime": 0,
        "channel": 0,
        "type": "channel",
        "noteNumber": 62,
        "velocity": 64,
        "subtype": "noteOn"
      },
      {
        "deltaTime": 0,
        "channel": 0,
        "type": "channel",
        "noteNumber": 69,
        "velocity": 64,
        "subtype": "noteOn"
      },
      {
        "deltaTime": 1024,
        "channel": 0,
        "type": "channel",
        "subtype": "noteOff",
        "noteNumber": 62,
        "velocity": 0
      },
      {
        "deltaTime": 0,
        "channel": 0,
        "type": "channel",
        "subtype": "noteOff",
        "noteNumber": 69,
        "velocity": 0
      },
      {
        "deltaTime": 0,
        "channel": 0,
        "type": "channel",
        "noteNumber": 62,
        "velocity": 64,
        "subtype": "noteOn"
      },
      {
        "deltaTime": 0,
        "channel": 0,
        "type": "channel",
        "noteNumber": 69,
        "velocity": 64,
        "subtype": "noteOn"
      },
      {
        "deltaTime": 1024,
        "channel": 0,
        "type": "channel",
        "subtype": "noteOff",
        "noteNumber": 62,
        "velocity": 0
      },
      {
        "deltaTime": 0,
        "channel": 0,
        "type": "channel",
        "subtype": "noteOff",
        "noteNumber": 69,
        "velocity": 0
      },
      {
        "deltaTime": 0,
        "channel": 0,
        "type": "channel",
        "noteNumber": 60,
        "velocity": 64,
        "subtype": "noteOn"
      },
      {
        "deltaTime": 0,
        "channel": 0,
        "type": "channel",
        "noteNumber": 67,
        "velocity": 64,
        "subtype": "noteOn"
      },
      {
        "deltaTime": 1024,
        "channel": 0,
        "type": "channel",
        "subtype": "noteOff",
        "noteNumber": 60,
        "velocity": 0
      },
      {
        "deltaTime": 0,
        "channel": 0,
        "type": "channel",
        "subtype": "noteOff",
        "noteNumber": 67,
        "velocity": 0
      },
      {
        "deltaTime": 0,
        "channel": 0,
        "type": "channel",
        "noteNumber": 60,
        "velocity": 64,
        "subtype": "noteOn"
      },
      {
        "deltaTime": 0,
        "channel": 0,
        "type": "channel",
        "noteNumber": 67,
        "velocity": 64,
        "subtype": "noteOn"
      },
      {
        "deltaTime": 1024,
        "channel": 0,
        "type": "channel",
        "subtype": "noteOff",
        "noteNumber": 60,
        "velocity": 0
      },
      {
        "deltaTime": 0,
        "channel": 0,
        "type": "channel",
        "subtype": "noteOff",
        "noteNumber": 67,
        "velocity": 0
      },
      {
        "deltaTime": 0,
        "channel": 0,
        "type": "channel",
        "noteNumber": 60,
        "velocity": 64,
        "subtype": "noteOn"
      },
      {
        "deltaTime": 0,
        "channel": 0,
        "type": "channel",
        "noteNumber": 67,
        "velocity": 64,
        "subtype": "noteOn"
      },
      {
        "deltaTime": 1024,
        "channel": 0,
        "type": "channel",
        "subtype": "noteOff",
        "noteNumber": 60,
        "velocity": 0
      },
      {
        "deltaTime": 0,
        "channel": 0,
        "type": "channel",
        "subtype": "noteOff",
        "noteNumber": 67,
        "velocity": 0
      },
      {
        "deltaTime": 0,
        "channel": 0,
        "type": "channel",
        "noteNumber": 62,
        "velocity": 64,
        "subtype": "noteOn"
      },
      {
        "deltaTime": 0,
        "channel": 0,
        "type": "channel",
        "noteNumber": 69,
        "velocity": 64,
        "subtype": "noteOn"
      },
      {
        "deltaTime": 1024,
        "channel": 0,
        "type": "channel",
        "subtype": "noteOff",
        "noteNumber": 62,
        "velocity": 0
      },
      {
        "deltaTime": 0,
        "channel": 0,
        "type": "channel",
        "subtype": "noteOff",
        "noteNumber": 69,
        "velocity": 0
      },
      {
        "deltaTime": 0,
        "channel": 0,
        "type": "channel",
        "noteNumber": 64,
        "velocity": 64,
        "subtype": "noteOn"
      },
      {
        "deltaTime": 0,
        "channel": 0,
        "type": "channel",
        "noteNumber": 71,
        "velocity": 64,
        "subtype": "noteOn"
      },
      {
        "deltaTime": 1024,
        "channel": 0,
        "type": "channel",
        "subtype": "noteOff",
        "noteNumber": 64,
        "velocity": 0
      },
      {
        "deltaTime": 0,
        "channel": 0,
        "type": "channel",
        "subtype": "noteOff",
        "noteNumber": 71,
        "velocity": 0
      },
      {
        "deltaTime": 0,
        "channel": 0,
        "type": "channel",
        "noteNumber": 64,
        "velocity": 64,
        "subtype": "noteOn"
      },
      {
        "deltaTime": 0,
        "channel": 0,
        "type": "channel",
        "noteNumber": 71,
        "velocity": 64,
        "subtype": "noteOn"
      },
      {
        "deltaTime": 1024,
        "channel": 0,
        "type": "channel",
        "subtype": "noteOff",
        "noteNumber": 64,
        "velocity": 0
      },
      {
        "deltaTime": 0,
        "channel": 0,
        "type": "channel",
        "subtype": "noteOff",
        "noteNumber": 71,
        "velocity": 0
      },
      {
        "deltaTime": 0,
        "channel": 0,
        "type": "channel",
        "noteNumber": 64,
        "velocity": 64,
        "subtype": "noteOn"
      },
      {
        "deltaTime": 0,
        "channel": 0,
        "type": "channel",
        "noteNumber": 71,
        "velocity": 64,
        "subtype": "noteOn"
      },
      {
        "deltaTime": 2048,
        "channel": 0,
        "type": "channel",
        "subtype": "noteOff",
        "noteNumber": 64,
        "velocity": 0
      },
      {
        "deltaTime": 0,
        "channel": 0,
        "type": "channel",
        "subtype": "noteOff",
        "noteNumber": 71,
        "velocity": 0
      },
      {
        "deltaTime": 0,
        "channel": 0,
        "type": "channel",
        "noteNumber": 48,
        "velocity": 64,
        "subtype": "noteOn"
      },
      {
        "deltaTime": 0,
        "channel": 0,
        "type": "channel",
        "noteNumber": 55,
        "velocity": 64,
        "subtype": "noteOn"
      },
      {
        "deltaTime": 1024,
        "channel": 0,
        "type": "channel",
        "subtype": "noteOff",
        "noteNumber": 48,
        "velocity": 0
      },
      {
        "deltaTime": 0,
        "channel": 0,
        "type": "channel",
        "subtype": "noteOff",
        "noteNumber": 55,
        "velocity": 0
      },
      {
        "deltaTime": 0,
        "channel": 0,
        "type": "channel",
        "noteNumber": 48,
        "velocity": 64,
        "subtype": "noteOn"
      },
      {
        "deltaTime": 0,
        "channel": 0,
        "type": "channel",
        "noteNumber": 55,
        "velocity": 64,
        "subtype": "noteOn"
      },
      {
        "deltaTime": 1024,
        "channel": 0,
        "type": "channel",
        "subtype": "noteOff",
        "noteNumber": 48,
        "velocity": 0
      },
      {
        "deltaTime": 0,
        "channel": 0,
        "type": "channel",
        "subtype": "noteOff",
        "noteNumber": 55,
        "velocity": 0
      },
      {
        "deltaTime": 0,
        "channel": 0,
        "type": "channel",
        "noteNumber": 43,
        "velocity": 64,
        "subtype": "noteOn"
      },
      {
        "deltaTime": 0,
        "channel": 0,
        "type": "channel",
        "noteNumber": 50,
        "velocity": 64,
        "subtype": "noteOn"
      },
      {
        "deltaTime": 1024,
        "channel": 0,
        "type": "channel",
        "subtype": "noteOff",
        "noteNumber": 43,
        "velocity": 0
      },
      {
        "deltaTime": 0,
        "channel": 0,
        "type": "channel",
        "subtype": "noteOff",
        "noteNumber": 50,
        "velocity": 0
      },
      {
        "deltaTime": 0,
        "channel": 0,
        "type": "channel",
        "noteNumber": 43,
        "velocity": 64,
        "subtype": "noteOn"
      },
      {
        "deltaTime": 0,
        "channel": 0,
        "type": "channel",
        "noteNumber": 50,
        "velocity": 64,
        "subtype": "noteOn"
      },
      {
        "deltaTime": 1024,
        "channel": 0,
        "type": "channel",
        "subtype": "noteOff",
        "noteNumber": 43,
        "velocity": 0
      },
      {
        "deltaTime": 0,
        "channel": 0,
        "type": "channel",
        "subtype": "noteOff",
        "noteNumber": 50,
        "velocity": 0
      },
      {
        "deltaTime": 0,
        "channel": 0,
        "type": "channel",
        "noteNumber": 50,
        "velocity": 64,
        "subtype": "noteOn"
      },
      {
        "deltaTime": 0,
        "channel": 0,
        "type": "channel",
        "noteNumber": 57,
        "velocity": 64,
        "subtype": "noteOn"
      },
      {
        "deltaTime": 1024,
        "channel": 0,
        "type": "channel",
        "subtype": "noteOff",
        "noteNumber": 50,
        "velocity": 0
      },
      {
        "deltaTime": 0,
        "channel": 0,
        "type": "channel",
        "subtype": "noteOff",
        "noteNumber": 57,
        "velocity": 0
      },
      {
        "deltaTime": 0,
        "channel": 0,
        "type": "channel",
        "noteNumber": 50,
        "velocity": 64,
        "subtype": "noteOn"
      },
      {
        "deltaTime": 0,
        "channel": 0,
        "type": "channel",
        "noteNumber": 57,
        "velocity": 64,
        "subtype": "noteOn"
      },
      {
        "deltaTime": 1024,
        "channel": 0,
        "type": "channel",
        "subtype": "noteOff",
        "noteNumber": 50,
        "velocity": 0
      },
      {
        "deltaTime": 0,
        "channel": 0,
        "type": "channel",
        "subtype": "noteOff",
        "noteNumber": 57,
        "velocity": 0
      },
      {
        "deltaTime": 0,
        "channel": 0,
        "type": "channel",
        "noteNumber": 52,
        "velocity": 64,
        "subtype": "noteOn"
      },
      {
        "deltaTime": 0,
        "channel": 0,
        "type": "channel",
        "noteNumber": 59,
        "velocity": 64,
        "subtype": "noteOn"
      },
      {
        "deltaTime": 1024,
        "channel": 0,
        "type": "channel",
        "subtype": "noteOff",
        "noteNumber": 52,
        "velocity": 0
      },
      {
        "deltaTime": 0,
        "channel": 0,
        "type": "channel",
        "subtype": "noteOff",
        "noteNumber": 59,
        "velocity": 0
      },
      {
        "deltaTime": 0,
        "channel": 0,
        "type": "channel",
        "noteNumber": 52,
        "velocity": 64,
        "subtype": "noteOn"
      },
      {
        "deltaTime": 0,
        "channel": 0,
        "type": "channel",
        "noteNumber": 59,
        "velocity": 64,
        "subtype": "noteOn"
      },
      {
        "deltaTime": 1024,
        "channel": 0,
        "type": "channel",
        "subtype": "noteOff",
        "noteNumber": 52,
        "velocity": 0
      },
      {
        "deltaTime": 0,
        "channel": 0,
        "type": "channel",
        "subtype": "noteOff",
        "noteNumber": 59,
        "velocity": 0
      },
      {
        "deltaTime": 0,
        "channel": 0,
        "type": "channel",
        "noteNumber": 48,
        "velocity": 64,
        "subtype": "noteOn"
      },
      {
        "deltaTime": 0,
        "channel": 0,
        "type": "channel",
        "noteNumber": 55,
        "velocity": 64,
        "subtype": "noteOn"
      },
      {
        "deltaTime": 1024,
        "channel": 0,
        "type": "channel",
        "subtype": "noteOff",
        "noteNumber": 48,
        "velocity": 0
      },
      {
        "deltaTime": 0,
        "channel": 0,
        "type": "channel",
        "subtype": "noteOff",
        "noteNumber": 55,
        "velocity": 0
      },
      {
        "deltaTime": 0,
        "channel": 0,
        "type": "channel",
        "noteNumber": 48,
        "velocity": 64,
        "subtype": "noteOn"
      },
      {
        "deltaTime": 0,
        "channel": 0,
        "type": "channel",
        "noteNumber": 55,
        "velocity": 64,
        "subtype": "noteOn"
      },
      {
        "deltaTime": 1024,
        "channel": 0,
        "type": "channel",
        "subtype": "noteOff",
        "noteNumber": 48,
        "velocity": 0
      },
      {
        "deltaTime": 0,
        "channel": 0,
        "type": "channel",
        "subtype": "noteOff",
        "noteNumber": 55,
        "velocity": 0
      },
      {
        "deltaTime": 0,
        "channel": 0,
        "type": "channel",
        "noteNumber": 43,
        "velocity": 64,
        "subtype": "noteOn"
      },
      {
        "deltaTime": 0,
        "channel": 0,
        "type": "channel",
        "noteNumber": 50,
        "velocity": 64,
        "subtype": "noteOn"
      },
      {
        "deltaTime": 1024,
        "channel": 0,
        "type": "channel",
        "subtype": "noteOff",
        "noteNumber": 43,
        "velocity": 0
      },
      {
        "deltaTime": 0,
        "channel": 0,
        "type": "channel",
        "subtype": "noteOff",
        "noteNumber": 50,
        "velocity": 0
      },
      {
        "deltaTime": 0,
        "channel": 0,
        "type": "channel",
        "noteNumber": 43,
        "velocity": 64,
        "subtype": "noteOn"
      },
      {
        "deltaTime": 0,
        "channel": 0,
        "type": "channel",
        "noteNumber": 50,
        "velocity": 64,
        "subtype": "noteOn"
      },
      {
        "deltaTime": 1024,
        "channel": 0,
        "type": "channel",
        "subtype": "noteOff",
        "noteNumber": 43,
        "velocity": 0
      },
      {
        "deltaTime": 0,
        "channel": 0,
        "type": "channel",
        "subtype": "noteOff",
        "noteNumber": 50,
        "velocity": 0
      },
      {
        "deltaTime": 0,
        "channel": 0,
        "type": "channel",
        "noteNumber": 50,
        "velocity": 64,
        "subtype": "noteOn"
      },
      {
        "deltaTime": 0,
        "channel": 0,
        "type": "channel",
        "noteNumber": 57,
        "velocity": 64,
        "subtype": "noteOn"
      },
      {
        "deltaTime": 1024,
        "channel": 0,
        "type": "channel",
        "subtype": "noteOff",
        "noteNumber": 50,
        "velocity": 0
      },
      {
        "deltaTime": 0,
        "channel": 0,
        "type": "channel",
        "subtype": "noteOff",
        "noteNumber": 57,
        "velocity": 0
      },
      {
        "deltaTime": 512,
        "channel": 0,
        "type": "channel",
        "noteNumber": 57,
        "velocity": 64,
        "subtype": "noteOn"
      },
      {
        "deltaTime": 512,
        "channel": 0,
        "type": "channel",
        "subtype": "noteOff",
        "noteNumber": 57,
        "velocity": 0
      },
      {
        "deltaTime": 2048,
        "channel": 0,
        "type": "channel",
        "noteNumber": 48,
        "velocity": 64,
        "subtype": "noteOn"
      },
      {
        "deltaTime": 0,
        "channel": 0,
        "type": "channel",
        "noteNumber": 55,
        "velocity": 64,
        "subtype": "noteOn"
      },
      {
        "deltaTime": 1024,
        "channel": 0,
        "type": "channel",
        "subtype": "noteOff",
        "noteNumber": 48,
        "velocity": 0
      },
      {
        "deltaTime": 0,
        "channel": 0,
        "type": "channel",
        "subtype": "noteOff",
        "noteNumber": 55,
        "velocity": 0
      },
      {
        "deltaTime": 0,
        "channel": 0,
        "type": "channel",
        "noteNumber": 48,
        "velocity": 64,
        "subtype": "noteOn"
      },
      {
        "deltaTime": 0,
        "channel": 0,
        "type": "channel",
        "noteNumber": 55,
        "velocity": 64,
        "subtype": "noteOn"
      },
      {
        "deltaTime": 1024,
        "channel": 0,
        "type": "channel",
        "subtype": "noteOff",
        "noteNumber": 48,
        "velocity": 0
      },
      {
        "deltaTime": 0,
        "channel": 0,
        "type": "channel",
        "subtype": "noteOff",
        "noteNumber": 55,
        "velocity": 0
      },
      {
        "deltaTime": 0,
        "channel": 0,
        "type": "channel",
        "noteNumber": 43,
        "velocity": 64,
        "subtype": "noteOn"
      },
      {
        "deltaTime": 0,
        "channel": 0,
        "type": "channel",
        "noteNumber": 50,
        "velocity": 64,
        "subtype": "noteOn"
      },
      {
        "deltaTime": 1024,
        "channel": 0,
        "type": "channel",
        "subtype": "noteOff",
        "noteNumber": 43,
        "velocity": 0
      },
      {
        "deltaTime": 0,
        "channel": 0,
        "type": "channel",
        "subtype": "noteOff",
        "noteNumber": 50,
        "velocity": 0
      },
      {
        "deltaTime": 0,
        "channel": 0,
        "type": "channel",
        "noteNumber": 43,
        "velocity": 64,
        "subtype": "noteOn"
      },
      {
        "deltaTime": 0,
        "channel": 0,
        "type": "channel",
        "noteNumber": 50,
        "velocity": 64,
        "subtype": "noteOn"
      },
      {
        "deltaTime": 1024,
        "channel": 0,
        "type": "channel",
        "subtype": "noteOff",
        "noteNumber": 43,
        "velocity": 0
      },
      {
        "deltaTime": 0,
        "channel": 0,
        "type": "channel",
        "subtype": "noteOff",
        "noteNumber": 50,
        "velocity": 0
      },
      {
        "deltaTime": 0,
        "channel": 0,
        "type": "channel",
        "noteNumber": 50,
        "velocity": 64,
        "subtype": "noteOn"
      },
      {
        "deltaTime": 0,
        "channel": 0,
        "type": "channel",
        "noteNumber": 57,
        "velocity": 64,
        "subtype": "noteOn"
      },
      {
        "deltaTime": 1024,
        "channel": 0,
        "type": "channel",
        "subtype": "noteOff",
        "noteNumber": 50,
        "velocity": 0
      },
      {
        "deltaTime": 0,
        "channel": 0,
        "type": "channel",
        "subtype": "noteOff",
        "noteNumber": 57,
        "velocity": 0
      },
      {
        "deltaTime": 0,
        "channel": 0,
        "type": "channel",
        "noteNumber": 50,
        "velocity": 64,
        "subtype": "noteOn"
      },
      {
        "deltaTime": 0,
        "channel": 0,
        "type": "channel",
        "noteNumber": 57,
        "velocity": 64,
        "subtype": "noteOn"
      },
      {
        "deltaTime": 1024,
        "channel": 0,
        "type": "channel",
        "subtype": "noteOff",
        "noteNumber": 50,
        "velocity": 0
      },
      {
        "deltaTime": 0,
        "channel": 0,
        "type": "channel",
        "subtype": "noteOff",
        "noteNumber": 57,
        "velocity": 0
      },
      {
        "deltaTime": 0,
        "channel": 0,
        "type": "channel",
        "noteNumber": 52,
        "velocity": 64,
        "subtype": "noteOn"
      },
      {
        "deltaTime": 0,
        "channel": 0,
        "type": "channel",
        "noteNumber": 59,
        "velocity": 64,
        "subtype": "noteOn"
      },
      {
        "deltaTime": 1024,
        "channel": 0,
        "type": "channel",
        "subtype": "noteOff",
        "noteNumber": 52,
        "velocity": 0
      },
      {
        "deltaTime": 0,
        "channel": 0,
        "type": "channel",
        "subtype": "noteOff",
        "noteNumber": 59,
        "velocity": 0
      },
      {
        "deltaTime": 0,
        "channel": 0,
        "type": "channel",
        "noteNumber": 52,
        "velocity": 64,
        "subtype": "noteOn"
      },
      {
        "deltaTime": 0,
        "channel": 0,
        "type": "channel",
        "noteNumber": 59,
        "velocity": 64,
        "subtype": "noteOn"
      },
      {
        "deltaTime": 1024,
        "channel": 0,
        "type": "channel",
        "subtype": "noteOff",
        "noteNumber": 52,
        "velocity": 0
      },
      {
        "deltaTime": 0,
        "channel": 0,
        "type": "channel",
        "subtype": "noteOff",
        "noteNumber": 59,
        "velocity": 0
      },
      {
        "deltaTime": 0,
        "channel": 0,
        "type": "channel",
        "noteNumber": 48,
        "velocity": 64,
        "subtype": "noteOn"
      },
      {
        "deltaTime": 0,
        "channel": 0,
        "type": "channel",
        "noteNumber": 55,
        "velocity": 64,
        "subtype": "noteOn"
      },
      {
        "deltaTime": 1024,
        "channel": 0,
        "type": "channel",
        "subtype": "noteOff",
        "noteNumber": 48,
        "velocity": 0
      },
      {
        "deltaTime": 0,
        "channel": 0,
        "type": "channel",
        "subtype": "noteOff",
        "noteNumber": 55,
        "velocity": 0
      },
      {
        "deltaTime": 0,
        "channel": 0,
        "type": "channel",
        "noteNumber": 48,
        "velocity": 64,
        "subtype": "noteOn"
      },
      {
        "deltaTime": 0,
        "channel": 0,
        "type": "channel",
        "noteNumber": 55,
        "velocity": 64,
        "subtype": "noteOn"
      },
      {
        "deltaTime": 1024,
        "channel": 0,
        "type": "channel",
        "subtype": "noteOff",
        "noteNumber": 48,
        "velocity": 0
      },
      {
        "deltaTime": 0,
        "channel": 0,
        "type": "channel",
        "subtype": "noteOff",
        "noteNumber": 55,
        "velocity": 0
      },
      {
        "deltaTime": 0,
        "channel": 0,
        "type": "channel",
        "noteNumber": 43,
        "velocity": 64,
        "subtype": "noteOn"
      },
      {
        "deltaTime": 0,
        "channel": 0,
        "type": "channel",
        "noteNumber": 50,
        "velocity": 64,
        "subtype": "noteOn"
      },
      {
        "deltaTime": 1024,
        "channel": 0,
        "type": "channel",
        "subtype": "noteOff",
        "noteNumber": 43,
        "velocity": 0
      },
      {
        "deltaTime": 0,
        "channel": 0,
        "type": "channel",
        "subtype": "noteOff",
        "noteNumber": 50,
        "velocity": 0
      },
      {
        "deltaTime": 0,
        "channel": 0,
        "type": "channel",
        "noteNumber": 43,
        "velocity": 64,
        "subtype": "noteOn"
      },
      {
        "deltaTime": 0,
        "channel": 0,
        "type": "channel",
        "noteNumber": 50,
        "velocity": 64,
        "subtype": "noteOn"
      },
      {
        "deltaTime": 1024,
        "channel": 0,
        "type": "channel",
        "subtype": "noteOff",
        "noteNumber": 43,
        "velocity": 0
      },
      {
        "deltaTime": 0,
        "channel": 0,
        "type": "channel",
        "subtype": "noteOff",
        "noteNumber": 50,
        "velocity": 0
      },
      {
        "deltaTime": 0,
        "channel": 0,
        "type": "channel",
        "noteNumber": 50,
        "velocity": 64,
        "subtype": "noteOn"
      },
      {
        "deltaTime": 0,
        "channel": 0,
        "type": "channel",
        "noteNumber": 57,
        "velocity": 64,
        "subtype": "noteOn"
      },
      {
        "deltaTime": 1024,
        "channel": 0,
        "type": "channel",
        "subtype": "noteOff",
        "noteNumber": 50,
        "velocity": 0
      },
      {
        "deltaTime": 0,
        "channel": 0,
        "type": "channel",
        "subtype": "noteOff",
        "noteNumber": 57,
        "velocity": 0
      },
      {
        "deltaTime": 512,
        "channel": 0,
        "type": "channel",
        "noteNumber": 57,
        "velocity": 64,
        "subtype": "noteOn"
      },
      {
        "deltaTime": 512,
        "channel": 0,
        "type": "channel",
        "subtype": "noteOff",
        "noteNumber": 57,
        "velocity": 0
      },
      {
        "deltaTime": 2048,
        "channel": 0,
        "type": "channel",
        "noteNumber": 52,
        "velocity": 64,
        "subtype": "noteOn"
      },
      {
        "deltaTime": 0,
        "channel": 0,
        "type": "channel",
        "noteNumber": 59,
        "velocity": 64,
        "subtype": "noteOn"
      },
      {
        "deltaTime": 1024,
        "channel": 0,
        "type": "channel",
        "subtype": "noteOff",
        "noteNumber": 52,
        "velocity": 0
      },
      {
        "deltaTime": 0,
        "channel": 0,
        "type": "channel",
        "subtype": "noteOff",
        "noteNumber": 59,
        "velocity": 0
      },
      {
        "deltaTime": 0,
        "channel": 0,
        "type": "channel",
        "noteNumber": 52,
        "velocity": 64,
        "subtype": "noteOn"
      },
      {
        "deltaTime": 0,
        "channel": 0,
        "type": "channel",
        "noteNumber": 59,
        "velocity": 64,
        "subtype": "noteOn"
      },
      {
        "deltaTime": 512,
        "channel": 0,
        "type": "channel",
        "subtype": "noteOff",
        "noteNumber": 52,
        "velocity": 0
      },
      {
        "deltaTime": 0,
        "channel": 0,
        "type": "channel",
        "subtype": "noteOff",
        "noteNumber": 59,
        "velocity": 0
      },
      {
        "deltaTime": 0,
        "channel": 0,
        "type": "channel",
        "noteNumber": 55,
        "velocity": 64,
        "subtype": "noteOn"
      },
      {
        "deltaTime": 512,
        "channel": 0,
        "type": "channel",
        "subtype": "noteOff",
        "noteNumber": 55,
        "velocity": 0
      },
      {
        "deltaTime": 0,
        "channel": 0,
        "type": "channel",
        "noteNumber": 48,
        "velocity": 64,
        "subtype": "noteOn"
      },
      {
        "deltaTime": 512,
        "channel": 0,
        "type": "channel",
        "subtype": "noteOff",
        "noteNumber": 48,
        "velocity": 0
      },
      {
        "deltaTime": 0,
        "channel": 0,
        "type": "channel",
        "noteNumber": 55,
        "velocity": 64,
        "subtype": "noteOn"
      },
      {
        "deltaTime": 512,
        "channel": 0,
        "type": "channel",
        "subtype": "noteOff",
        "noteNumber": 55,
        "velocity": 0
      },
      {
        "deltaTime": 512,
        "channel": 0,
        "type": "channel",
        "noteNumber": 55,
        "velocity": 64,
        "subtype": "noteOn"
      },
      {
        "deltaTime": 512,
        "channel": 0,
        "type": "channel",
        "subtype": "noteOff",
        "noteNumber": 55,
        "velocity": 0
      },
      {
        "deltaTime": 0,
        "channel": 0,
        "type": "channel",
        "noteNumber": 50,
        "velocity": 64,
        "subtype": "noteOn"
      },
      {
        "deltaTime": 512,
        "channel": 0,
        "type": "channel",
        "subtype": "noteOff",
        "noteNumber": 50,
        "velocity": 0
      },
      {
        "deltaTime": 0,
        "channel": 0,
        "type": "channel",
        "noteNumber": 57,
        "velocity": 64,
        "subtype": "noteOn"
      },
      {
        "deltaTime": 512,
        "channel": 0,
        "type": "channel",
        "subtype": "noteOff",
        "noteNumber": 57,
        "velocity": 0
      },
      {
        "deltaTime": 512,
        "channel": 0,
        "type": "channel",
        "noteNumber": 57,
        "velocity": 64,
        "subtype": "noteOn"
      },
      {
        "deltaTime": 512,
        "channel": 0,
        "type": "channel",
        "subtype": "noteOff",
        "noteNumber": 57,
        "velocity": 0
      },
      {
        "deltaTime": 0,
        "channel": 0,
        "type": "channel",
        "noteNumber": 47,
        "velocity": 64,
        "subtype": "noteOn"
      },
      {
        "deltaTime": 512,
        "channel": 0,
        "type": "channel",
        "subtype": "noteOff",
        "noteNumber": 47,
        "velocity": 0
      },
      {
        "deltaTime": 0,
        "channel": 0,
        "type": "channel",
        "noteNumber": 54,
        "velocity": 64,
        "subtype": "noteOn"
      },
      {
        "deltaTime": 512,
        "channel": 0,
        "type": "channel",
        "subtype": "noteOff",
        "noteNumber": 54,
        "velocity": 0
      },
      {
        "deltaTime": 512,
        "channel": 0,
        "type": "channel",
        "noteNumber": 54,
        "velocity": 64,
        "subtype": "noteOn"
      },
      {
        "deltaTime": 512,
        "channel": 0,
        "type": "channel",
        "subtype": "noteOff",
        "noteNumber": 54,
        "velocity": 0
      },
      {
        "deltaTime": 0,
        "channel": 0,
        "type": "channel",
        "noteNumber": 52,
        "velocity": 64,
        "subtype": "noteOn"
      },
      {
        "deltaTime": 512,
        "channel": 0,
        "type": "channel",
        "subtype": "noteOff",
        "noteNumber": 52,
        "velocity": 0
      },
      {
        "deltaTime": 0,
        "channel": 0,
        "type": "channel",
        "noteNumber": 59,
        "velocity": 64,
        "subtype": "noteOn"
      },
      {
        "deltaTime": 512,
        "channel": 0,
        "type": "channel",
        "subtype": "noteOff",
        "noteNumber": 59,
        "velocity": 0
      },
      {
        "deltaTime": 512,
        "channel": 0,
        "type": "channel",
        "noteNumber": 59,
        "velocity": 64,
        "subtype": "noteOn"
      },
      {
        "deltaTime": 512,
        "channel": 0,
        "type": "channel",
        "subtype": "noteOff",
        "noteNumber": 59,
        "velocity": 0
      },
      {
        "deltaTime": 0,
        "channel": 0,
        "type": "channel",
        "noteNumber": 48,
        "velocity": 64,
        "subtype": "noteOn"
      },
      {
        "deltaTime": 512,
        "channel": 0,
        "type": "channel",
        "subtype": "noteOff",
        "noteNumber": 48,
        "velocity": 0
      },
      {
        "deltaTime": 0,
        "channel": 0,
        "type": "channel",
        "noteNumber": 55,
        "velocity": 64,
        "subtype": "noteOn"
      },
      {
        "deltaTime": 512,
        "channel": 0,
        "type": "channel",
        "subtype": "noteOff",
        "noteNumber": 55,
        "velocity": 0
      },
      {
        "deltaTime": 512,
        "channel": 0,
        "type": "channel",
        "noteNumber": 55,
        "velocity": 64,
        "subtype": "noteOn"
      },
      {
        "deltaTime": 512,
        "channel": 0,
        "type": "channel",
        "subtype": "noteOff",
        "noteNumber": 55,
        "velocity": 0
      },
      {
        "deltaTime": 0,
        "channel": 0,
        "type": "channel",
        "noteNumber": 50,
        "velocity": 64,
        "subtype": "noteOn"
      },
      {
        "deltaTime": 512,
        "channel": 0,
        "type": "channel",
        "subtype": "noteOff",
        "noteNumber": 50,
        "velocity": 0
      },
      {
        "deltaTime": 0,
        "channel": 0,
        "type": "channel",
        "noteNumber": 57,
        "velocity": 64,
        "subtype": "noteOn"
      },
      {
        "deltaTime": 512,
        "channel": 0,
        "type": "channel",
        "subtype": "noteOff",
        "noteNumber": 57,
        "velocity": 0
      },
      {
        "deltaTime": 512,
        "channel": 0,
        "type": "channel",
        "noteNumber": 57,
        "velocity": 64,
        "subtype": "noteOn"
      },
      {
        "deltaTime": 512,
        "channel": 0,
        "type": "channel",
        "subtype": "noteOff",
        "noteNumber": 57,
        "velocity": 0
      },
      {
        "deltaTime": 512,
        "channel": 0,
        "type": "channel",
        "noteNumber": 57,
        "velocity": 64,
        "subtype": "noteOn"
      },
      {
        "deltaTime": 512,
        "channel": 0,
        "type": "channel",
        "subtype": "noteOff",
        "noteNumber": 57,
        "velocity": 0
      },
      {
        "deltaTime": 1024,
        "channel": 0,
        "type": "channel",
        "noteNumber": 52,
        "velocity": 64,
        "subtype": "noteOn"
      },
      {
        "deltaTime": 512,
        "channel": 0,
        "type": "channel",
        "subtype": "noteOff",
        "noteNumber": 52,
        "velocity": 0
      },
      {
        "deltaTime": 0,
        "channel": 0,
        "type": "channel",
        "noteNumber": 59,
        "velocity": 64,
        "subtype": "noteOn"
      },
      {
        "deltaTime": 512,
        "channel": 0,
        "type": "channel",
        "subtype": "noteOff",
        "noteNumber": 59,
        "velocity": 0
      },
      {
        "deltaTime": 0,
        "channel": 0,
        "type": "channel",
        "noteNumber": 64,
        "velocity": 64,
        "subtype": "noteOn"
      },
      {
        "deltaTime": 1024,
        "channel": 0,
        "type": "channel",
        "subtype": "noteOff",
        "noteNumber": 64,
        "velocity": 0
      },
      {
        "deltaTime": 0,
        "channel": 0,
        "type": "channel",
        "noteNumber": 48,
        "velocity": 64,
        "subtype": "noteOn"
      },
      {
        "deltaTime": 512,
        "channel": 0,
        "type": "channel",
        "subtype": "noteOff",
        "noteNumber": 48,
        "velocity": 0
      },
      {
        "deltaTime": 0,
        "channel": 0,
        "type": "channel",
        "noteNumber": 55,
        "velocity": 64,
        "subtype": "noteOn"
      },
      {
        "deltaTime": 512,
        "channel": 0,
        "type": "channel",
        "subtype": "noteOff",
        "noteNumber": 55,
        "velocity": 0
      },
      {
        "deltaTime": 0,
        "channel": 0,
        "type": "channel",
        "noteNumber": 60,
        "velocity": 64,
        "subtype": "noteOn"
      },
      {
        "deltaTime": 512,
        "channel": 0,
        "type": "channel",
        "subtype": "noteOff",
        "noteNumber": 60,
        "velocity": 0
      },
      {
        "deltaTime": 0,
        "channel": 0,
        "type": "channel",
        "noteNumber": 55,
        "velocity": 64,
        "subtype": "noteOn"
      },
      {
        "deltaTime": 512,
        "channel": 0,
        "type": "channel",
        "subtype": "noteOff",
        "noteNumber": 55,
        "velocity": 0
      },
      {
        "deltaTime": 0,
        "channel": 0,
        "type": "channel",
        "noteNumber": 50,
        "velocity": 64,
        "subtype": "noteOn"
      },
      {
        "deltaTime": 512,
        "channel": 0,
        "type": "channel",
        "subtype": "noteOff",
        "noteNumber": 50,
        "velocity": 0
      },
      {
        "deltaTime": 0,
        "channel": 0,
        "type": "channel",
        "noteNumber": 57,
        "velocity": 64,
        "subtype": "noteOn"
      },
      {
        "deltaTime": 512,
        "channel": 0,
        "type": "channel",
        "subtype": "noteOff",
        "noteNumber": 57,
        "velocity": 0
      },
      {
        "deltaTime": 0,
        "channel": 0,
        "type": "channel",
        "noteNumber": 62,
        "velocity": 64,
        "subtype": "noteOn"
      },
      {
        "deltaTime": 1024,
        "channel": 0,
        "type": "channel",
        "subtype": "noteOff",
        "noteNumber": 62,
        "velocity": 0
      },
      {
        "deltaTime": 0,
        "channel": 0,
        "type": "channel",
        "noteNumber": 47,
        "velocity": 64,
        "subtype": "noteOn"
      },
      {
        "deltaTime": 512,
        "channel": 0,
        "type": "channel",
        "subtype": "noteOff",
        "noteNumber": 47,
        "velocity": 0
      },
      {
        "deltaTime": 0,
        "channel": 0,
        "type": "channel",
        "noteNumber": 54,
        "velocity": 64,
        "subtype": "noteOn"
      },
      {
        "deltaTime": 512,
        "channel": 0,
        "type": "channel",
        "subtype": "noteOff",
        "noteNumber": 54,
        "velocity": 0
      },
      {
        "deltaTime": 0,
        "channel": 0,
        "type": "channel",
        "noteNumber": 59,
        "velocity": 64,
        "subtype": "noteOn"
      },
      {
        "deltaTime": 512,
        "channel": 0,
        "type": "channel",
        "subtype": "noteOff",
        "noteNumber": 59,
        "velocity": 0
      },
      {
        "deltaTime": 0,
        "channel": 0,
        "type": "channel",
        "noteNumber": 54,
        "velocity": 64,
        "subtype": "noteOn"
      },
      {
        "deltaTime": 512,
        "channel": 0,
        "type": "channel",
        "subtype": "noteOff",
        "noteNumber": 54,
        "velocity": 0
      },
      {
        "deltaTime": 0,
        "channel": 0,
        "type": "channel",
        "noteNumber": 52,
        "velocity": 64,
        "subtype": "noteOn"
      },
      {
        "deltaTime": 512,
        "channel": 0,
        "type": "channel",
        "subtype": "noteOff",
        "noteNumber": 52,
        "velocity": 0
      },
      {
        "deltaTime": 0,
        "channel": 0,
        "type": "channel",
        "noteNumber": 59,
        "velocity": 64,
        "subtype": "noteOn"
      },
      {
        "deltaTime": 512,
        "channel": 0,
        "type": "channel",
        "subtype": "noteOff",
        "noteNumber": 59,
        "velocity": 0
      },
      {
        "deltaTime": 0,
        "channel": 0,
        "type": "channel",
        "noteNumber": 64,
        "velocity": 64,
        "subtype": "noteOn"
      },
      {
        "deltaTime": 1024,
        "channel": 0,
        "type": "channel",
        "subtype": "noteOff",
        "noteNumber": 64,
        "velocity": 0
      },
      {
        "deltaTime": 0,
        "channel": 0,
        "type": "channel",
        "noteNumber": 48,
        "velocity": 64,
        "subtype": "noteOn"
      },
      {
        "deltaTime": 512,
        "channel": 0,
        "type": "channel",
        "subtype": "noteOff",
        "noteNumber": 48,
        "velocity": 0
      },
      {
        "deltaTime": 0,
        "channel": 0,
        "type": "channel",
        "noteNumber": 55,
        "velocity": 64,
        "subtype": "noteOn"
      },
      {
        "deltaTime": 512,
        "channel": 0,
        "type": "channel",
        "subtype": "noteOff",
        "noteNumber": 55,
        "velocity": 0
      },
      {
        "deltaTime": 0,
        "channel": 0,
        "type": "channel",
        "noteNumber": 60,
        "velocity": 64,
        "subtype": "noteOn"
      },
      {
        "deltaTime": 512,
        "channel": 0,
        "type": "channel",
        "subtype": "noteOff",
        "noteNumber": 60,
        "velocity": 0
      },
      {
        "deltaTime": 0,
        "channel": 0,
        "type": "channel",
        "noteNumber": 55,
        "velocity": 64,
        "subtype": "noteOn"
      },
      {
        "deltaTime": 512,
        "channel": 0,
        "type": "channel",
        "subtype": "noteOff",
        "noteNumber": 55,
        "velocity": 0
      },
      {
        "deltaTime": 0,
        "channel": 0,
        "type": "channel",
        "noteNumber": 50,
        "velocity": 64,
        "subtype": "noteOn"
      },
      {
        "deltaTime": 512,
        "channel": 0,
        "type": "channel",
        "subtype": "noteOff",
        "noteNumber": 50,
        "velocity": 0
      },
      {
        "deltaTime": 0,
        "channel": 0,
        "type": "channel",
        "noteNumber": 57,
        "velocity": 64,
        "subtype": "noteOn"
      },
      {
        "deltaTime": 512,
        "channel": 0,
        "type": "channel",
        "subtype": "noteOff",
        "noteNumber": 57,
        "velocity": 0
      },
      {
        "deltaTime": 512,
        "channel": 0,
        "type": "channel",
        "noteNumber": 57,
        "velocity": 64,
        "subtype": "noteOn"
      },
      {
        "deltaTime": 512,
        "channel": 0,
        "type": "channel",
        "subtype": "noteOff",
        "noteNumber": 57,
        "velocity": 0
      },
      {
        "deltaTime": 512,
        "channel": 0,
        "type": "channel",
        "noteNumber": 57,
        "velocity": 64,
        "subtype": "noteOn"
      },
      {
        "deltaTime": 512,
        "channel": 0,
        "type": "channel",
        "subtype": "noteOff",
        "noteNumber": 57,
        "velocity": 0
      },
      {
        "deltaTime": 1024,
        "channel": 0,
        "type": "channel",
        "noteNumber": 52,
        "velocity": 64,
        "subtype": "noteOn"
      },
      {
        "deltaTime": 512,
        "channel": 0,
        "type": "channel",
        "subtype": "noteOff",
        "noteNumber": 52,
        "velocity": 0
      },
      {
        "deltaTime": 0,
        "channel": 0,
        "type": "channel",
        "noteNumber": 59,
        "velocity": 64,
        "subtype": "noteOn"
      },
      {
        "deltaTime": 512,
        "channel": 0,
        "type": "channel",
        "subtype": "noteOff",
        "noteNumber": 59,
        "velocity": 0
      },
      {
        "deltaTime": 0,
        "channel": 0,
        "type": "channel",
        "noteNumber": 64,
        "velocity": 64,
        "subtype": "noteOn"
      },
      {
        "deltaTime": 1024,
        "channel": 0,
        "type": "channel",
        "subtype": "noteOff",
        "noteNumber": 64,
        "velocity": 0
      },
      {
        "deltaTime": 0,
        "channel": 0,
        "type": "channel",
        "noteNumber": 48,
        "velocity": 64,
        "subtype": "noteOn"
      },
      {
        "deltaTime": 512,
        "channel": 0,
        "type": "channel",
        "subtype": "noteOff",
        "noteNumber": 48,
        "velocity": 0
      },
      {
        "deltaTime": 0,
        "channel": 0,
        "type": "channel",
        "noteNumber": 55,
        "velocity": 64,
        "subtype": "noteOn"
      },
      {
        "deltaTime": 512,
        "channel": 0,
        "type": "channel",
        "subtype": "noteOff",
        "noteNumber": 55,
        "velocity": 0
      },
      {
        "deltaTime": 0,
        "channel": 0,
        "type": "channel",
        "noteNumber": 60,
        "velocity": 64,
        "subtype": "noteOn"
      },
      {
        "deltaTime": 512,
        "channel": 0,
        "type": "channel",
        "subtype": "noteOff",
        "noteNumber": 60,
        "velocity": 0
      },
      {
        "deltaTime": 0,
        "channel": 0,
        "type": "channel",
        "noteNumber": 55,
        "velocity": 64,
        "subtype": "noteOn"
      },
      {
        "deltaTime": 512,
        "channel": 0,
        "type": "channel",
        "subtype": "noteOff",
        "noteNumber": 55,
        "velocity": 0
      },
      {
        "deltaTime": 0,
        "channel": 0,
        "type": "channel",
        "noteNumber": 50,
        "velocity": 64,
        "subtype": "noteOn"
      },
      {
        "deltaTime": 512,
        "channel": 0,
        "type": "channel",
        "subtype": "noteOff",
        "noteNumber": 50,
        "velocity": 0
      },
      {
        "deltaTime": 0,
        "channel": 0,
        "type": "channel",
        "noteNumber": 57,
        "velocity": 64,
        "subtype": "noteOn"
      },
      {
        "deltaTime": 512,
        "channel": 0,
        "type": "channel",
        "subtype": "noteOff",
        "noteNumber": 57,
        "velocity": 0
      },
      {
        "deltaTime": 0,
        "channel": 0,
        "type": "channel",
        "noteNumber": 62,
        "velocity": 64,
        "subtype": "noteOn"
      },
      {
        "deltaTime": 1024,
        "channel": 0,
        "type": "channel",
        "subtype": "noteOff",
        "noteNumber": 62,
        "velocity": 0
      },
      {
        "deltaTime": 0,
        "channel": 0,
        "type": "channel",
        "noteNumber": 47,
        "velocity": 64,
        "subtype": "noteOn"
      },
      {
        "deltaTime": 512,
        "channel": 0,
        "type": "channel",
        "subtype": "noteOff",
        "noteNumber": 47,
        "velocity": 0
      },
      {
        "deltaTime": 0,
        "channel": 0,
        "type": "channel",
        "noteNumber": 54,
        "velocity": 64,
        "subtype": "noteOn"
      },
      {
        "deltaTime": 512,
        "channel": 0,
        "type": "channel",
        "subtype": "noteOff",
        "noteNumber": 54,
        "velocity": 0
      },
      {
        "deltaTime": 0,
        "channel": 0,
        "type": "channel",
        "noteNumber": 59,
        "velocity": 64,
        "subtype": "noteOn"
      },
      {
        "deltaTime": 512,
        "channel": 0,
        "type": "channel",
        "subtype": "noteOff",
        "noteNumber": 59,
        "velocity": 0
      },
      {
        "deltaTime": 0,
        "channel": 0,
        "type": "channel",
        "noteNumber": 54,
        "velocity": 64,
        "subtype": "noteOn"
      },
      {
        "deltaTime": 512,
        "channel": 0,
        "type": "channel",
        "subtype": "noteOff",
        "noteNumber": 54,
        "velocity": 0
      },
      {
        "deltaTime": 0,
        "channel": 0,
        "type": "channel",
        "noteNumber": 52,
        "velocity": 64,
        "subtype": "noteOn"
      },
      {
        "deltaTime": 512,
        "channel": 0,
        "type": "channel",
        "subtype": "noteOff",
        "noteNumber": 52,
        "velocity": 0
      },
      {
        "deltaTime": 0,
        "channel": 0,
        "type": "channel",
        "noteNumber": 59,
        "velocity": 64,
        "subtype": "noteOn"
      },
      {
        "deltaTime": 512,
        "channel": 0,
        "type": "channel",
        "subtype": "noteOff",
        "noteNumber": 59,
        "velocity": 0
      },
      {
        "deltaTime": 0,
        "channel": 0,
        "type": "channel",
        "noteNumber": 64,
        "velocity": 64,
        "subtype": "noteOn"
      },
      {
        "deltaTime": 1024,
        "channel": 0,
        "type": "channel",
        "subtype": "noteOff",
        "noteNumber": 64,
        "velocity": 0
      },
      {
        "deltaTime": 0,
        "channel": 0,
        "type": "channel",
        "noteNumber": 48,
        "velocity": 64,
        "subtype": "noteOn"
      },
      {
        "deltaTime": 512,
        "channel": 0,
        "type": "channel",
        "subtype": "noteOff",
        "noteNumber": 48,
        "velocity": 0
      },
      {
        "deltaTime": 0,
        "channel": 0,
        "type": "channel",
        "noteNumber": 55,
        "velocity": 64,
        "subtype": "noteOn"
      },
      {
        "deltaTime": 512,
        "channel": 0,
        "type": "channel",
        "subtype": "noteOff",
        "noteNumber": 55,
        "velocity": 0
      },
      {
        "deltaTime": 0,
        "channel": 0,
        "type": "channel",
        "noteNumber": 60,
        "velocity": 64,
        "subtype": "noteOn"
      },
      {
        "deltaTime": 512,
        "channel": 0,
        "type": "channel",
        "subtype": "noteOff",
        "noteNumber": 60,
        "velocity": 0
      },
      {
        "deltaTime": 0,
        "channel": 0,
        "type": "channel",
        "noteNumber": 55,
        "velocity": 64,
        "subtype": "noteOn"
      },
      {
        "deltaTime": 512,
        "channel": 0,
        "type": "channel",
        "subtype": "noteOff",
        "noteNumber": 55,
        "velocity": 0
      },
      {
        "deltaTime": 0,
        "channel": 0,
        "type": "channel",
        "noteNumber": 50,
        "velocity": 64,
        "subtype": "noteOn"
      },
      {
        "deltaTime": 0,
        "channel": 0,
        "type": "channel",
        "noteNumber": 57,
        "velocity": 64,
        "subtype": "noteOn"
      },
      {
        "deltaTime": 1024,
        "channel": 0,
        "type": "channel",
        "subtype": "noteOff",
        "noteNumber": 50,
        "velocity": 0
      },
      {
        "deltaTime": 0,
        "channel": 0,
        "type": "channel",
        "subtype": "noteOff",
        "noteNumber": 57,
        "velocity": 0
      },
      {
        "deltaTime": 512,
        "channel": 0,
        "type": "channel",
        "noteNumber": 57,
        "velocity": 64,
        "subtype": "noteOn"
      },
      {
        "deltaTime": 512,
        "channel": 0,
        "type": "channel",
        "subtype": "noteOff",
        "noteNumber": 57,
        "velocity": 0
      },
      {
        "deltaTime": 2048,
        "channel": 0,
        "type": "channel",
        "noteNumber": 48,
        "velocity": 64,
        "subtype": "noteOn"
      },
      {
        "deltaTime": 0,
        "channel": 0,
        "type": "channel",
        "noteNumber": 55,
        "velocity": 64,
        "subtype": "noteOn"
      },
      {
        "deltaTime": 1024,
        "channel": 0,
        "type": "channel",
        "subtype": "noteOff",
        "noteNumber": 48,
        "velocity": 0
      },
      {
        "deltaTime": 0,
        "channel": 0,
        "type": "channel",
        "subtype": "noteOff",
        "noteNumber": 55,
        "velocity": 0
      },
      {
        "deltaTime": 0,
        "channel": 0,
        "type": "channel",
        "noteNumber": 48,
        "velocity": 64,
        "subtype": "noteOn"
      },
      {
        "deltaTime": 0,
        "channel": 0,
        "type": "channel",
        "noteNumber": 55,
        "velocity": 64,
        "subtype": "noteOn"
      },
      {
        "deltaTime": 1024,
        "channel": 0,
        "type": "channel",
        "subtype": "noteOff",
        "noteNumber": 48,
        "velocity": 0
      },
      {
        "deltaTime": 0,
        "channel": 0,
        "type": "channel",
        "subtype": "noteOff",
        "noteNumber": 55,
        "velocity": 0
      },
      {
        "deltaTime": 0,
        "channel": 0,
        "type": "channel",
        "noteNumber": 43,
        "velocity": 64,
        "subtype": "noteOn"
      },
      {
        "deltaTime": 0,
        "channel": 0,
        "type": "channel",
        "noteNumber": 50,
        "velocity": 64,
        "subtype": "noteOn"
      },
      {
        "deltaTime": 1024,
        "channel": 0,
        "type": "channel",
        "subtype": "noteOff",
        "noteNumber": 43,
        "velocity": 0
      },
      {
        "deltaTime": 0,
        "channel": 0,
        "type": "channel",
        "subtype": "noteOff",
        "noteNumber": 50,
        "velocity": 0
      },
      {
        "deltaTime": 0,
        "channel": 0,
        "type": "channel",
        "noteNumber": 43,
        "velocity": 64,
        "subtype": "noteOn"
      },
      {
        "deltaTime": 0,
        "channel": 0,
        "type": "channel",
        "noteNumber": 50,
        "velocity": 64,
        "subtype": "noteOn"
      },
      {
        "deltaTime": 1024,
        "channel": 0,
        "type": "channel",
        "subtype": "noteOff",
        "noteNumber": 43,
        "velocity": 0
      },
      {
        "deltaTime": 0,
        "channel": 0,
        "type": "channel",
        "subtype": "noteOff",
        "noteNumber": 50,
        "velocity": 0
      },
      {
        "deltaTime": 0,
        "channel": 0,
        "type": "channel",
        "noteNumber": 50,
        "velocity": 64,
        "subtype": "noteOn"
      },
      {
        "deltaTime": 0,
        "channel": 0,
        "type": "channel",
        "noteNumber": 57,
        "velocity": 64,
        "subtype": "noteOn"
      },
      {
        "deltaTime": 1024,
        "channel": 0,
        "type": "channel",
        "subtype": "noteOff",
        "noteNumber": 50,
        "velocity": 0
      },
      {
        "deltaTime": 0,
        "channel": 0,
        "type": "channel",
        "subtype": "noteOff",
        "noteNumber": 57,
        "velocity": 0
      },
      {
        "deltaTime": 0,
        "channel": 0,
        "type": "channel",
        "noteNumber": 50,
        "velocity": 64,
        "subtype": "noteOn"
      },
      {
        "deltaTime": 0,
        "channel": 0,
        "type": "channel",
        "noteNumber": 57,
        "velocity": 64,
        "subtype": "noteOn"
      },
      {
        "deltaTime": 1024,
        "channel": 0,
        "type": "channel",
        "subtype": "noteOff",
        "noteNumber": 50,
        "velocity": 0
      },
      {
        "deltaTime": 0,
        "channel": 0,
        "type": "channel",
        "subtype": "noteOff",
        "noteNumber": 57,
        "velocity": 0
      },
      {
        "deltaTime": 0,
        "channel": 0,
        "type": "channel",
        "noteNumber": 52,
        "velocity": 64,
        "subtype": "noteOn"
      },
      {
        "deltaTime": 0,
        "channel": 0,
        "type": "channel",
        "noteNumber": 59,
        "velocity": 64,
        "subtype": "noteOn"
      },
      {
        "deltaTime": 1024,
        "channel": 0,
        "type": "channel",
        "subtype": "noteOff",
        "noteNumber": 52,
        "velocity": 0
      },
      {
        "deltaTime": 0,
        "channel": 0,
        "type": "channel",
        "subtype": "noteOff",
        "noteNumber": 59,
        "velocity": 0
      },
      {
        "deltaTime": 0,
        "channel": 0,
        "type": "channel",
        "noteNumber": 52,
        "velocity": 64,
        "subtype": "noteOn"
      },
      {
        "deltaTime": 0,
        "channel": 0,
        "type": "channel",
        "noteNumber": 59,
        "velocity": 64,
        "subtype": "noteOn"
      },
      {
        "deltaTime": 1024,
        "channel": 0,
        "type": "channel",
        "subtype": "noteOff",
        "noteNumber": 52,
        "velocity": 0
      },
      {
        "deltaTime": 0,
        "channel": 0,
        "type": "channel",
        "subtype": "noteOff",
        "noteNumber": 59,
        "velocity": 0
      },
      {
        "deltaTime": 0,
        "channel": 0,
        "type": "channel",
        "noteNumber": 48,
        "velocity": 64,
        "subtype": "noteOn"
      },
      {
        "deltaTime": 0,
        "channel": 0,
        "type": "channel",
        "noteNumber": 55,
        "velocity": 64,
        "subtype": "noteOn"
      },
      {
        "deltaTime": 1024,
        "channel": 0,
        "type": "channel",
        "subtype": "noteOff",
        "noteNumber": 48,
        "velocity": 0
      },
      {
        "deltaTime": 0,
        "channel": 0,
        "type": "channel",
        "subtype": "noteOff",
        "noteNumber": 55,
        "velocity": 0
      },
      {
        "deltaTime": 0,
        "channel": 0,
        "type": "channel",
        "noteNumber": 48,
        "velocity": 64,
        "subtype": "noteOn"
      },
      {
        "deltaTime": 0,
        "channel": 0,
        "type": "channel",
        "noteNumber": 55,
        "velocity": 64,
        "subtype": "noteOn"
      },
      {
        "deltaTime": 1024,
        "channel": 0,
        "type": "channel",
        "subtype": "noteOff",
        "noteNumber": 48,
        "velocity": 0
      },
      {
        "deltaTime": 0,
        "channel": 0,
        "type": "channel",
        "subtype": "noteOff",
        "noteNumber": 55,
        "velocity": 0
      },
      {
        "deltaTime": 0,
        "channel": 0,
        "type": "channel",
        "noteNumber": 43,
        "velocity": 64,
        "subtype": "noteOn"
      },
      {
        "deltaTime": 0,
        "channel": 0,
        "type": "channel",
        "noteNumber": 50,
        "velocity": 64,
        "subtype": "noteOn"
      },
      {
        "deltaTime": 1024,
        "channel": 0,
        "type": "channel",
        "subtype": "noteOff",
        "noteNumber": 43,
        "velocity": 0
      },
      {
        "deltaTime": 0,
        "channel": 0,
        "type": "channel",
        "subtype": "noteOff",
        "noteNumber": 50,
        "velocity": 0
      },
      {
        "deltaTime": 0,
        "channel": 0,
        "type": "channel",
        "noteNumber": 43,
        "velocity": 64,
        "subtype": "noteOn"
      },
      {
        "deltaTime": 0,
        "channel": 0,
        "type": "channel",
        "noteNumber": 50,
        "velocity": 64,
        "subtype": "noteOn"
      },
      {
        "deltaTime": 1024,
        "channel": 0,
        "type": "channel",
        "subtype": "noteOff",
        "noteNumber": 43,
        "velocity": 0
      },
      {
        "deltaTime": 0,
        "channel": 0,
        "type": "channel",
        "subtype": "noteOff",
        "noteNumber": 50,
        "velocity": 0
      },
      {
        "deltaTime": 0,
        "channel": 0,
        "type": "channel",
        "noteNumber": 50,
        "velocity": 64,
        "subtype": "noteOn"
      },
      {
        "deltaTime": 0,
        "channel": 0,
        "type": "channel",
        "noteNumber": 57,
        "velocity": 64,
        "subtype": "noteOn"
      },
      {
        "deltaTime": 1024,
        "channel": 0,
        "type": "channel",
        "subtype": "noteOff",
        "noteNumber": 50,
        "velocity": 0
      },
      {
        "deltaTime": 0,
        "channel": 0,
        "type": "channel",
        "subtype": "noteOff",
        "noteNumber": 57,
        "velocity": 0
      },
      {
        "deltaTime": 512,
        "channel": 0,
        "type": "channel",
        "noteNumber": 57,
        "velocity": 64,
        "subtype": "noteOn"
      },
      {
        "deltaTime": 512,
        "channel": 0,
        "type": "channel",
        "subtype": "noteOff",
        "noteNumber": 57,
        "velocity": 0
      },
      {
        "deltaTime": 2048,
        "channel": 0,
        "type": "channel",
        "noteNumber": 48,
        "velocity": 64,
        "subtype": "noteOn"
      },
      {
        "deltaTime": 0,
        "channel": 0,
        "type": "channel",
        "noteNumber": 55,
        "velocity": 64,
        "subtype": "noteOn"
      },
      {
        "deltaTime": 1024,
        "channel": 0,
        "type": "channel",
        "subtype": "noteOff",
        "noteNumber": 48,
        "velocity": 0
      },
      {
        "deltaTime": 0,
        "channel": 0,
        "type": "channel",
        "subtype": "noteOff",
        "noteNumber": 55,
        "velocity": 0
      },
      {
        "deltaTime": 0,
        "channel": 0,
        "type": "channel",
        "noteNumber": 48,
        "velocity": 64,
        "subtype": "noteOn"
      },
      {
        "deltaTime": 0,
        "channel": 0,
        "type": "channel",
        "noteNumber": 55,
        "velocity": 64,
        "subtype": "noteOn"
      },
      {
        "deltaTime": 1024,
        "channel": 0,
        "type": "channel",
        "subtype": "noteOff",
        "noteNumber": 48,
        "velocity": 0
      },
      {
        "deltaTime": 0,
        "channel": 0,
        "type": "channel",
        "subtype": "noteOff",
        "noteNumber": 55,
        "velocity": 0
      },
      {
        "deltaTime": 0,
        "channel": 0,
        "type": "channel",
        "noteNumber": 43,
        "velocity": 64,
        "subtype": "noteOn"
      },
      {
        "deltaTime": 0,
        "channel": 0,
        "type": "channel",
        "noteNumber": 50,
        "velocity": 64,
        "subtype": "noteOn"
      },
      {
        "deltaTime": 1024,
        "channel": 0,
        "type": "channel",
        "subtype": "noteOff",
        "noteNumber": 43,
        "velocity": 0
      },
      {
        "deltaTime": 0,
        "channel": 0,
        "type": "channel",
        "subtype": "noteOff",
        "noteNumber": 50,
        "velocity": 0
      },
      {
        "deltaTime": 0,
        "channel": 0,
        "type": "channel",
        "noteNumber": 43,
        "velocity": 64,
        "subtype": "noteOn"
      },
      {
        "deltaTime": 0,
        "channel": 0,
        "type": "channel",
        "noteNumber": 50,
        "velocity": 64,
        "subtype": "noteOn"
      },
      {
        "deltaTime": 1024,
        "channel": 0,
        "type": "channel",
        "subtype": "noteOff",
        "noteNumber": 43,
        "velocity": 0
      },
      {
        "deltaTime": 0,
        "channel": 0,
        "type": "channel",
        "subtype": "noteOff",
        "noteNumber": 50,
        "velocity": 0
      },
      {
        "deltaTime": 0,
        "channel": 0,
        "type": "channel",
        "noteNumber": 50,
        "velocity": 64,
        "subtype": "noteOn"
      },
      {
        "deltaTime": 0,
        "channel": 0,
        "type": "channel",
        "noteNumber": 57,
        "velocity": 64,
        "subtype": "noteOn"
      },
      {
        "deltaTime": 1024,
        "channel": 0,
        "type": "channel",
        "subtype": "noteOff",
        "noteNumber": 50,
        "velocity": 0
      },
      {
        "deltaTime": 0,
        "channel": 0,
        "type": "channel",
        "subtype": "noteOff",
        "noteNumber": 57,
        "velocity": 0
      },
      {
        "deltaTime": 0,
        "channel": 0,
        "type": "channel",
        "noteNumber": 50,
        "velocity": 64,
        "subtype": "noteOn"
      },
      {
        "deltaTime": 0,
        "channel": 0,
        "type": "channel",
        "noteNumber": 57,
        "velocity": 64,
        "subtype": "noteOn"
      },
      {
        "deltaTime": 1024,
        "channel": 0,
        "type": "channel",
        "subtype": "noteOff",
        "noteNumber": 50,
        "velocity": 0
      },
      {
        "deltaTime": 0,
        "channel": 0,
        "type": "channel",
        "subtype": "noteOff",
        "noteNumber": 57,
        "velocity": 0
      },
      {
        "deltaTime": 0,
        "channel": 0,
        "type": "channel",
        "noteNumber": 52,
        "velocity": 64,
        "subtype": "noteOn"
      },
      {
        "deltaTime": 0,
        "channel": 0,
        "type": "channel",
        "noteNumber": 59,
        "velocity": 64,
        "subtype": "noteOn"
      },
      {
        "deltaTime": 1024,
        "channel": 0,
        "type": "channel",
        "subtype": "noteOff",
        "noteNumber": 52,
        "velocity": 0
      },
      {
        "deltaTime": 0,
        "channel": 0,
        "type": "channel",
        "subtype": "noteOff",
        "noteNumber": 59,
        "velocity": 0
      },
      {
        "deltaTime": 0,
        "channel": 0,
        "type": "channel",
        "noteNumber": 52,
        "velocity": 64,
        "subtype": "noteOn"
      },
      {
        "deltaTime": 0,
        "channel": 0,
        "type": "channel",
        "noteNumber": 59,
        "velocity": 64,
        "subtype": "noteOn"
      },
      {
        "deltaTime": 1024,
        "channel": 0,
        "type": "channel",
        "subtype": "noteOff",
        "noteNumber": 52,
        "velocity": 0
      },
      {
        "deltaTime": 0,
        "channel": 0,
        "type": "channel",
        "subtype": "noteOff",
        "noteNumber": 59,
        "velocity": 0
      },
      {
        "deltaTime": 0,
        "channel": 0,
        "type": "channel",
        "noteNumber": 48,
        "velocity": 64,
        "subtype": "noteOn"
      },
      {
        "deltaTime": 0,
        "channel": 0,
        "type": "channel",
        "noteNumber": 55,
        "velocity": 64,
        "subtype": "noteOn"
      },
      {
        "deltaTime": 1024,
        "channel": 0,
        "type": "channel",
        "subtype": "noteOff",
        "noteNumber": 48,
        "velocity": 0
      },
      {
        "deltaTime": 0,
        "channel": 0,
        "type": "channel",
        "subtype": "noteOff",
        "noteNumber": 55,
        "velocity": 0
      },
      {
        "deltaTime": 0,
        "channel": 0,
        "type": "channel",
        "noteNumber": 48,
        "velocity": 64,
        "subtype": "noteOn"
      },
      {
        "deltaTime": 0,
        "channel": 0,
        "type": "channel",
        "noteNumber": 55,
        "velocity": 64,
        "subtype": "noteOn"
      },
      {
        "deltaTime": 1024,
        "channel": 0,
        "type": "channel",
        "subtype": "noteOff",
        "noteNumber": 48,
        "velocity": 0
      },
      {
        "deltaTime": 0,
        "channel": 0,
        "type": "channel",
        "subtype": "noteOff",
        "noteNumber": 55,
        "velocity": 0
      },
      {
        "deltaTime": 0,
        "channel": 0,
        "type": "channel",
        "noteNumber": 43,
        "velocity": 64,
        "subtype": "noteOn"
      },
      {
        "deltaTime": 0,
        "channel": 0,
        "type": "channel",
        "noteNumber": 50,
        "velocity": 64,
        "subtype": "noteOn"
      },
      {
        "deltaTime": 1024,
        "channel": 0,
        "type": "channel",
        "subtype": "noteOff",
        "noteNumber": 43,
        "velocity": 0
      },
      {
        "deltaTime": 0,
        "channel": 0,
        "type": "channel",
        "subtype": "noteOff",
        "noteNumber": 50,
        "velocity": 0
      },
      {
        "deltaTime": 0,
        "channel": 0,
        "type": "channel",
        "noteNumber": 43,
        "velocity": 64,
        "subtype": "noteOn"
      },
      {
        "deltaTime": 0,
        "channel": 0,
        "type": "channel",
        "noteNumber": 50,
        "velocity": 64,
        "subtype": "noteOn"
      },
      {
        "deltaTime": 1024,
        "channel": 0,
        "type": "channel",
        "subtype": "noteOff",
        "noteNumber": 43,
        "velocity": 0
      },
      {
        "deltaTime": 0,
        "channel": 0,
        "type": "channel",
        "subtype": "noteOff",
        "noteNumber": 50,
        "velocity": 0
      },
      {
        "deltaTime": 0,
        "channel": 0,
        "type": "channel",
        "noteNumber": 50,
        "velocity": 64,
        "subtype": "noteOn"
      },
      {
        "deltaTime": 0,
        "channel": 0,
        "type": "channel",
        "noteNumber": 57,
        "velocity": 64,
        "subtype": "noteOn"
      },
      {
        "deltaTime": 1024,
        "channel": 0,
        "type": "channel",
        "subtype": "noteOff",
        "noteNumber": 50,
        "velocity": 0
      },
      {
        "deltaTime": 0,
        "channel": 0,
        "type": "channel",
        "subtype": "noteOff",
        "noteNumber": 57,
        "velocity": 0
      },
      {
        "deltaTime": 512,
        "channel": 0,
        "type": "channel",
        "noteNumber": 57,
        "velocity": 64,
        "subtype": "noteOn"
      },
      {
        "deltaTime": 512,
        "channel": 0,
        "type": "channel",
        "subtype": "noteOff",
        "noteNumber": 57,
        "velocity": 0
      },
      {
        "deltaTime": 512,
        "channel": 0,
        "type": "channel",
        "noteNumber": 57,
        "velocity": 64,
        "subtype": "noteOn"
      },
      {
        "deltaTime": 512,
        "channel": 0,
        "type": "channel",
        "subtype": "noteOff",
        "noteNumber": 57,
        "velocity": 0
      },
      {
        "deltaTime": 1024,
        "channel": 0,
        "type": "channel",
        "noteNumber": 52,
        "velocity": 64,
        "subtype": "noteOn"
      },
      {
        "deltaTime": 512,
        "channel": 0,
        "type": "channel",
        "subtype": "noteOff",
        "noteNumber": 52,
        "velocity": 0
      },
      {
        "deltaTime": 0,
        "channel": 0,
        "type": "channel",
        "noteNumber": 59,
        "velocity": 64,
        "subtype": "noteOn"
      },
      {
        "deltaTime": 512,
        "channel": 0,
        "type": "channel",
        "subtype": "noteOff",
        "noteNumber": 59,
        "velocity": 0
      },
      {
        "deltaTime": 0,
        "channel": 0,
        "type": "channel",
        "noteNumber": 64,
        "velocity": 64,
        "subtype": "noteOn"
      },
      {
        "deltaTime": 512,
        "channel": 0,
        "type": "channel",
        "subtype": "noteOff",
        "noteNumber": 64,
        "velocity": 0
      },
      {
        "deltaTime": 0,
        "channel": 0,
        "type": "channel",
        "noteNumber": 59,
        "velocity": 64,
        "subtype": "noteOn"
      },
      {
        "deltaTime": 512,
        "channel": 0,
        "type": "channel",
        "subtype": "noteOff",
        "noteNumber": 59,
        "velocity": 0
      },
      {
        "deltaTime": 0,
        "channel": 0,
        "type": "channel",
        "noteNumber": 48,
        "velocity": 64,
        "subtype": "noteOn"
      },
      {
        "deltaTime": 512,
        "channel": 0,
        "type": "channel",
        "subtype": "noteOff",
        "noteNumber": 48,
        "velocity": 0
      },
      {
        "deltaTime": 0,
        "channel": 0,
        "type": "channel",
        "noteNumber": 55,
        "velocity": 64,
        "subtype": "noteOn"
      },
      {
        "deltaTime": 512,
        "channel": 0,
        "type": "channel",
        "subtype": "noteOff",
        "noteNumber": 55,
        "velocity": 0
      },
      {
        "deltaTime": 0,
        "channel": 0,
        "type": "channel",
        "noteNumber": 60,
        "velocity": 64,
        "subtype": "noteOn"
      },
      {
        "deltaTime": 512,
        "channel": 0,
        "type": "channel",
        "subtype": "noteOff",
        "noteNumber": 60,
        "velocity": 0
      },
      {
        "deltaTime": 0,
        "channel": 0,
        "type": "channel",
        "noteNumber": 55,
        "velocity": 64,
        "subtype": "noteOn"
      },
      {
        "deltaTime": 512,
        "channel": 0,
        "type": "channel",
        "subtype": "noteOff",
        "noteNumber": 55,
        "velocity": 0
      },
      {
        "deltaTime": 0,
        "channel": 0,
        "type": "channel",
        "noteNumber": 50,
        "velocity": 64,
        "subtype": "noteOn"
      },
      {
        "deltaTime": 512,
        "channel": 0,
        "type": "channel",
        "subtype": "noteOff",
        "noteNumber": 50,
        "velocity": 0
      },
      {
        "deltaTime": 0,
        "channel": 0,
        "type": "channel",
        "noteNumber": 57,
        "velocity": 64,
        "subtype": "noteOn"
      },
      {
        "deltaTime": 512,
        "channel": 0,
        "type": "channel",
        "subtype": "noteOff",
        "noteNumber": 57,
        "velocity": 0
      },
      {
        "deltaTime": 512,
        "channel": 0,
        "type": "channel",
        "noteNumber": 57,
        "velocity": 64,
        "subtype": "noteOn"
      },
      {
        "deltaTime": 512,
        "channel": 0,
        "type": "channel",
        "subtype": "noteOff",
        "noteNumber": 57,
        "velocity": 0
      },
      {
        "deltaTime": 512,
        "channel": 0,
        "type": "channel",
        "noteNumber": 57,
        "velocity": 64,
        "subtype": "noteOn"
      },
      {
        "deltaTime": 512,
        "channel": 0,
        "type": "channel",
        "subtype": "noteOff",
        "noteNumber": 57,
        "velocity": 0
      },
      {
        "deltaTime": 1024,
        "channel": 0,
        "type": "channel",
        "noteNumber": 52,
        "velocity": 64,
        "subtype": "noteOn"
      },
      {
        "deltaTime": 512,
        "channel": 0,
        "type": "channel",
        "subtype": "noteOff",
        "noteNumber": 52,
        "velocity": 0
      },
      {
        "deltaTime": 0,
        "channel": 0,
        "type": "channel",
        "noteNumber": 59,
        "velocity": 64,
        "subtype": "noteOn"
      },
      {
        "deltaTime": 512,
        "channel": 0,
        "type": "channel",
        "subtype": "noteOff",
        "noteNumber": 59,
        "velocity": 0
      },
      {
        "deltaTime": 0,
        "channel": 0,
        "type": "channel",
        "noteNumber": 64,
        "velocity": 64,
        "subtype": "noteOn"
      },
      {
        "deltaTime": 512,
        "channel": 0,
        "type": "channel",
        "subtype": "noteOff",
        "noteNumber": 64,
        "velocity": 0
      },
      {
        "deltaTime": 0,
        "channel": 0,
        "type": "channel",
        "noteNumber": 59,
        "velocity": 64,
        "subtype": "noteOn"
      },
      {
        "deltaTime": 512,
        "channel": 0,
        "type": "channel",
        "subtype": "noteOff",
        "noteNumber": 59,
        "velocity": 0
      },
      {
        "deltaTime": 0,
        "channel": 0,
        "type": "channel",
        "noteNumber": 48,
        "velocity": 64,
        "subtype": "noteOn"
      },
      {
        "deltaTime": 512,
        "channel": 0,
        "type": "channel",
        "subtype": "noteOff",
        "noteNumber": 48,
        "velocity": 0
      },
      {
        "deltaTime": 0,
        "channel": 0,
        "type": "channel",
        "noteNumber": 55,
        "velocity": 64,
        "subtype": "noteOn"
      },
      {
        "deltaTime": 512,
        "channel": 0,
        "type": "channel",
        "subtype": "noteOff",
        "noteNumber": 55,
        "velocity": 0
      },
      {
        "deltaTime": 0,
        "channel": 0,
        "type": "channel",
        "noteNumber": 60,
        "velocity": 64,
        "subtype": "noteOn"
      },
      {
        "deltaTime": 512,
        "channel": 0,
        "type": "channel",
        "subtype": "noteOff",
        "noteNumber": 60,
        "velocity": 0
      },
      {
        "deltaTime": 0,
        "channel": 0,
        "type": "channel",
        "noteNumber": 55,
        "velocity": 64,
        "subtype": "noteOn"
      },
      {
        "deltaTime": 512,
        "channel": 0,
        "type": "channel",
        "subtype": "noteOff",
        "noteNumber": 55,
        "velocity": 0
      },
      {
        "deltaTime": 0,
        "channel": 0,
        "type": "channel",
        "noteNumber": 50,
        "velocity": 64,
        "subtype": "noteOn"
      },
      {
        "deltaTime": 512,
        "channel": 0,
        "type": "channel",
        "subtype": "noteOff",
        "noteNumber": 50,
        "velocity": 0
      },
      {
        "deltaTime": 0,
        "channel": 0,
        "type": "channel",
        "noteNumber": 57,
        "velocity": 64,
        "subtype": "noteOn"
      },
      {
        "deltaTime": 512,
        "channel": 0,
        "type": "channel",
        "subtype": "noteOff",
        "noteNumber": 57,
        "velocity": 0
      },
      {
        "deltaTime": 512,
        "channel": 0,
        "type": "channel",
        "noteNumber": 57,
        "velocity": 64,
        "subtype": "noteOn"
      },
      {
        "deltaTime": 512,
        "channel": 0,
        "type": "channel",
        "subtype": "noteOff",
        "noteNumber": 57,
        "velocity": 0
      },
      {
        "deltaTime": 512,
        "channel": 0,
        "type": "channel",
        "noteNumber": 57,
        "velocity": 64,
        "subtype": "noteOn"
      },
      {
        "deltaTime": 512,
        "channel": 0,
        "type": "channel",
        "subtype": "noteOff",
        "noteNumber": 57,
        "velocity": 0
      },
      {
        "deltaTime": 1024,
        "channel": 0,
        "type": "channel",
        "noteNumber": 52,
        "velocity": 64,
        "subtype": "noteOn"
      },
      {
        "deltaTime": 512,
        "channel": 0,
        "type": "channel",
        "subtype": "noteOff",
        "noteNumber": 52,
        "velocity": 0
      },
      {
        "deltaTime": 0,
        "channel": 0,
        "type": "channel",
        "noteNumber": 59,
        "velocity": 64,
        "subtype": "noteOn"
      },
      {
        "deltaTime": 512,
        "channel": 0,
        "type": "channel",
        "subtype": "noteOff",
        "noteNumber": 59,
        "velocity": 0
      },
      {
        "deltaTime": 0,
        "channel": 0,
        "type": "channel",
        "noteNumber": 64,
        "velocity": 64,
        "subtype": "noteOn"
      },
      {
        "deltaTime": 512,
        "channel": 0,
        "type": "channel",
        "subtype": "noteOff",
        "noteNumber": 64,
        "velocity": 0
      },
      {
        "deltaTime": 0,
        "channel": 0,
        "type": "channel",
        "noteNumber": 59,
        "velocity": 64,
        "subtype": "noteOn"
      },
      {
        "deltaTime": 512,
        "channel": 0,
        "type": "channel",
        "subtype": "noteOff",
        "noteNumber": 59,
        "velocity": 0
      },
      {
        "deltaTime": 0,
        "channel": 0,
        "type": "channel",
        "noteNumber": 48,
        "velocity": 64,
        "subtype": "noteOn"
      },
      {
        "deltaTime": 512,
        "channel": 0,
        "type": "channel",
        "subtype": "noteOff",
        "noteNumber": 48,
        "velocity": 0
      },
      {
        "deltaTime": 0,
        "channel": 0,
        "type": "channel",
        "noteNumber": 55,
        "velocity": 64,
        "subtype": "noteOn"
      },
      {
        "deltaTime": 512,
        "channel": 0,
        "type": "channel",
        "subtype": "noteOff",
        "noteNumber": 55,
        "velocity": 0
      },
      {
        "deltaTime": 0,
        "channel": 0,
        "type": "channel",
        "noteNumber": 60,
        "velocity": 64,
        "subtype": "noteOn"
      },
      {
        "deltaTime": 512,
        "channel": 0,
        "type": "channel",
        "subtype": "noteOff",
        "noteNumber": 60,
        "velocity": 0
      },
      {
        "deltaTime": 0,
        "channel": 0,
        "type": "channel",
        "noteNumber": 55,
        "velocity": 64,
        "subtype": "noteOn"
      },
      {
        "deltaTime": 512,
        "channel": 0,
        "type": "channel",
        "subtype": "noteOff",
        "noteNumber": 55,
        "velocity": 0
      },
      {
        "deltaTime": 0,
        "channel": 0,
        "type": "channel",
        "noteNumber": 50,
        "velocity": 64,
        "subtype": "noteOn"
      },
      {
        "deltaTime": 512,
        "channel": 0,
        "type": "channel",
        "subtype": "noteOff",
        "noteNumber": 50,
        "velocity": 0
      },
      {
        "deltaTime": 0,
        "channel": 0,
        "type": "channel",
        "noteNumber": 57,
        "velocity": 64,
        "subtype": "noteOn"
      },
      {
        "deltaTime": 512,
        "channel": 0,
        "type": "channel",
        "subtype": "noteOff",
        "noteNumber": 57,
        "velocity": 0
      },
      {
        "deltaTime": 512,
        "channel": 0,
        "type": "channel",
        "noteNumber": 57,
        "velocity": 64,
        "subtype": "noteOn"
      },
      {
        "deltaTime": 512,
        "channel": 0,
        "type": "channel",
        "subtype": "noteOff",
        "noteNumber": 57,
        "velocity": 0
      },
      {
        "deltaTime": 512,
        "channel": 0,
        "type": "channel",
        "noteNumber": 57,
        "velocity": 64,
        "subtype": "noteOn"
      },
      {
        "deltaTime": 512,
        "channel": 0,
        "type": "channel",
        "subtype": "noteOff",
        "noteNumber": 57,
        "velocity": 0
      },
      {
        "deltaTime": 1024,
        "channel": 0,
        "type": "channel",
        "noteNumber": 52,
        "velocity": 64,
        "subtype": "noteOn"
      },
      {
        "deltaTime": 512,
        "channel": 0,
        "type": "channel",
        "subtype": "noteOff",
        "noteNumber": 52,
        "velocity": 0
      },
      {
        "deltaTime": 0,
        "channel": 0,
        "type": "channel",
        "noteNumber": 59,
        "velocity": 64,
        "subtype": "noteOn"
      },
      {
        "deltaTime": 512,
        "channel": 0,
        "type": "channel",
        "subtype": "noteOff",
        "noteNumber": 59,
        "velocity": 0
      },
      {
        "deltaTime": 0,
        "channel": 0,
        "type": "channel",
        "noteNumber": 64,
        "velocity": 64,
        "subtype": "noteOn"
      },
      {
        "deltaTime": 512,
        "channel": 0,
        "type": "channel",
        "subtype": "noteOff",
        "noteNumber": 64,
        "velocity": 0
      },
      {
        "deltaTime": 0,
        "channel": 0,
        "type": "channel",
        "noteNumber": 59,
        "velocity": 64,
        "subtype": "noteOn"
      },
      {
        "deltaTime": 512,
        "channel": 0,
        "type": "channel",
        "subtype": "noteOff",
        "noteNumber": 59,
        "velocity": 0
      },
      {
        "deltaTime": 0,
        "channel": 0,
        "type": "channel",
        "noteNumber": 48,
        "velocity": 64,
        "subtype": "noteOn"
      },
      {
        "deltaTime": 512,
        "channel": 0,
        "type": "channel",
        "subtype": "noteOff",
        "noteNumber": 48,
        "velocity": 0
      },
      {
        "deltaTime": 0,
        "channel": 0,
        "type": "channel",
        "noteNumber": 55,
        "velocity": 64,
        "subtype": "noteOn"
      },
      {
        "deltaTime": 512,
        "channel": 0,
        "type": "channel",
        "subtype": "noteOff",
        "noteNumber": 55,
        "velocity": 0
      },
      {
        "deltaTime": 0,
        "channel": 0,
        "type": "channel",
        "noteNumber": 60,
        "velocity": 64,
        "subtype": "noteOn"
      },
      {
        "deltaTime": 512,
        "channel": 0,
        "type": "channel",
        "subtype": "noteOff",
        "noteNumber": 60,
        "velocity": 0
      },
      {
        "deltaTime": 0,
        "channel": 0,
        "type": "channel",
        "noteNumber": 55,
        "velocity": 64,
        "subtype": "noteOn"
      },
      {
        "deltaTime": 512,
        "channel": 0,
        "type": "channel",
        "subtype": "noteOff",
        "noteNumber": 55,
        "velocity": 0
      },
      {
        "deltaTime": 0,
        "channel": 0,
        "type": "channel",
        "noteNumber": 50,
        "velocity": 64,
        "subtype": "noteOn"
      },
      {
        "deltaTime": 0,
        "channel": 0,
        "type": "channel",
        "noteNumber": 57,
        "velocity": 64,
        "subtype": "noteOn"
      },
      {
        "deltaTime": 1024,
        "channel": 0,
        "type": "channel",
        "subtype": "noteOff",
        "noteNumber": 50,
        "velocity": 0
      },
      {
        "deltaTime": 0,
        "channel": 0,
        "type": "channel",
        "subtype": "noteOff",
        "noteNumber": 57,
        "velocity": 0
      },
      {
        "deltaTime": 512,
        "channel": 0,
        "type": "channel",
        "noteNumber": 57,
        "velocity": 64,
        "subtype": "noteOn"
      },
      {
        "deltaTime": 512,
        "channel": 0,
        "type": "channel",
        "subtype": "noteOff",
        "noteNumber": 57,
        "velocity": 0
      },
      {
        "deltaTime": 2048,
        "channel": 0,
        "type": "channel",
        "noteNumber": 60,
        "velocity": 64,
        "subtype": "noteOn"
      },
      {
        "deltaTime": 0,
        "channel": 0,
        "type": "channel",
        "noteNumber": 67,
        "velocity": 64,
        "subtype": "noteOn"
      },
      {
        "deltaTime": 1024,
        "channel": 0,
        "type": "channel",
        "subtype": "noteOff",
        "noteNumber": 60,
        "velocity": 0
      },
      {
        "deltaTime": 0,
        "channel": 0,
        "type": "channel",
        "subtype": "noteOff",
        "noteNumber": 67,
        "velocity": 0
      },
      {
        "deltaTime": 0,
        "channel": 0,
        "type": "channel",
        "noteNumber": 60,
        "velocity": 64,
        "subtype": "noteOn"
      },
      {
        "deltaTime": 0,
        "channel": 0,
        "type": "channel",
        "noteNumber": 67,
        "velocity": 64,
        "subtype": "noteOn"
      },
      {
        "deltaTime": 1024,
        "channel": 0,
        "type": "channel",
        "subtype": "noteOff",
        "noteNumber": 60,
        "velocity": 0
      },
      {
        "deltaTime": 0,
        "channel": 0,
        "type": "channel",
        "subtype": "noteOff",
        "noteNumber": 67,
        "velocity": 0
      },
      {
        "deltaTime": 0,
        "channel": 0,
        "type": "channel",
        "noteNumber": 55,
        "velocity": 64,
        "subtype": "noteOn"
      },
      {
        "deltaTime": 0,
        "channel": 0,
        "type": "channel",
        "noteNumber": 62,
        "velocity": 64,
        "subtype": "noteOn"
      },
      {
        "deltaTime": 1024,
        "channel": 0,
        "type": "channel",
        "subtype": "noteOff",
        "noteNumber": 55,
        "velocity": 0
      },
      {
        "deltaTime": 0,
        "channel": 0,
        "type": "channel",
        "subtype": "noteOff",
        "noteNumber": 62,
        "velocity": 0
      },
      {
        "deltaTime": 0,
        "channel": 0,
        "type": "channel",
        "noteNumber": 55,
        "velocity": 64,
        "subtype": "noteOn"
      },
      {
        "deltaTime": 0,
        "channel": 0,
        "type": "channel",
        "noteNumber": 62,
        "velocity": 64,
        "subtype": "noteOn"
      },
      {
        "deltaTime": 1024,
        "channel": 0,
        "type": "channel",
        "subtype": "noteOff",
        "noteNumber": 55,
        "velocity": 0
      },
      {
        "deltaTime": 0,
        "channel": 0,
        "type": "channel",
        "subtype": "noteOff",
        "noteNumber": 62,
        "velocity": 0
      },
      {
        "deltaTime": 0,
        "channel": 0,
        "type": "channel",
        "noteNumber": 62,
        "velocity": 64,
        "subtype": "noteOn"
      },
      {
        "deltaTime": 0,
        "channel": 0,
        "type": "channel",
        "noteNumber": 69,
        "velocity": 64,
        "subtype": "noteOn"
      },
      {
        "deltaTime": 1024,
        "channel": 0,
        "type": "channel",
        "subtype": "noteOff",
        "noteNumber": 62,
        "velocity": 0
      },
      {
        "deltaTime": 0,
        "channel": 0,
        "type": "channel",
        "subtype": "noteOff",
        "noteNumber": 69,
        "velocity": 0
      },
      {
        "deltaTime": 0,
        "channel": 0,
        "type": "channel",
        "noteNumber": 62,
        "velocity": 64,
        "subtype": "noteOn"
      },
      {
        "deltaTime": 0,
        "channel": 0,
        "type": "channel",
        "noteNumber": 69,
        "velocity": 64,
        "subtype": "noteOn"
      },
      {
        "deltaTime": 1024,
        "channel": 0,
        "type": "channel",
        "subtype": "noteOff",
        "noteNumber": 62,
        "velocity": 0
      },
      {
        "deltaTime": 0,
        "channel": 0,
        "type": "channel",
        "subtype": "noteOff",
        "noteNumber": 69,
        "velocity": 0
      },
      {
        "deltaTime": 0,
        "channel": 0,
        "type": "channel",
        "noteNumber": 64,
        "velocity": 64,
        "subtype": "noteOn"
      },
      {
        "deltaTime": 0,
        "channel": 0,
        "type": "channel",
        "noteNumber": 71,
        "velocity": 64,
        "subtype": "noteOn"
      },
      {
        "deltaTime": 1024,
        "channel": 0,
        "type": "channel",
        "subtype": "noteOff",
        "noteNumber": 64,
        "velocity": 0
      },
      {
        "deltaTime": 0,
        "channel": 0,
        "type": "channel",
        "subtype": "noteOff",
        "noteNumber": 71,
        "velocity": 0
      },
      {
        "deltaTime": 0,
        "channel": 0,
        "type": "channel",
        "noteNumber": 64,
        "velocity": 64,
        "subtype": "noteOn"
      },
      {
        "deltaTime": 0,
        "channel": 0,
        "type": "channel",
        "noteNumber": 71,
        "velocity": 64,
        "subtype": "noteOn"
      },
      {
        "deltaTime": 1024,
        "channel": 0,
        "type": "channel",
        "subtype": "noteOff",
        "noteNumber": 64,
        "velocity": 0
      },
      {
        "deltaTime": 0,
        "channel": 0,
        "type": "channel",
        "subtype": "noteOff",
        "noteNumber": 71,
        "velocity": 0
      },
      {
        "deltaTime": 0,
        "channel": 0,
        "type": "channel",
        "noteNumber": 60,
        "velocity": 64,
        "subtype": "noteOn"
      },
      {
        "deltaTime": 0,
        "channel": 0,
        "type": "channel",
        "noteNumber": 67,
        "velocity": 64,
        "subtype": "noteOn"
      },
      {
        "deltaTime": 1024,
        "channel": 0,
        "type": "channel",
        "subtype": "noteOff",
        "noteNumber": 60,
        "velocity": 0
      },
      {
        "deltaTime": 0,
        "channel": 0,
        "type": "channel",
        "subtype": "noteOff",
        "noteNumber": 67,
        "velocity": 0
      },
      {
        "deltaTime": 0,
        "channel": 0,
        "type": "channel",
        "noteNumber": 60,
        "velocity": 64,
        "subtype": "noteOn"
      },
      {
        "deltaTime": 0,
        "channel": 0,
        "type": "channel",
        "noteNumber": 67,
        "velocity": 64,
        "subtype": "noteOn"
      },
      {
        "deltaTime": 1024,
        "channel": 0,
        "type": "channel",
        "subtype": "noteOff",
        "noteNumber": 60,
        "velocity": 0
      },
      {
        "deltaTime": 0,
        "channel": 0,
        "type": "channel",
        "subtype": "noteOff",
        "noteNumber": 67,
        "velocity": 0
      },
      {
        "deltaTime": 0,
        "channel": 0,
        "type": "channel",
        "noteNumber": 55,
        "velocity": 64,
        "subtype": "noteOn"
      },
      {
        "deltaTime": 0,
        "channel": 0,
        "type": "channel",
        "noteNumber": 62,
        "velocity": 64,
        "subtype": "noteOn"
      },
      {
        "deltaTime": 1024,
        "channel": 0,
        "type": "channel",
        "subtype": "noteOff",
        "noteNumber": 55,
        "velocity": 0
      },
      {
        "deltaTime": 0,
        "channel": 0,
        "type": "channel",
        "subtype": "noteOff",
        "noteNumber": 62,
        "velocity": 0
      },
      {
        "deltaTime": 0,
        "channel": 0,
        "type": "channel",
        "noteNumber": 55,
        "velocity": 64,
        "subtype": "noteOn"
      },
      {
        "deltaTime": 0,
        "channel": 0,
        "type": "channel",
        "noteNumber": 62,
        "velocity": 64,
        "subtype": "noteOn"
      },
      {
        "deltaTime": 1024,
        "channel": 0,
        "type": "channel",
        "subtype": "noteOff",
        "noteNumber": 55,
        "velocity": 0
      },
      {
        "deltaTime": 0,
        "channel": 0,
        "type": "channel",
        "subtype": "noteOff",
        "noteNumber": 62,
        "velocity": 0
      },
      {
        "deltaTime": 0,
        "channel": 0,
        "type": "channel",
        "noteNumber": 62,
        "velocity": 64,
        "subtype": "noteOn"
      },
      {
        "deltaTime": 0,
        "channel": 0,
        "type": "channel",
        "noteNumber": 69,
        "velocity": 64,
        "subtype": "noteOn"
      },
      {
        "deltaTime": 1024,
        "channel": 0,
        "type": "channel",
        "subtype": "noteOff",
        "noteNumber": 62,
        "velocity": 0
      },
      {
        "deltaTime": 0,
        "channel": 0,
        "type": "channel",
        "subtype": "noteOff",
        "noteNumber": 69,
        "velocity": 0
      },
      {
        "deltaTime": 512,
        "channel": 0,
        "type": "channel",
        "noteNumber": 69,
        "velocity": 64,
        "subtype": "noteOn"
      },
      {
        "deltaTime": 512,
        "channel": 0,
        "type": "channel",
        "subtype": "noteOff",
        "noteNumber": 69,
        "velocity": 0
      },
      {
        "deltaTime": 2048,
        "channel": 0,
        "type": "channel",
        "noteNumber": 60,
        "velocity": 64,
        "subtype": "noteOn"
      },
      {
        "deltaTime": 0,
        "channel": 0,
        "type": "channel",
        "noteNumber": 67,
        "velocity": 64,
        "subtype": "noteOn"
      },
      {
        "deltaTime": 2048,
        "channel": 0,
        "type": "channel",
        "subtype": "noteOff",
        "noteNumber": 60,
        "velocity": 0
      },
      {
        "deltaTime": 0,
        "channel": 0,
        "type": "channel",
        "subtype": "noteOff",
        "noteNumber": 67,
        "velocity": 0
      },
      {
        "deltaTime": 0,
        "channel": 0,
        "type": "channel",
        "noteNumber": 55,
        "velocity": 64,
        "subtype": "noteOn"
      },
      {
        "deltaTime": 0,
        "channel": 0,
        "type": "channel",
        "noteNumber": 62,
        "velocity": 64,
        "subtype": "noteOn"
      },
      {
        "deltaTime": 2048,
        "channel": 0,
        "type": "channel",
        "subtype": "noteOff",
        "noteNumber": 55,
        "velocity": 0
      },
      {
        "deltaTime": 0,
        "channel": 0,
        "type": "channel",
        "subtype": "noteOff",
        "noteNumber": 62,
        "velocity": 0
      },
      {
        "deltaTime": 0,
        "channel": 0,
        "type": "channel",
        "noteNumber": 62,
        "velocity": 64,
        "subtype": "noteOn"
      },
      {
        "deltaTime": 0,
        "channel": 0,
        "type": "channel",
        "noteNumber": 69,
        "velocity": 64,
        "subtype": "noteOn"
      },
      {
        "deltaTime": 2048,
        "channel": 0,
        "type": "channel",
        "subtype": "noteOff",
        "noteNumber": 62,
        "velocity": 0
      },
      {
        "deltaTime": 0,
        "channel": 0,
        "type": "channel",
        "subtype": "noteOff",
        "noteNumber": 69,
        "velocity": 0
      },
      {
        "deltaTime": 0,
        "channel": 0,
        "type": "channel",
        "noteNumber": 64,
        "velocity": 64,
        "subtype": "noteOn"
      },
      {
        "deltaTime": 0,
        "channel": 0,
        "type": "channel",
        "noteNumber": 71,
        "velocity": 64,
        "subtype": "noteOn"
      },
      {
        "deltaTime": 2048,
        "channel": 0,
        "type": "channel",
        "subtype": "noteOff",
        "noteNumber": 64,
        "velocity": 0
      },
      {
        "deltaTime": 0,
        "channel": 0,
        "type": "channel",
        "subtype": "noteOff",
        "noteNumber": 71,
        "velocity": 0
      },
      {
        "deltaTime": 0,
        "channel": 0,
        "type": "channel",
        "noteNumber": 60,
        "velocity": 64,
        "subtype": "noteOn"
      },
      {
        "deltaTime": 0,
        "channel": 0,
        "type": "channel",
        "noteNumber": 67,
        "velocity": 64,
        "subtype": "noteOn"
      },
      {
        "deltaTime": 2048,
        "channel": 0,
        "type": "channel",
        "subtype": "noteOff",
        "noteNumber": 60,
        "velocity": 0
      },
      {
        "deltaTime": 0,
        "channel": 0,
        "type": "channel",
        "subtype": "noteOff",
        "noteNumber": 67,
        "velocity": 0
      },
      {
        "deltaTime": 0,
        "channel": 0,
        "type": "channel",
        "noteNumber": 55,
        "velocity": 64,
        "subtype": "noteOn"
      },
      {
        "deltaTime": 0,
        "channel": 0,
        "type": "channel",
        "noteNumber": 62,
        "velocity": 64,
        "subtype": "noteOn"
      },
      {
        "deltaTime": 2048,
        "channel": 0,
        "type": "channel",
        "subtype": "noteOff",
        "noteNumber": 55,
        "velocity": 0
      },
      {
        "deltaTime": 0,
        "channel": 0,
        "type": "channel",
        "subtype": "noteOff",
        "noteNumber": 62,
        "velocity": 0
      },
      {
        "deltaTime": 0,
        "channel": 0,
        "type": "channel",
        "noteNumber": 62,
        "velocity": 64,
        "subtype": "noteOn"
      },
      {
        "deltaTime": 0,
        "channel": 0,
        "type": "channel",
        "noteNumber": 69,
        "velocity": 64,
        "subtype": "noteOn"
      },
      {
        "deltaTime": 1024,
        "channel": 0,
        "type": "channel",
        "subtype": "noteOff",
        "noteNumber": 62,
        "velocity": 0
      },
      {
        "deltaTime": 0,
        "channel": 0,
        "type": "channel",
        "subtype": "noteOff",
        "noteNumber": 69,
        "velocity": 0
      },
      {
        "deltaTime": 512,
        "channel": 0,
        "type": "channel",
        "noteNumber": 69,
        "velocity": 64,
        "subtype": "noteOn"
      },
      {
        "deltaTime": 512,
        "channel": 0,
        "type": "channel",
        "subtype": "noteOff",
        "noteNumber": 69,
        "velocity": 0
      },
      {
        "deltaTime": 2048,
        "channel": 0,
        "type": "channel",
        "noteNumber": 40,
        "velocity": 64,
        "subtype": "noteOn"
      },
      {
        "deltaTime": 512,
        "channel": 0,
        "type": "channel",
        "subtype": "noteOff",
        "noteNumber": 40,
        "velocity": 0
      },
      {
        "deltaTime": 0,
        "channel": 0,
        "type": "channel",
        "noteNumber": 47,
        "velocity": 64,
        "subtype": "noteOn"
      },
      {
        "deltaTime": 512,
        "channel": 0,
        "type": "channel",
        "subtype": "noteOff",
        "noteNumber": 47,
        "velocity": 0
      },
      {
        "deltaTime": 0,
        "channel": 0,
        "type": "channel",
        "noteNumber": 52,
        "velocity": 64,
        "subtype": "noteOn"
      },
      {
        "deltaTime": 3072,
        "channel": 0,
        "type": "channel",
        "subtype": "noteOff",
        "noteNumber": 52,
        "velocity": 0
      },
      {
        "deltaTime": 1,
        "type": "meta",
        "subtype": "endOfTrack"
      }
    ],
    [
      {
        "deltaTime": 0,
        "type": "meta",
        "subtype": "unknown",
        "data": "QuickTime 1"
      },
      {
        "deltaTime": 0,
        "type": "meta",
        "subtype": "trackName",
        "text": "Instrument 15"
      },
      {
        "deltaTime": 0,
        "channel": 1,
        "type": "channel",
        "subtype": "programChange",
        "programNumber": 0
      },
      {
        "deltaTime": 0,
        "channel": 1,
        "type": "channel",
        "subtype": "controller",
        "controllerType": 7,
        "value": 101
      },
      {
        "deltaTime": 0,
        "channel": 1,
        "type": "channel",
        "subtype": "controller",
        "controllerType": 10,
        "value": 64
      },
      {
        "deltaTime": 3072,
        "channel": 1,
        "type": "channel",
        "noteNumber": 81,
        "velocity": 64,
        "subtype": "noteOn"
      },
      {
        "deltaTime": 256,
        "channel": 1,
        "type": "channel",
        "subtype": "noteOff",
        "noteNumber": 81,
        "velocity": 0
      },
      {
        "deltaTime": 0,
        "channel": 1,
        "type": "channel",
        "noteNumber": 83,
        "velocity": 64,
        "subtype": "noteOn"
      },
      {
        "deltaTime": 256,
        "channel": 1,
        "type": "channel",
        "subtype": "noteOff",
        "noteNumber": 83,
        "velocity": 0
      },
      {
        "deltaTime": 0,
        "channel": 1,
        "type": "channel",
        "noteNumber": 81,
        "velocity": 64,
        "subtype": "noteOn"
      },
      {
        "deltaTime": 256,
        "channel": 1,
        "type": "channel",
        "subtype": "noteOff",
        "noteNumber": 81,
        "velocity": 0
      },
      {
        "deltaTime": 0,
        "channel": 1,
        "type": "channel",
        "noteNumber": 79,
        "velocity": 64,
        "subtype": "noteOn"
      },
      {
        "deltaTime": 256,
        "channel": 1,
        "type": "channel",
        "subtype": "noteOff",
        "noteNumber": 79,
        "velocity": 0
      },
      {
        "deltaTime": 0,
        "channel": 1,
        "type": "channel",
        "noteNumber": 74,
        "velocity": 64,
        "subtype": "noteOn"
      },
      {
        "deltaTime": 256,
        "channel": 1,
        "type": "channel",
        "subtype": "noteOff",
        "noteNumber": 74,
        "velocity": 0
      },
      {
        "deltaTime": 0,
        "channel": 1,
        "type": "channel",
        "noteNumber": 76,
        "velocity": 64,
        "subtype": "noteOn"
      },
      {
        "deltaTime": 256,
        "channel": 1,
        "type": "channel",
        "subtype": "noteOff",
        "noteNumber": 76,
        "velocity": 0
      },
      {
        "deltaTime": 0,
        "channel": 1,
        "type": "channel",
        "noteNumber": 79,
        "velocity": 64,
        "subtype": "noteOn"
      },
      {
        "deltaTime": 512,
        "channel": 1,
        "type": "channel",
        "subtype": "noteOff",
        "noteNumber": 79,
        "velocity": 0
      },
      {
        "deltaTime": 256,
        "channel": 1,
        "type": "channel",
        "noteNumber": 76,
        "velocity": 64,
        "subtype": "noteOn"
      },
      {
        "deltaTime": 512,
        "channel": 1,
        "type": "channel",
        "subtype": "noteOff",
        "noteNumber": 76,
        "velocity": 0
      },
      {
        "deltaTime": 0,
        "channel": 1,
        "type": "channel",
        "noteNumber": 83,
        "velocity": 64,
        "subtype": "noteOn"
      },
      {
        "deltaTime": 256,
        "channel": 1,
        "type": "channel",
        "subtype": "noteOff",
        "noteNumber": 83,
        "velocity": 0
      },
      {
        "deltaTime": 1024,
        "channel": 1,
        "type": "channel",
        "noteNumber": 81,
        "velocity": 64,
        "subtype": "noteOn"
      },
      {
        "deltaTime": 256,
        "channel": 1,
        "type": "channel",
        "subtype": "noteOff",
        "noteNumber": 81,
        "velocity": 0
      },
      {
        "deltaTime": 0,
        "channel": 1,
        "type": "channel",
        "noteNumber": 83,
        "velocity": 64,
        "subtype": "noteOn"
      },
      {
        "deltaTime": 256,
        "channel": 1,
        "type": "channel",
        "subtype": "noteOff",
        "noteNumber": 83,
        "velocity": 0
      },
      {
        "deltaTime": 0,
        "channel": 1,
        "type": "channel",
        "noteNumber": 81,
        "velocity": 64,
        "subtype": "noteOn"
      },
      {
        "deltaTime": 256,
        "channel": 1,
        "type": "channel",
        "subtype": "noteOff",
        "noteNumber": 81,
        "velocity": 0
      },
      {
        "deltaTime": 0,
        "channel": 1,
        "type": "channel",
        "noteNumber": 79,
        "velocity": 64,
        "subtype": "noteOn"
      },
      {
        "deltaTime": 256,
        "channel": 1,
        "type": "channel",
        "subtype": "noteOff",
        "noteNumber": 79,
        "velocity": 0
      },
      {
        "deltaTime": 0,
        "channel": 1,
        "type": "channel",
        "noteNumber": 74,
        "velocity": 64,
        "subtype": "noteOn"
      },
      {
        "deltaTime": 256,
        "channel": 1,
        "type": "channel",
        "subtype": "noteOff",
        "noteNumber": 74,
        "velocity": 0
      },
      {
        "deltaTime": 0,
        "channel": 1,
        "type": "channel",
        "noteNumber": 76,
        "velocity": 64,
        "subtype": "noteOn"
      },
      {
        "deltaTime": 256,
        "channel": 1,
        "type": "channel",
        "subtype": "noteOff",
        "noteNumber": 76,
        "velocity": 0
      },
      {
        "deltaTime": 0,
        "channel": 1,
        "type": "channel",
        "noteNumber": 79,
        "velocity": 64,
        "subtype": "noteOn"
      },
      {
        "deltaTime": 512,
        "channel": 1,
        "type": "channel",
        "subtype": "noteOff",
        "noteNumber": 79,
        "velocity": 0
      },
      {
        "deltaTime": 256,
        "channel": 1,
        "type": "channel",
        "noteNumber": 76,
        "velocity": 64,
        "subtype": "noteOn"
      },
      {
        "deltaTime": 256,
        "channel": 1,
        "type": "channel",
        "subtype": "noteOff",
        "noteNumber": 76,
        "velocity": 0
      },
      {
        "deltaTime": 0,
        "channel": 1,
        "type": "channel",
        "noteNumber": 83,
        "velocity": 64,
        "subtype": "noteOn"
      },
      {
        "deltaTime": 512,
        "channel": 1,
        "type": "channel",
        "subtype": "noteOff",
        "noteNumber": 83,
        "velocity": 0
      },
      {
        "deltaTime": 0,
        "channel": 1,
        "type": "channel",
        "noteNumber": 81,
        "velocity": 64,
        "subtype": "noteOn"
      },
      {
        "deltaTime": 1024,
        "channel": 1,
        "type": "channel",
        "subtype": "noteOff",
        "noteNumber": 81,
        "velocity": 0
      },
      {
        "deltaTime": 0,
        "channel": 1,
        "type": "channel",
        "noteNumber": 81,
        "velocity": 64,
        "subtype": "noteOn"
      },
      {
        "deltaTime": 256,
        "channel": 1,
        "type": "channel",
        "subtype": "noteOff",
        "noteNumber": 81,
        "velocity": 0
      },
      {
        "deltaTime": 0,
        "channel": 1,
        "type": "channel",
        "noteNumber": 83,
        "velocity": 64,
        "subtype": "noteOn"
      },
      {
        "deltaTime": 256,
        "channel": 1,
        "type": "channel",
        "subtype": "noteOff",
        "noteNumber": 83,
        "velocity": 0
      },
      {
        "deltaTime": 0,
        "channel": 1,
        "type": "channel",
        "noteNumber": 81,
        "velocity": 64,
        "subtype": "noteOn"
      },
      {
        "deltaTime": 256,
        "channel": 1,
        "type": "channel",
        "subtype": "noteOff",
        "noteNumber": 81,
        "velocity": 0
      },
      {
        "deltaTime": 0,
        "channel": 1,
        "type": "channel",
        "noteNumber": 79,
        "velocity": 64,
        "subtype": "noteOn"
      },
      {
        "deltaTime": 256,
        "channel": 1,
        "type": "channel",
        "subtype": "noteOff",
        "noteNumber": 79,
        "velocity": 0
      },
      {
        "deltaTime": 0,
        "channel": 1,
        "type": "channel",
        "noteNumber": 74,
        "velocity": 64,
        "subtype": "noteOn"
      },
      {
        "deltaTime": 256,
        "channel": 1,
        "type": "channel",
        "subtype": "noteOff",
        "noteNumber": 74,
        "velocity": 0
      },
      {
        "deltaTime": 0,
        "channel": 1,
        "type": "channel",
        "noteNumber": 76,
        "velocity": 64,
        "subtype": "noteOn"
      },
      {
        "deltaTime": 256,
        "channel": 1,
        "type": "channel",
        "subtype": "noteOff",
        "noteNumber": 76,
        "velocity": 0
      },
      {
        "deltaTime": 0,
        "channel": 1,
        "type": "channel",
        "noteNumber": 79,
        "velocity": 64,
        "subtype": "noteOn"
      },
      {
        "deltaTime": 512,
        "channel": 1,
        "type": "channel",
        "subtype": "noteOff",
        "noteNumber": 79,
        "velocity": 0
      },
      {
        "deltaTime": 256,
        "channel": 1,
        "type": "channel",
        "noteNumber": 76,
        "velocity": 64,
        "subtype": "noteOn"
      },
      {
        "deltaTime": 512,
        "channel": 1,
        "type": "channel",
        "subtype": "noteOff",
        "noteNumber": 76,
        "velocity": 0
      },
      {
        "deltaTime": 0,
        "channel": 1,
        "type": "channel",
        "noteNumber": 79,
        "velocity": 64,
        "subtype": "noteOn"
      },
      {
        "deltaTime": 256,
        "channel": 1,
        "type": "channel",
        "subtype": "noteOff",
        "noteNumber": 79,
        "velocity": 0
      },
      {
        "deltaTime": 0,
        "channel": 1,
        "type": "channel",
        "noteNumber": 86,
        "velocity": 64,
        "subtype": "noteOn"
      },
      {
        "deltaTime": 256,
        "channel": 1,
        "type": "channel",
        "subtype": "noteOff",
        "noteNumber": 86,
        "velocity": 0
      },
      {
        "deltaTime": 0,
        "channel": 1,
        "type": "channel",
        "noteNumber": 83,
        "velocity": 64,
        "subtype": "noteOn"
      },
      {
        "deltaTime": 768,
        "channel": 1,
        "type": "channel",
        "subtype": "noteOff",
        "noteNumber": 83,
        "velocity": 0
      },
      {
        "deltaTime": 0,
        "channel": 1,
        "type": "channel",
        "noteNumber": 79,
        "velocity": 64,
        "subtype": "noteOn"
      },
      {
        "deltaTime": 256,
        "channel": 1,
        "type": "channel",
        "subtype": "noteOff",
        "noteNumber": 79,
        "velocity": 0
      },
      {
        "deltaTime": 0,
        "channel": 1,
        "type": "channel",
        "noteNumber": 81,
        "velocity": 64,
        "subtype": "noteOn"
      },
      {
        "deltaTime": 512,
        "channel": 1,
        "type": "channel",
        "subtype": "noteOff",
        "noteNumber": 81,
        "velocity": 0
      },
      {
        "deltaTime": 0,
        "channel": 1,
        "type": "channel",
        "noteNumber": 83,
        "velocity": 64,
        "subtype": "noteOn"
      },
      {
        "deltaTime": 256,
        "channel": 1,
        "type": "channel",
        "subtype": "noteOff",
        "noteNumber": 83,
        "velocity": 0
      },
      {
        "deltaTime": 3072,
        "channel": 1,
        "type": "channel",
        "noteNumber": 81,
        "velocity": 64,
        "subtype": "noteOn"
      },
      {
        "deltaTime": 256,
        "channel": 1,
        "type": "channel",
        "subtype": "noteOff",
        "noteNumber": 81,
        "velocity": 0
      },
      {
        "deltaTime": 0,
        "channel": 1,
        "type": "channel",
        "noteNumber": 83,
        "velocity": 64,
        "subtype": "noteOn"
      },
      {
        "deltaTime": 256,
        "channel": 1,
        "type": "channel",
        "subtype": "noteOff",
        "noteNumber": 83,
        "velocity": 0
      },
      {
        "deltaTime": 0,
        "channel": 1,
        "type": "channel",
        "noteNumber": 81,
        "velocity": 64,
        "subtype": "noteOn"
      },
      {
        "deltaTime": 256,
        "channel": 1,
        "type": "channel",
        "subtype": "noteOff",
        "noteNumber": 81,
        "velocity": 0
      },
      {
        "deltaTime": 0,
        "channel": 1,
        "type": "channel",
        "noteNumber": 79,
        "velocity": 64,
        "subtype": "noteOn"
      },
      {
        "deltaTime": 256,
        "channel": 1,
        "type": "channel",
        "subtype": "noteOff",
        "noteNumber": 79,
        "velocity": 0
      },
      {
        "deltaTime": 0,
        "channel": 1,
        "type": "channel",
        "noteNumber": 74,
        "velocity": 64,
        "subtype": "noteOn"
      },
      {
        "deltaTime": 256,
        "channel": 1,
        "type": "channel",
        "subtype": "noteOff",
        "noteNumber": 74,
        "velocity": 0
      },
      {
        "deltaTime": 0,
        "channel": 1,
        "type": "channel",
        "noteNumber": 76,
        "velocity": 64,
        "subtype": "noteOn"
      },
      {
        "deltaTime": 256,
        "channel": 1,
        "type": "channel",
        "subtype": "noteOff",
        "noteNumber": 76,
        "velocity": 0
      },
      {
        "deltaTime": 0,
        "channel": 1,
        "type": "channel",
        "noteNumber": 79,
        "velocity": 64,
        "subtype": "noteOn"
      },
      {
        "deltaTime": 512,
        "channel": 1,
        "type": "channel",
        "subtype": "noteOff",
        "noteNumber": 79,
        "velocity": 0
      },
      {
        "deltaTime": 256,
        "channel": 1,
        "type": "channel",
        "noteNumber": 76,
        "velocity": 64,
        "subtype": "noteOn"
      },
      {
        "deltaTime": 512,
        "channel": 1,
        "type": "channel",
        "subtype": "noteOff",
        "noteNumber": 76,
        "velocity": 0
      },
      {
        "deltaTime": 0,
        "channel": 1,
        "type": "channel",
        "noteNumber": 83,
        "velocity": 64,
        "subtype": "noteOn"
      },
      {
        "deltaTime": 256,
        "channel": 1,
        "type": "channel",
        "subtype": "noteOff",
        "noteNumber": 83,
        "velocity": 0
      },
      {
        "deltaTime": 1024,
        "channel": 1,
        "type": "channel",
        "noteNumber": 81,
        "velocity": 64,
        "subtype": "noteOn"
      },
      {
        "deltaTime": 256,
        "channel": 1,
        "type": "channel",
        "subtype": "noteOff",
        "noteNumber": 81,
        "velocity": 0
      },
      {
        "deltaTime": 0,
        "channel": 1,
        "type": "channel",
        "noteNumber": 83,
        "velocity": 64,
        "subtype": "noteOn"
      },
      {
        "deltaTime": 256,
        "channel": 1,
        "type": "channel",
        "subtype": "noteOff",
        "noteNumber": 83,
        "velocity": 0
      },
      {
        "deltaTime": 0,
        "channel": 1,
        "type": "channel",
        "noteNumber": 81,
        "velocity": 64,
        "subtype": "noteOn"
      },
      {
        "deltaTime": 256,
        "channel": 1,
        "type": "channel",
        "subtype": "noteOff",
        "noteNumber": 81,
        "velocity": 0
      },
      {
        "deltaTime": 0,
        "channel": 1,
        "type": "channel",
        "noteNumber": 79,
        "velocity": 64,
        "subtype": "noteOn"
      },
      {
        "deltaTime": 256,
        "channel": 1,
        "type": "channel",
        "subtype": "noteOff",
        "noteNumber": 79,
        "velocity": 0
      },
      {
        "deltaTime": 0,
        "channel": 1,
        "type": "channel",
        "noteNumber": 74,
        "velocity": 64,
        "subtype": "noteOn"
      },
      {
        "deltaTime": 256,
        "channel": 1,
        "type": "channel",
        "subtype": "noteOff",
        "noteNumber": 74,
        "velocity": 0
      },
      {
        "deltaTime": 0,
        "channel": 1,
        "type": "channel",
        "noteNumber": 76,
        "velocity": 64,
        "subtype": "noteOn"
      },
      {
        "deltaTime": 256,
        "channel": 1,
        "type": "channel",
        "subtype": "noteOff",
        "noteNumber": 76,
        "velocity": 0
      },
      {
        "deltaTime": 0,
        "channel": 1,
        "type": "channel",
        "noteNumber": 79,
        "velocity": 64,
        "subtype": "noteOn"
      },
      {
        "deltaTime": 512,
        "channel": 1,
        "type": "channel",
        "subtype": "noteOff",
        "noteNumber": 79,
        "velocity": 0
      },
      {
        "deltaTime": 256,
        "channel": 1,
        "type": "channel",
        "noteNumber": 76,
        "velocity": 64,
        "subtype": "noteOn"
      },
      {
        "deltaTime": 256,
        "channel": 1,
        "type": "channel",
        "subtype": "noteOff",
        "noteNumber": 76,
        "velocity": 0
      },
      {
        "deltaTime": 0,
        "channel": 1,
        "type": "channel",
        "noteNumber": 83,
        "velocity": 64,
        "subtype": "noteOn"
      },
      {
        "deltaTime": 512,
        "channel": 1,
        "type": "channel",
        "subtype": "noteOff",
        "noteNumber": 83,
        "velocity": 0
      },
      {
        "deltaTime": 0,
        "channel": 1,
        "type": "channel",
        "noteNumber": 81,
        "velocity": 64,
        "subtype": "noteOn"
      },
      {
        "deltaTime": 1024,
        "channel": 1,
        "type": "channel",
        "subtype": "noteOff",
        "noteNumber": 81,
        "velocity": 0
      },
      {
        "deltaTime": 0,
        "channel": 1,
        "type": "channel",
        "noteNumber": 81,
        "velocity": 64,
        "subtype": "noteOn"
      },
      {
        "deltaTime": 256,
        "channel": 1,
        "type": "channel",
        "subtype": "noteOff",
        "noteNumber": 81,
        "velocity": 0
      },
      {
        "deltaTime": 0,
        "channel": 1,
        "type": "channel",
        "noteNumber": 83,
        "velocity": 64,
        "subtype": "noteOn"
      },
      {
        "deltaTime": 256,
        "channel": 1,
        "type": "channel",
        "subtype": "noteOff",
        "noteNumber": 83,
        "velocity": 0
      },
      {
        "deltaTime": 0,
        "channel": 1,
        "type": "channel",
        "noteNumber": 81,
        "velocity": 64,
        "subtype": "noteOn"
      },
      {
        "deltaTime": 256,
        "channel": 1,
        "type": "channel",
        "subtype": "noteOff",
        "noteNumber": 81,
        "velocity": 0
      },
      {
        "deltaTime": 0,
        "channel": 1,
        "type": "channel",
        "noteNumber": 79,
        "velocity": 64,
        "subtype": "noteOn"
      },
      {
        "deltaTime": 256,
        "channel": 1,
        "type": "channel",
        "subtype": "noteOff",
        "noteNumber": 79,
        "velocity": 0
      },
      {
        "deltaTime": 0,
        "channel": 1,
        "type": "channel",
        "noteNumber": 74,
        "velocity": 64,
        "subtype": "noteOn"
      },
      {
        "deltaTime": 256,
        "channel": 1,
        "type": "channel",
        "subtype": "noteOff",
        "noteNumber": 74,
        "velocity": 0
      },
      {
        "deltaTime": 0,
        "channel": 1,
        "type": "channel",
        "noteNumber": 76,
        "velocity": 64,
        "subtype": "noteOn"
      },
      {
        "deltaTime": 256,
        "channel": 1,
        "type": "channel",
        "subtype": "noteOff",
        "noteNumber": 76,
        "velocity": 0
      },
      {
        "deltaTime": 0,
        "channel": 1,
        "type": "channel",
        "noteNumber": 79,
        "velocity": 64,
        "subtype": "noteOn"
      },
      {
        "deltaTime": 512,
        "channel": 1,
        "type": "channel",
        "subtype": "noteOff",
        "noteNumber": 79,
        "velocity": 0
      },
      {
        "deltaTime": 256,
        "channel": 1,
        "type": "channel",
        "noteNumber": 76,
        "velocity": 64,
        "subtype": "noteOn"
      },
      {
        "deltaTime": 512,
        "channel": 1,
        "type": "channel",
        "subtype": "noteOff",
        "noteNumber": 76,
        "velocity": 0
      },
      {
        "deltaTime": 0,
        "channel": 1,
        "type": "channel",
        "noteNumber": 79,
        "velocity": 64,
        "subtype": "noteOn"
      },
      {
        "deltaTime": 256,
        "channel": 1,
        "type": "channel",
        "subtype": "noteOff",
        "noteNumber": 79,
        "velocity": 0
      },
      {
        "deltaTime": 0,
        "channel": 1,
        "type": "channel",
        "noteNumber": 86,
        "velocity": 64,
        "subtype": "noteOn"
      },
      {
        "deltaTime": 256,
        "channel": 1,
        "type": "channel",
        "subtype": "noteOff",
        "noteNumber": 86,
        "velocity": 0
      },
      {
        "deltaTime": 0,
        "channel": 1,
        "type": "channel",
        "noteNumber": 83,
        "velocity": 64,
        "subtype": "noteOn"
      },
      {
        "deltaTime": 768,
        "channel": 1,
        "type": "channel",
        "subtype": "noteOff",
        "noteNumber": 83,
        "velocity": 0
      },
      {
        "deltaTime": 0,
        "channel": 1,
        "type": "channel",
        "noteNumber": 79,
        "velocity": 64,
        "subtype": "noteOn"
      },
      {
        "deltaTime": 256,
        "channel": 1,
        "type": "channel",
        "subtype": "noteOff",
        "noteNumber": 79,
        "velocity": 0
      },
      {
        "deltaTime": 0,
        "channel": 1,
        "type": "channel",
        "noteNumber": 81,
        "velocity": 64,
        "subtype": "noteOn"
      },
      {
        "deltaTime": 512,
        "channel": 1,
        "type": "channel",
        "subtype": "noteOff",
        "noteNumber": 81,
        "velocity": 0
      },
      {
        "deltaTime": 0,
        "channel": 1,
        "type": "channel",
        "noteNumber": 83,
        "velocity": 64,
        "subtype": "noteOn"
      },
      {
        "deltaTime": 256,
        "channel": 1,
        "type": "channel",
        "subtype": "noteOff",
        "noteNumber": 83,
        "velocity": 0
      },
      {
        "deltaTime": 2560,
        "channel": 1,
        "type": "channel",
        "noteNumber": 71,
        "velocity": 64,
        "subtype": "noteOn"
      },
      {
        "deltaTime": 256,
        "channel": 1,
        "type": "channel",
        "subtype": "noteOff",
        "noteNumber": 71,
        "velocity": 0
      },
      {
        "deltaTime": 0,
        "channel": 1,
        "type": "channel",
        "noteNumber": 71,
        "velocity": 64,
        "subtype": "noteOn"
      },
      {
        "deltaTime": 256,
        "channel": 1,
        "type": "channel",
        "subtype": "noteOff",
        "noteNumber": 71,
        "velocity": 0
      },
      {
        "deltaTime": 0,
        "channel": 1,
        "type": "channel",
        "noteNumber": 69,
        "velocity": 64,
        "subtype": "noteOn"
      },
      {
        "deltaTime": 256,
        "channel": 1,
        "type": "channel",
        "subtype": "noteOff",
        "noteNumber": 69,
        "velocity": 0
      },
      {
        "deltaTime": 0,
        "channel": 1,
        "type": "channel",
        "noteNumber": 71,
        "velocity": 64,
        "subtype": "noteOn"
      },
      {
        "deltaTime": 256,
        "channel": 1,
        "type": "channel",
        "subtype": "noteOff",
        "noteNumber": 71,
        "velocity": 0
      },
      {
        "deltaTime": 0,
        "channel": 1,
        "type": "channel",
        "noteNumber": 69,
        "velocity": 64,
        "subtype": "noteOn"
      },
      {
        "deltaTime": 256,
        "channel": 1,
        "type": "channel",
        "subtype": "noteOff",
        "noteNumber": 69,
        "velocity": 0
      },
      {
        "deltaTime": 0,
        "channel": 1,
        "type": "channel",
        "noteNumber": 67,
        "velocity": 64,
        "subtype": "noteOn"
      },
      {
        "deltaTime": 256,
        "channel": 1,
        "type": "channel",
        "subtype": "noteOff",
        "noteNumber": 67,
        "velocity": 0
      },
      {
        "deltaTime": 0,
        "channel": 1,
        "type": "channel",
        "noteNumber": 67,
        "velocity": 64,
        "subtype": "noteOn"
      },
      {
        "deltaTime": 768,
        "channel": 1,
        "type": "channel",
        "subtype": "noteOff",
        "noteNumber": 67,
        "velocity": 0
      },
      {
        "deltaTime": 0,
        "channel": 1,
        "type": "channel",
        "noteNumber": 64,
        "velocity": 64,
        "subtype": "noteOn"
      },
      {
        "deltaTime": 256,
        "channel": 1,
        "type": "channel",
        "subtype": "noteOff",
        "noteNumber": 64,
        "velocity": 0
      },
      {
        "deltaTime": 0,
        "channel": 1,
        "type": "channel",
        "noteNumber": 67,
        "velocity": 64,
        "subtype": "noteOn"
      },
      {
        "deltaTime": 256,
        "channel": 1,
        "type": "channel",
        "subtype": "noteOff",
        "noteNumber": 67,
        "velocity": 0
      },
      {
        "deltaTime": 0,
        "channel": 1,
        "type": "channel",
        "noteNumber": 64,
        "velocity": 64,
        "subtype": "noteOn"
      },
      {
        "deltaTime": 256,
        "channel": 1,
        "type": "channel",
        "subtype": "noteOff",
        "noteNumber": 64,
        "velocity": 0
      },
      {
        "deltaTime": 0,
        "channel": 1,
        "type": "channel",
        "noteNumber": 67,
        "velocity": 64,
        "subtype": "noteOn"
      },
      {
        "deltaTime": 512,
        "channel": 1,
        "type": "channel",
        "subtype": "noteOff",
        "noteNumber": 67,
        "velocity": 0
      },
      {
        "deltaTime": 0,
        "channel": 1,
        "type": "channel",
        "noteNumber": 62,
        "velocity": 64,
        "subtype": "noteOn"
      },
      {
        "deltaTime": 768,
        "channel": 1,
        "type": "channel",
        "subtype": "noteOff",
        "noteNumber": 62,
        "velocity": 0
      },
      {
        "deltaTime": 0,
        "channel": 1,
        "type": "channel",
        "noteNumber": 62,
        "velocity": 64,
        "subtype": "noteOn"
      },
      {
        "deltaTime": 256,
        "channel": 1,
        "type": "channel",
        "subtype": "noteOff",
        "noteNumber": 62,
        "velocity": 0
      },
      {
        "deltaTime": 0,
        "channel": 1,
        "type": "channel",
        "noteNumber": 69,
        "velocity": 64,
        "subtype": "noteOn"
      },
      {
        "deltaTime": 256,
        "channel": 1,
        "type": "channel",
        "subtype": "noteOff",
        "noteNumber": 69,
        "velocity": 0
      },
      {
        "deltaTime": 0,
        "channel": 1,
        "type": "channel",
        "noteNumber": 71,
        "velocity": 64,
        "subtype": "noteOn"
      },
      {
        "deltaTime": 256,
        "channel": 1,
        "type": "channel",
        "subtype": "noteOff",
        "noteNumber": 71,
        "velocity": 0
      },
      {
        "deltaTime": 0,
        "channel": 1,
        "type": "channel",
        "noteNumber": 69,
        "velocity": 64,
        "subtype": "noteOn"
      },
      {
        "deltaTime": 256,
        "channel": 1,
        "type": "channel",
        "subtype": "noteOff",
        "noteNumber": 69,
        "velocity": 0
      },
      {
        "deltaTime": 0,
        "channel": 1,
        "type": "channel",
        "noteNumber": 67,
        "velocity": 64,
        "subtype": "noteOn"
      },
      {
        "deltaTime": 256,
        "channel": 1,
        "type": "channel",
        "subtype": "noteOff",
        "noteNumber": 67,
        "velocity": 0
      },
      {
        "deltaTime": 0,
        "channel": 1,
        "type": "channel",
        "noteNumber": 69,
        "velocity": 64,
        "subtype": "noteOn"
      },
      {
        "deltaTime": 512,
        "channel": 1,
        "type": "channel",
        "subtype": "noteOff",
        "noteNumber": 69,
        "velocity": 0
      },
      {
        "deltaTime": 0,
        "channel": 1,
        "type": "channel",
        "noteNumber": 69,
        "velocity": 64,
        "subtype": "noteOn"
      },
      {
        "deltaTime": 256,
        "channel": 1,
        "type": "channel",
        "subtype": "noteOff",
        "noteNumber": 69,
        "velocity": 0
      },
      {
        "deltaTime": 0,
        "channel": 1,
        "type": "channel",
        "noteNumber": 67,
        "velocity": 64,
        "subtype": "noteOn"
      },
      {
        "deltaTime": 256,
        "channel": 1,
        "type": "channel",
        "subtype": "noteOff",
        "noteNumber": 67,
        "velocity": 0
      },
      {
        "deltaTime": 0,
        "channel": 1,
        "type": "channel",
        "noteNumber": 71,
        "velocity": 64,
        "subtype": "noteOn"
      },
      {
        "deltaTime": 512,
        "channel": 1,
        "type": "channel",
        "subtype": "noteOff",
        "noteNumber": 71,
        "velocity": 0
      },
      {
        "deltaTime": 0,
        "channel": 1,
        "type": "channel",
        "noteNumber": 69,
        "velocity": 64,
        "subtype": "noteOn"
      },
      {
        "deltaTime": 256,
        "channel": 1,
        "type": "channel",
        "subtype": "noteOff",
        "noteNumber": 69,
        "velocity": 0
      },
      {
        "deltaTime": 0,
        "channel": 1,
        "type": "channel",
        "noteNumber": 69,
        "velocity": 64,
        "subtype": "noteOn"
      },
      {
        "deltaTime": 256,
        "channel": 1,
        "type": "channel",
        "subtype": "noteOff",
        "noteNumber": 69,
        "velocity": 0
      },
      {
        "deltaTime": 256,
        "channel": 1,
        "type": "channel",
        "noteNumber": 67,
        "velocity": 64,
        "subtype": "noteOn"
      },
      {
        "deltaTime": 768,
        "channel": 1,
        "type": "channel",
        "subtype": "noteOff",
        "noteNumber": 67,
        "velocity": 0
      },
      {
        "deltaTime": 0,
        "channel": 1,
        "type": "channel",
        "noteNumber": 69,
        "velocity": 64,
        "subtype": "noteOn"
      },
      {
        "deltaTime": 256,
        "channel": 1,
        "type": "channel",
        "subtype": "noteOff",
        "noteNumber": 69,
        "velocity": 0
      },
      {
        "deltaTime": 0,
        "channel": 1,
        "type": "channel",
        "noteNumber": 71,
        "velocity": 64,
        "subtype": "noteOn"
      },
      {
        "deltaTime": 256,
        "channel": 1,
        "type": "channel",
        "subtype": "noteOff",
        "noteNumber": 71,
        "velocity": 0
      },
      {
        "deltaTime": 0,
        "channel": 1,
        "type": "channel",
        "noteNumber": 69,
        "velocity": 64,
        "subtype": "noteOn"
      },
      {
        "deltaTime": 256,
        "channel": 1,
        "type": "channel",
        "subtype": "noteOff",
        "noteNumber": 69,
        "velocity": 0
      },
      {
        "deltaTime": 0,
        "channel": 1,
        "type": "channel",
        "noteNumber": 67,
        "velocity": 64,
        "subtype": "noteOn"
      },
      {
        "deltaTime": 256,
        "channel": 1,
        "type": "channel",
        "subtype": "noteOff",
        "noteNumber": 67,
        "velocity": 0
      },
      {
        "deltaTime": 0,
        "channel": 1,
        "type": "channel",
        "noteNumber": 69,
        "velocity": 64,
        "subtype": "noteOn"
      },
      {
        "deltaTime": 256,
        "channel": 1,
        "type": "channel",
        "subtype": "noteOff",
        "noteNumber": 69,
        "velocity": 0
      },
      {
        "deltaTime": 0,
        "channel": 1,
        "type": "channel",
        "noteNumber": 67,
        "velocity": 64,
        "subtype": "noteOn"
      },
      {
        "deltaTime": 256,
        "channel": 1,
        "type": "channel",
        "subtype": "noteOff",
        "noteNumber": 67,
        "velocity": 0
      },
      {
        "deltaTime": 0,
        "channel": 1,
        "type": "channel",
        "noteNumber": 64,
        "velocity": 64,
        "subtype": "noteOn"
      },
      {
        "deltaTime": 256,
        "channel": 1,
        "type": "channel",
        "subtype": "noteOff",
        "noteNumber": 64,
        "velocity": 0
      },
      {
        "deltaTime": 0,
        "channel": 1,
        "type": "channel",
        "noteNumber": 64,
        "velocity": 64,
        "subtype": "noteOn"
      },
      {
        "deltaTime": 256,
        "channel": 1,
        "type": "channel",
        "subtype": "noteOff",
        "noteNumber": 64,
        "velocity": 0
      },
      {
        "deltaTime": 0,
        "channel": 1,
        "type": "channel",
        "noteNumber": 64,
        "velocity": 64,
        "subtype": "noteOn"
      },
      {
        "deltaTime": 256,
        "channel": 1,
        "type": "channel",
        "subtype": "noteOff",
        "noteNumber": 64,
        "velocity": 0
      },
      {
        "deltaTime": 0,
        "channel": 1,
        "type": "channel",
        "noteNumber": 62,
        "velocity": 64,
        "subtype": "noteOn"
      },
      {
        "deltaTime": 256,
        "channel": 1,
        "type": "channel",
        "subtype": "noteOff",
        "noteNumber": 62,
        "velocity": 0
      },
      {
        "deltaTime": 0,
        "channel": 1,
        "type": "channel",
        "noteNumber": 67,
        "velocity": 64,
        "subtype": "noteOn"
      },
      {
        "deltaTime": 512,
        "channel": 1,
        "type": "channel",
        "subtype": "noteOff",
        "noteNumber": 67,
        "velocity": 0
      },
      {
        "deltaTime": 2048,
        "channel": 1,
        "type": "channel",
        "noteNumber": 62,
        "velocity": 64,
        "subtype": "noteOn"
      },
      {
        "deltaTime": 0,
        "channel": 1,
        "type": "channel",
        "noteNumber": 66,
        "velocity": 64,
        "subtype": "noteOn"
      },
      {
        "deltaTime": 1024,
        "channel": 1,
        "type": "channel",
        "subtype": "noteOff",
        "noteNumber": 62,
        "velocity": 0
      },
      {
        "deltaTime": 0,
        "channel": 1,
        "type": "channel",
        "subtype": "noteOff",
        "noteNumber": 66,
        "velocity": 0
      },
      {
        "deltaTime": 0,
        "channel": 1,
        "type": "channel",
        "noteNumber": 62,
        "velocity": 64,
        "subtype": "noteOn"
      },
      {
        "deltaTime": 0,
        "channel": 1,
        "type": "channel",
        "noteNumber": 66,
        "velocity": 64,
        "subtype": "noteOn"
      },
      {
        "deltaTime": 1024,
        "channel": 1,
        "type": "channel",
        "subtype": "noteOff",
        "noteNumber": 62,
        "velocity": 0
      },
      {
        "deltaTime": 0,
        "channel": 1,
        "type": "channel",
        "subtype": "noteOff",
        "noteNumber": 66,
        "velocity": 0
      },
      {
        "deltaTime": 0,
        "channel": 1,
        "type": "channel",
        "noteNumber": 62,
        "velocity": 64,
        "subtype": "noteOn"
      },
      {
        "deltaTime": 0,
        "channel": 1,
        "type": "channel",
        "noteNumber": 66,
        "velocity": 64,
        "subtype": "noteOn"
      },
      {
        "deltaTime": 512,
        "channel": 1,
        "type": "channel",
        "subtype": "noteOff",
        "noteNumber": 62,
        "velocity": 0
      },
      {
        "deltaTime": 0,
        "channel": 1,
        "type": "channel",
        "subtype": "noteOff",
        "noteNumber": 66,
        "velocity": 0
      },
      {
        "deltaTime": 0,
        "channel": 1,
        "type": "channel",
        "noteNumber": 71,
        "velocity": 64,
        "subtype": "noteOn"
      },
      {
        "deltaTime": 256,
        "channel": 1,
        "type": "channel",
        "subtype": "noteOff",
        "noteNumber": 71,
        "velocity": 0
      },
      {
        "deltaTime": 0,
        "channel": 1,
        "type": "channel",
        "noteNumber": 71,
        "velocity": 64,
        "subtype": "noteOn"
      },
      {
        "deltaTime": 256,
        "channel": 1,
        "type": "channel",
        "subtype": "noteOff",
        "noteNumber": 71,
        "velocity": 0
      },
      {
        "deltaTime": 0,
        "channel": 1,
        "type": "channel",
        "noteNumber": 71,
        "velocity": 64,
        "subtype": "noteOn"
      },
      {
        "deltaTime": 512,
        "channel": 1,
        "type": "channel",
        "subtype": "noteOff",
        "noteNumber": 71,
        "velocity": 0
      },
      {
        "deltaTime": 0,
        "channel": 1,
        "type": "channel",
        "noteNumber": 69,
        "velocity": 64,
        "subtype": "noteOn"
      },
      {
        "deltaTime": 256,
        "channel": 1,
        "type": "channel",
        "subtype": "noteOff",
        "noteNumber": 69,
        "velocity": 0
      },
      {
        "deltaTime": 0,
        "channel": 1,
        "type": "channel",
        "noteNumber": 67,
        "velocity": 64,
        "subtype": "noteOn"
      },
      {
        "deltaTime": 256,
        "channel": 1,
        "type": "channel",
        "subtype": "noteOff",
        "noteNumber": 67,
        "velocity": 0
      },
      {
        "deltaTime": 0,
        "channel": 1,
        "type": "channel",
        "noteNumber": 67,
        "velocity": 64,
        "subtype": "noteOn"
      },
      {
        "deltaTime": 512,
        "channel": 1,
        "type": "channel",
        "subtype": "noteOff",
        "noteNumber": 67,
        "velocity": 0
      },
      {
        "deltaTime": 0,
        "channel": 1,
        "type": "channel",
        "noteNumber": 67,
        "velocity": 64,
        "subtype": "noteOn"
      },
      {
        "deltaTime": 256,
        "channel": 1,
        "type": "channel",
        "subtype": "noteOff",
        "noteNumber": 67,
        "velocity": 0
      },
      {
        "deltaTime": 0,
        "channel": 1,
        "type": "channel",
        "noteNumber": 64,
        "velocity": 64,
        "subtype": "noteOn"
      },
      {
        "deltaTime": 256,
        "channel": 1,
        "type": "channel",
        "subtype": "noteOff",
        "noteNumber": 64,
        "velocity": 0
      },
      {
        "deltaTime": 0,
        "channel": 1,
        "type": "channel",
        "noteNumber": 67,
        "velocity": 64,
        "subtype": "noteOn"
      },
      {
        "deltaTime": 256,
        "channel": 1,
        "type": "channel",
        "subtype": "noteOff",
        "noteNumber": 67,
        "velocity": 0
      },
      {
        "deltaTime": 0,
        "channel": 1,
        "type": "channel",
        "noteNumber": 64,
        "velocity": 64,
        "subtype": "noteOn"
      },
      {
        "deltaTime": 256,
        "channel": 1,
        "type": "channel",
        "subtype": "noteOff",
        "noteNumber": 64,
        "velocity": 0
      },
      {
        "deltaTime": 0,
        "channel": 1,
        "type": "channel",
        "noteNumber": 67,
        "velocity": 64,
        "subtype": "noteOn"
      },
      {
        "deltaTime": 512,
        "channel": 1,
        "type": "channel",
        "subtype": "noteOff",
        "noteNumber": 67,
        "velocity": 0
      },
      {
        "deltaTime": 1024,
        "channel": 1,
        "type": "channel",
        "noteNumber": 69,
        "velocity": 64,
        "subtype": "noteOn"
      },
      {
        "deltaTime": 256,
        "channel": 1,
        "type": "channel",
        "subtype": "noteOff",
        "noteNumber": 69,
        "velocity": 0
      },
      {
        "deltaTime": 0,
        "channel": 1,
        "type": "channel",
        "noteNumber": 71,
        "velocity": 64,
        "subtype": "noteOn"
      },
      {
        "deltaTime": 256,
        "channel": 1,
        "type": "channel",
        "subtype": "noteOff",
        "noteNumber": 71,
        "velocity": 0
      },
      {
        "deltaTime": 0,
        "channel": 1,
        "type": "channel",
        "noteNumber": 69,
        "velocity": 64,
        "subtype": "noteOn"
      },
      {
        "deltaTime": 256,
        "channel": 1,
        "type": "channel",
        "subtype": "noteOff",
        "noteNumber": 69,
        "velocity": 0
      },
      {
        "deltaTime": 0,
        "channel": 1,
        "type": "channel",
        "noteNumber": 67,
        "velocity": 64,
        "subtype": "noteOn"
      },
      {
        "deltaTime": 256,
        "channel": 1,
        "type": "channel",
        "subtype": "noteOff",
        "noteNumber": 67,
        "velocity": 0
      },
      {
        "deltaTime": 0,
        "channel": 1,
        "type": "channel",
        "noteNumber": 69,
        "velocity": 64,
        "subtype": "noteOn"
      },
      {
        "deltaTime": 512,
        "channel": 1,
        "type": "channel",
        "subtype": "noteOff",
        "noteNumber": 69,
        "velocity": 0
      },
      {
        "deltaTime": 0,
        "channel": 1,
        "type": "channel",
        "noteNumber": 69,
        "velocity": 64,
        "subtype": "noteOn"
      },
      {
        "deltaTime": 256,
        "channel": 1,
        "type": "channel",
        "subtype": "noteOff",
        "noteNumber": 69,
        "velocity": 0
      },
      {
        "deltaTime": 0,
        "channel": 1,
        "type": "channel",
        "noteNumber": 67,
        "velocity": 64,
        "subtype": "noteOn"
      },
      {
        "deltaTime": 256,
        "channel": 1,
        "type": "channel",
        "subtype": "noteOff",
        "noteNumber": 67,
        "velocity": 0
      },
      {
        "deltaTime": 0,
        "channel": 1,
        "type": "channel",
        "noteNumber": 71,
        "velocity": 64,
        "subtype": "noteOn"
      },
      {
        "deltaTime": 512,
        "channel": 1,
        "type": "channel",
        "subtype": "noteOff",
        "noteNumber": 71,
        "velocity": 0
      },
      {
        "deltaTime": 0,
        "channel": 1,
        "type": "channel",
        "noteNumber": 69,
        "velocity": 64,
        "subtype": "noteOn"
      },
      {
        "deltaTime": 256,
        "channel": 1,
        "type": "channel",
        "subtype": "noteOff",
        "noteNumber": 69,
        "velocity": 0
      },
      {
        "deltaTime": 0,
        "channel": 1,
        "type": "channel",
        "noteNumber": 69,
        "velocity": 64,
        "subtype": "noteOn"
      },
      {
        "deltaTime": 256,
        "channel": 1,
        "type": "channel",
        "subtype": "noteOff",
        "noteNumber": 69,
        "velocity": 0
      },
      {
        "deltaTime": 256,
        "channel": 1,
        "type": "channel",
        "noteNumber": 67,
        "velocity": 64,
        "subtype": "noteOn"
      },
      {
        "deltaTime": 768,
        "channel": 1,
        "type": "channel",
        "subtype": "noteOff",
        "noteNumber": 67,
        "velocity": 0
      },
      {
        "deltaTime": 0,
        "channel": 1,
        "type": "channel",
        "noteNumber": 69,
        "velocity": 64,
        "subtype": "noteOn"
      },
      {
        "deltaTime": 256,
        "channel": 1,
        "type": "channel",
        "subtype": "noteOff",
        "noteNumber": 69,
        "velocity": 0
      },
      {
        "deltaTime": 0,
        "channel": 1,
        "type": "channel",
        "noteNumber": 71,
        "velocity": 64,
        "subtype": "noteOn"
      },
      {
        "deltaTime": 256,
        "channel": 1,
        "type": "channel",
        "subtype": "noteOff",
        "noteNumber": 71,
        "velocity": 0
      },
      {
        "deltaTime": 0,
        "channel": 1,
        "type": "channel",
        "noteNumber": 69,
        "velocity": 64,
        "subtype": "noteOn"
      },
      {
        "deltaTime": 256,
        "channel": 1,
        "type": "channel",
        "subtype": "noteOff",
        "noteNumber": 69,
        "velocity": 0
      },
      {
        "deltaTime": 0,
        "channel": 1,
        "type": "channel",
        "noteNumber": 67,
        "velocity": 64,
        "subtype": "noteOn"
      },
      {
        "deltaTime": 256,
        "channel": 1,
        "type": "channel",
        "subtype": "noteOff",
        "noteNumber": 67,
        "velocity": 0
      },
      {
        "deltaTime": 0,
        "channel": 1,
        "type": "channel",
        "noteNumber": 69,
        "velocity": 64,
        "subtype": "noteOn"
      },
      {
        "deltaTime": 256,
        "channel": 1,
        "type": "channel",
        "subtype": "noteOff",
        "noteNumber": 69,
        "velocity": 0
      },
      {
        "deltaTime": 0,
        "channel": 1,
        "type": "channel",
        "noteNumber": 67,
        "velocity": 64,
        "subtype": "noteOn"
      },
      {
        "deltaTime": 256,
        "channel": 1,
        "type": "channel",
        "subtype": "noteOff",
        "noteNumber": 67,
        "velocity": 0
      },
      {
        "deltaTime": 0,
        "channel": 1,
        "type": "channel",
        "noteNumber": 64,
        "velocity": 64,
        "subtype": "noteOn"
      },
      {
        "deltaTime": 256,
        "channel": 1,
        "type": "channel",
        "subtype": "noteOff",
        "noteNumber": 64,
        "velocity": 0
      },
      {
        "deltaTime": 0,
        "channel": 1,
        "type": "channel",
        "noteNumber": 64,
        "velocity": 64,
        "subtype": "noteOn"
      },
      {
        "deltaTime": 256,
        "channel": 1,
        "type": "channel",
        "subtype": "noteOff",
        "noteNumber": 64,
        "velocity": 0
      },
      {
        "deltaTime": 0,
        "channel": 1,
        "type": "channel",
        "noteNumber": 64,
        "velocity": 64,
        "subtype": "noteOn"
      },
      {
        "deltaTime": 256,
        "channel": 1,
        "type": "channel",
        "subtype": "noteOff",
        "noteNumber": 64,
        "velocity": 0
      },
      {
        "deltaTime": 0,
        "channel": 1,
        "type": "channel",
        "noteNumber": 62,
        "velocity": 64,
        "subtype": "noteOn"
      },
      {
        "deltaTime": 256,
        "channel": 1,
        "type": "channel",
        "subtype": "noteOff",
        "noteNumber": 62,
        "velocity": 0
      },
      {
        "deltaTime": 0,
        "channel": 1,
        "type": "channel",
        "noteNumber": 67,
        "velocity": 64,
        "subtype": "noteOn"
      },
      {
        "deltaTime": 512,
        "channel": 1,
        "type": "channel",
        "subtype": "noteOff",
        "noteNumber": 67,
        "velocity": 0
      },
      {
        "deltaTime": 2048,
        "channel": 1,
        "type": "channel",
        "noteNumber": 62,
        "velocity": 64,
        "subtype": "noteOn"
      },
      {
        "deltaTime": 0,
        "channel": 1,
        "type": "channel",
        "noteNumber": 66,
        "velocity": 64,
        "subtype": "noteOn"
      },
      {
        "deltaTime": 1024,
        "channel": 1,
        "type": "channel",
        "subtype": "noteOff",
        "noteNumber": 62,
        "velocity": 0
      },
      {
        "deltaTime": 0,
        "channel": 1,
        "type": "channel",
        "subtype": "noteOff",
        "noteNumber": 66,
        "velocity": 0
      },
      {
        "deltaTime": 0,
        "channel": 1,
        "type": "channel",
        "noteNumber": 62,
        "velocity": 64,
        "subtype": "noteOn"
      },
      {
        "deltaTime": 0,
        "channel": 1,
        "type": "channel",
        "noteNumber": 66,
        "velocity": 64,
        "subtype": "noteOn"
      },
      {
        "deltaTime": 1024,
        "channel": 1,
        "type": "channel",
        "subtype": "noteOff",
        "noteNumber": 62,
        "velocity": 0
      },
      {
        "deltaTime": 0,
        "channel": 1,
        "type": "channel",
        "subtype": "noteOff",
        "noteNumber": 66,
        "velocity": 0
      },
      {
        "deltaTime": 0,
        "channel": 1,
        "type": "channel",
        "noteNumber": 62,
        "velocity": 64,
        "subtype": "noteOn"
      },
      {
        "deltaTime": 0,
        "channel": 1,
        "type": "channel",
        "noteNumber": 66,
        "velocity": 64,
        "subtype": "noteOn"
      },
      {
        "deltaTime": 512,
        "channel": 1,
        "type": "channel",
        "subtype": "noteOff",
        "noteNumber": 62,
        "velocity": 0
      },
      {
        "deltaTime": 0,
        "channel": 1,
        "type": "channel",
        "subtype": "noteOff",
        "noteNumber": 66,
        "velocity": 0
      },
      {
        "deltaTime": 0,
        "channel": 1,
        "type": "channel",
        "noteNumber": 69,
        "velocity": 64,
        "subtype": "noteOn"
      },
      {
        "deltaTime": 256,
        "channel": 1,
        "type": "channel",
        "subtype": "noteOff",
        "noteNumber": 69,
        "velocity": 0
      },
      {
        "deltaTime": 0,
        "channel": 1,
        "type": "channel",
        "noteNumber": 67,
        "velocity": 64,
        "subtype": "noteOn"
      },
      {
        "deltaTime": 256,
        "channel": 1,
        "type": "channel",
        "subtype": "noteOff",
        "noteNumber": 67,
        "velocity": 0
      },
      {
        "deltaTime": 0,
        "channel": 1,
        "type": "channel",
        "noteNumber": 71,
        "velocity": 64,
        "subtype": "noteOn"
      },
      {
        "deltaTime": 256,
        "channel": 1,
        "type": "channel",
        "subtype": "noteOff",
        "noteNumber": 71,
        "velocity": 0
      },
      {
        "deltaTime": 0,
        "channel": 1,
        "type": "channel",
        "noteNumber": 69,
        "velocity": 64,
        "subtype": "noteOn"
      },
      {
        "deltaTime": 512,
        "channel": 1,
        "type": "channel",
        "subtype": "noteOff",
        "noteNumber": 69,
        "velocity": 0
      },
      {
        "deltaTime": 0,
        "channel": 1,
        "type": "channel",
        "noteNumber": 69,
        "velocity": 64,
        "subtype": "noteOn"
      },
      {
        "deltaTime": 256,
        "channel": 1,
        "type": "channel",
        "subtype": "noteOff",
        "noteNumber": 69,
        "velocity": 0
      },
      {
        "deltaTime": 256,
        "channel": 1,
        "type": "channel",
        "noteNumber": 67,
        "velocity": 64,
        "subtype": "noteOn"
      },
      {
        "deltaTime": 256,
        "channel": 1,
        "type": "channel",
        "subtype": "noteOff",
        "noteNumber": 67,
        "velocity": 0
      },
      {
        "deltaTime": 0,
        "channel": 1,
        "type": "channel",
        "noteNumber": 64,
        "velocity": 64,
        "subtype": "noteOn"
      },
      {
        "deltaTime": 512,
        "channel": 1,
        "type": "channel",
        "subtype": "noteOff",
        "noteNumber": 64,
        "velocity": 0
      },
      {
        "deltaTime": 1024,
        "channel": 1,
        "type": "channel",
        "noteNumber": 60,
        "velocity": 64,
        "subtype": "noteOn"
      },
      {
        "deltaTime": 0,
        "channel": 1,
        "type": "channel",
        "noteNumber": 64,
        "velocity": 64,
        "subtype": "noteOn"
      },
      {
        "deltaTime": 1024,
        "channel": 1,
        "type": "channel",
        "subtype": "noteOff",
        "noteNumber": 60,
        "velocity": 0
      },
      {
        "deltaTime": 0,
        "channel": 1,
        "type": "channel",
        "subtype": "noteOff",
        "noteNumber": 64,
        "velocity": 0
      },
      {
        "deltaTime": 0,
        "channel": 1,
        "type": "channel",
        "noteNumber": 60,
        "velocity": 64,
        "subtype": "noteOn"
      },
      {
        "deltaTime": 0,
        "channel": 1,
        "type": "channel",
        "noteNumber": 64,
        "velocity": 64,
        "subtype": "noteOn"
      },
      {
        "deltaTime": 1024,
        "channel": 1,
        "type": "channel",
        "subtype": "noteOff",
        "noteNumber": 60,
        "velocity": 0
      },
      {
        "deltaTime": 0,
        "channel": 1,
        "type": "channel",
        "subtype": "noteOff",
        "noteNumber": 64,
        "velocity": 0
      },
      {
        "deltaTime": 0,
        "channel": 1,
        "type": "channel",
        "noteNumber": 62,
        "velocity": 64,
        "subtype": "noteOn"
      },
      {
        "deltaTime": 0,
        "channel": 1,
        "type": "channel",
        "noteNumber": 66,
        "velocity": 64,
        "subtype": "noteOn"
      },
      {
        "deltaTime": 1024,
        "channel": 1,
        "type": "channel",
        "subtype": "noteOff",
        "noteNumber": 62,
        "velocity": 0
      },
      {
        "deltaTime": 0,
        "channel": 1,
        "type": "channel",
        "subtype": "noteOff",
        "noteNumber": 66,
        "velocity": 0
      },
      {
        "deltaTime": 0,
        "channel": 1,
        "type": "channel",
        "noteNumber": 62,
        "velocity": 64,
        "subtype": "noteOn"
      },
      {
        "deltaTime": 0,
        "channel": 1,
        "type": "channel",
        "noteNumber": 66,
        "velocity": 64,
        "subtype": "noteOn"
      },
      {
        "deltaTime": 1024,
        "channel": 1,
        "type": "channel",
        "subtype": "noteOff",
        "noteNumber": 62,
        "velocity": 0
      },
      {
        "deltaTime": 0,
        "channel": 1,
        "type": "channel",
        "subtype": "noteOff",
        "noteNumber": 66,
        "velocity": 0
      },
      {
        "deltaTime": 0,
        "channel": 1,
        "type": "channel",
        "noteNumber": 59,
        "velocity": 64,
        "subtype": "noteOn"
      },
      {
        "deltaTime": 0,
        "channel": 1,
        "type": "channel",
        "noteNumber": 62,
        "velocity": 64,
        "subtype": "noteOn"
      },
      {
        "deltaTime": 1024,
        "channel": 1,
        "type": "channel",
        "subtype": "noteOff",
        "noteNumber": 59,
        "velocity": 0
      },
      {
        "deltaTime": 0,
        "channel": 1,
        "type": "channel",
        "subtype": "noteOff",
        "noteNumber": 62,
        "velocity": 0
      },
      {
        "deltaTime": 0,
        "channel": 1,
        "type": "channel",
        "noteNumber": 59,
        "velocity": 64,
        "subtype": "noteOn"
      },
      {
        "deltaTime": 0,
        "channel": 1,
        "type": "channel",
        "noteNumber": 62,
        "velocity": 64,
        "subtype": "noteOn"
      },
      {
        "deltaTime": 1024,
        "channel": 1,
        "type": "channel",
        "subtype": "noteOff",
        "noteNumber": 59,
        "velocity": 0
      },
      {
        "deltaTime": 0,
        "channel": 1,
        "type": "channel",
        "subtype": "noteOff",
        "noteNumber": 62,
        "velocity": 0
      },
      {
        "deltaTime": 0,
        "channel": 1,
        "type": "channel",
        "noteNumber": 64,
        "velocity": 64,
        "subtype": "noteOn"
      },
      {
        "deltaTime": 0,
        "channel": 1,
        "type": "channel",
        "noteNumber": 67,
        "velocity": 64,
        "subtype": "noteOn"
      },
      {
        "deltaTime": 1024,
        "channel": 1,
        "type": "channel",
        "subtype": "noteOff",
        "noteNumber": 64,
        "velocity": 0
      },
      {
        "deltaTime": 0,
        "channel": 1,
        "type": "channel",
        "subtype": "noteOff",
        "noteNumber": 67,
        "velocity": 0
      },
      {
        "deltaTime": 0,
        "channel": 1,
        "type": "channel",
        "noteNumber": 64,
        "velocity": 64,
        "subtype": "noteOn"
      },
      {
        "deltaTime": 0,
        "channel": 1,
        "type": "channel",
        "noteNumber": 67,
        "velocity": 64,
        "subtype": "noteOn"
      },
      {
        "deltaTime": 1024,
        "channel": 1,
        "type": "channel",
        "subtype": "noteOff",
        "noteNumber": 64,
        "velocity": 0
      },
      {
        "deltaTime": 0,
        "channel": 1,
        "type": "channel",
        "subtype": "noteOff",
        "noteNumber": 67,
        "velocity": 0
      },
      {
        "deltaTime": 0,
        "channel": 1,
        "type": "channel",
        "noteNumber": 60,
        "velocity": 64,
        "subtype": "noteOn"
      },
      {
        "deltaTime": 0,
        "channel": 1,
        "type": "channel",
        "noteNumber": 64,
        "velocity": 64,
        "subtype": "noteOn"
      },
      {
        "deltaTime": 1024,
        "channel": 1,
        "type": "channel",
        "subtype": "noteOff",
        "noteNumber": 60,
        "velocity": 0
      },
      {
        "deltaTime": 0,
        "channel": 1,
        "type": "channel",
        "subtype": "noteOff",
        "noteNumber": 64,
        "velocity": 0
      },
      {
        "deltaTime": 0,
        "channel": 1,
        "type": "channel",
        "noteNumber": 60,
        "velocity": 64,
        "subtype": "noteOn"
      },
      {
        "deltaTime": 0,
        "channel": 1,
        "type": "channel",
        "noteNumber": 64,
        "velocity": 64,
        "subtype": "noteOn"
      },
      {
        "deltaTime": 1024,
        "channel": 1,
        "type": "channel",
        "subtype": "noteOff",
        "noteNumber": 60,
        "velocity": 0
      },
      {
        "deltaTime": 0,
        "channel": 1,
        "type": "channel",
        "subtype": "noteOff",
        "noteNumber": 64,
        "velocity": 0
      },
      {
        "deltaTime": 0,
        "channel": 1,
        "type": "channel",
        "noteNumber": 62,
        "velocity": 64,
        "subtype": "noteOn"
      },
      {
        "deltaTime": 0,
        "channel": 1,
        "type": "channel",
        "noteNumber": 66,
        "velocity": 64,
        "subtype": "noteOn"
      },
      {
        "deltaTime": 1024,
        "channel": 1,
        "type": "channel",
        "subtype": "noteOff",
        "noteNumber": 62,
        "velocity": 0
      },
      {
        "deltaTime": 0,
        "channel": 1,
        "type": "channel",
        "subtype": "noteOff",
        "noteNumber": 66,
        "velocity": 0
      },
      {
        "deltaTime": 0,
        "channel": 1,
        "type": "channel",
        "noteNumber": 62,
        "velocity": 64,
        "subtype": "noteOn"
      },
      {
        "deltaTime": 0,
        "channel": 1,
        "type": "channel",
        "noteNumber": 66,
        "velocity": 64,
        "subtype": "noteOn"
      },
      {
        "deltaTime": 1024,
        "channel": 1,
        "type": "channel",
        "subtype": "noteOff",
        "noteNumber": 62,
        "velocity": 0
      },
      {
        "deltaTime": 0,
        "channel": 1,
        "type": "channel",
        "subtype": "noteOff",
        "noteNumber": 66,
        "velocity": 0
      },
      {
        "deltaTime": 0,
        "channel": 1,
        "type": "channel",
        "noteNumber": 62,
        "velocity": 64,
        "subtype": "noteOn"
      },
      {
        "deltaTime": 0,
        "channel": 1,
        "type": "channel",
        "noteNumber": 66,
        "velocity": 64,
        "subtype": "noteOn"
      },
      {
        "deltaTime": 1024,
        "channel": 1,
        "type": "channel",
        "subtype": "noteOff",
        "noteNumber": 62,
        "velocity": 0
      },
      {
        "deltaTime": 0,
        "channel": 1,
        "type": "channel",
        "subtype": "noteOff",
        "noteNumber": 66,
        "velocity": 0
      },
      {
        "deltaTime": 0,
        "channel": 1,
        "type": "channel",
        "noteNumber": 62,
        "velocity": 64,
        "subtype": "noteOn"
      },
      {
        "deltaTime": 0,
        "channel": 1,
        "type": "channel",
        "noteNumber": 66,
        "velocity": 64,
        "subtype": "noteOn"
      },
      {
        "deltaTime": 1024,
        "channel": 1,
        "type": "channel",
        "subtype": "noteOff",
        "noteNumber": 62,
        "velocity": 0
      },
      {
        "deltaTime": 0,
        "channel": 1,
        "type": "channel",
        "subtype": "noteOff",
        "noteNumber": 66,
        "velocity": 0
      },
      {
        "deltaTime": 0,
        "channel": 1,
        "type": "channel",
        "noteNumber": 71,
        "velocity": 64,
        "subtype": "noteOn"
      },
      {
        "deltaTime": 512,
        "channel": 1,
        "type": "channel",
        "subtype": "noteOff",
        "noteNumber": 71,
        "velocity": 0
      },
      {
        "deltaTime": 0,
        "channel": 1,
        "type": "channel",
        "noteNumber": 71,
        "velocity": 64,
        "subtype": "noteOn"
      },
      {
        "deltaTime": 512,
        "channel": 1,
        "type": "channel",
        "subtype": "noteOff",
        "noteNumber": 71,
        "velocity": 0
      },
      {
        "deltaTime": 0,
        "channel": 1,
        "type": "channel",
        "noteNumber": 71,
        "velocity": 64,
        "subtype": "noteOn"
      },
      {
        "deltaTime": 256,
        "channel": 1,
        "type": "channel",
        "subtype": "noteOff",
        "noteNumber": 71,
        "velocity": 0
      },
      {
        "deltaTime": 0,
        "channel": 1,
        "type": "channel",
        "noteNumber": 69,
        "velocity": 64,
        "subtype": "noteOn"
      },
      {
        "deltaTime": 256,
        "channel": 1,
        "type": "channel",
        "subtype": "noteOff",
        "noteNumber": 69,
        "velocity": 0
      },
      {
        "deltaTime": 0,
        "channel": 1,
        "type": "channel",
        "noteNumber": 67,
        "velocity": 64,
        "subtype": "noteOn"
      },
      {
        "deltaTime": 256,
        "channel": 1,
        "type": "channel",
        "subtype": "noteOff",
        "noteNumber": 67,
        "velocity": 0
      },
      {
        "deltaTime": 0,
        "channel": 1,
        "type": "channel",
        "noteNumber": 67,
        "velocity": 64,
        "subtype": "noteOn"
      },
      {
        "deltaTime": 256,
        "channel": 1,
        "type": "channel",
        "subtype": "noteOff",
        "noteNumber": 67,
        "velocity": 0
      },
      {
        "deltaTime": 768,
        "channel": 1,
        "type": "channel",
        "noteNumber": 72,
        "velocity": 64,
        "subtype": "noteOn"
      },
      {
        "deltaTime": 256,
        "channel": 1,
        "type": "channel",
        "subtype": "noteOff",
        "noteNumber": 72,
        "velocity": 0
      },
      {
        "deltaTime": 256,
        "channel": 1,
        "type": "channel",
        "noteNumber": 71,
        "velocity": 64,
        "subtype": "noteOn"
      },
      {
        "deltaTime": 768,
        "channel": 1,
        "type": "channel",
        "subtype": "noteOff",
        "noteNumber": 71,
        "velocity": 0
      },
      {
        "deltaTime": 0,
        "channel": 1,
        "type": "channel",
        "noteNumber": 69,
        "velocity": 64,
        "subtype": "noteOn"
      },
      {
        "deltaTime": 768,
        "channel": 1,
        "type": "channel",
        "subtype": "noteOff",
        "noteNumber": 69,
        "velocity": 0
      },
      {
        "deltaTime": 0,
        "channel": 1,
        "type": "channel",
        "noteNumber": 69,
        "velocity": 64,
        "subtype": "noteOn"
      },
      {
        "deltaTime": 256,
        "channel": 1,
        "type": "channel",
        "subtype": "noteOff",
        "noteNumber": 69,
        "velocity": 0
      },
      {
        "deltaTime": 0,
        "channel": 1,
        "type": "channel",
        "noteNumber": 69,
        "velocity": 64,
        "subtype": "noteOn"
      },
      {
        "deltaTime": 256,
        "channel": 1,
        "type": "channel",
        "subtype": "noteOff",
        "noteNumber": 69,
        "velocity": 0
      },
      {
        "deltaTime": 0,
        "channel": 1,
        "type": "channel",
        "noteNumber": 67,
        "velocity": 64,
        "subtype": "noteOn"
      },
      {
        "deltaTime": 256,
        "channel": 1,
        "type": "channel",
        "subtype": "noteOff",
        "noteNumber": 67,
        "velocity": 0
      },
      {
        "deltaTime": 0,
        "channel": 1,
        "type": "channel",
        "noteNumber": 66,
        "velocity": 64,
        "subtype": "noteOn"
      },
      {
        "deltaTime": 512,
        "channel": 1,
        "type": "channel",
        "subtype": "noteOff",
        "noteNumber": 66,
        "velocity": 0
      },
      {
        "deltaTime": 0,
        "channel": 1,
        "type": "channel",
        "noteNumber": 66,
        "velocity": 64,
        "subtype": "noteOn"
      },
      {
        "deltaTime": 768,
        "channel": 1,
        "type": "channel",
        "subtype": "noteOff",
        "noteNumber": 66,
        "velocity": 0
      },
      {
        "deltaTime": 0,
        "channel": 1,
        "type": "channel",
        "noteNumber": 62,
        "velocity": 64,
        "subtype": "noteOn"
      },
      {
        "deltaTime": 256,
        "channel": 1,
        "type": "channel",
        "subtype": "noteOff",
        "noteNumber": 62,
        "velocity": 0
      },
      {
        "deltaTime": 0,
        "channel": 1,
        "type": "channel",
        "noteNumber": 71,
        "velocity": 64,
        "subtype": "noteOn"
      },
      {
        "deltaTime": 512,
        "channel": 1,
        "type": "channel",
        "subtype": "noteOff",
        "noteNumber": 71,
        "velocity": 0
      },
      {
        "deltaTime": 0,
        "channel": 1,
        "type": "channel",
        "noteNumber": 69,
        "velocity": 64,
        "subtype": "noteOn"
      },
      {
        "deltaTime": 512,
        "channel": 1,
        "type": "channel",
        "subtype": "noteOff",
        "noteNumber": 69,
        "velocity": 0
      },
      {
        "deltaTime": 0,
        "channel": 1,
        "type": "channel",
        "noteNumber": 67,
        "velocity": 64,
        "subtype": "noteOn"
      },
      {
        "deltaTime": 768,
        "channel": 1,
        "type": "channel",
        "subtype": "noteOff",
        "noteNumber": 67,
        "velocity": 0
      },
      {
        "deltaTime": 0,
        "channel": 1,
        "type": "channel",
        "noteNumber": 64,
        "velocity": 64,
        "subtype": "noteOn"
      },
      {
        "deltaTime": 256,
        "channel": 1,
        "type": "channel",
        "subtype": "noteOff",
        "noteNumber": 64,
        "velocity": 0
      },
      {
        "deltaTime": 0,
        "channel": 1,
        "type": "channel",
        "noteNumber": 71,
        "velocity": 64,
        "subtype": "noteOn"
      },
      {
        "deltaTime": 512,
        "channel": 1,
        "type": "channel",
        "subtype": "noteOff",
        "noteNumber": 71,
        "velocity": 0
      },
      {
        "deltaTime": 0,
        "channel": 1,
        "type": "channel",
        "noteNumber": 69,
        "velocity": 64,
        "subtype": "noteOn"
      },
      {
        "deltaTime": 256,
        "channel": 1,
        "type": "channel",
        "subtype": "noteOff",
        "noteNumber": 69,
        "velocity": 0
      },
      {
        "deltaTime": 0,
        "channel": 1,
        "type": "channel",
        "noteNumber": 67,
        "velocity": 64,
        "subtype": "noteOn"
      },
      {
        "deltaTime": 256,
        "channel": 1,
        "type": "channel",
        "subtype": "noteOff",
        "noteNumber": 67,
        "velocity": 0
      },
      {
        "deltaTime": 0,
        "channel": 1,
        "type": "channel",
        "noteNumber": 64,
        "velocity": 64,
        "subtype": "noteOn"
      },
      {
        "deltaTime": 1024,
        "channel": 1,
        "type": "channel",
        "subtype": "noteOff",
        "noteNumber": 64,
        "velocity": 0
      },
      {
        "deltaTime": 1024,
        "channel": 1,
        "type": "channel",
        "noteNumber": 62,
        "velocity": 64,
        "subtype": "noteOn"
      },
      {
        "deltaTime": 0,
        "channel": 1,
        "type": "channel",
        "noteNumber": 66,
        "velocity": 64,
        "subtype": "noteOn"
      },
      {
        "deltaTime": 1024,
        "channel": 1,
        "type": "channel",
        "subtype": "noteOff",
        "noteNumber": 62,
        "velocity": 0
      },
      {
        "deltaTime": 0,
        "channel": 1,
        "type": "channel",
        "subtype": "noteOff",
        "noteNumber": 66,
        "velocity": 0
      },
      {
        "deltaTime": 0,
        "channel": 1,
        "type": "channel",
        "noteNumber": 62,
        "velocity": 64,
        "subtype": "noteOn"
      },
      {
        "deltaTime": 0,
        "channel": 1,
        "type": "channel",
        "noteNumber": 66,
        "velocity": 64,
        "subtype": "noteOn"
      },
      {
        "deltaTime": 1024,
        "channel": 1,
        "type": "channel",
        "subtype": "noteOff",
        "noteNumber": 62,
        "velocity": 0
      },
      {
        "deltaTime": 0,
        "channel": 1,
        "type": "channel",
        "subtype": "noteOff",
        "noteNumber": 66,
        "velocity": 0
      },
      {
        "deltaTime": 0,
        "channel": 1,
        "type": "channel",
        "noteNumber": 62,
        "velocity": 64,
        "subtype": "noteOn"
      },
      {
        "deltaTime": 0,
        "channel": 1,
        "type": "channel",
        "noteNumber": 66,
        "velocity": 64,
        "subtype": "noteOn"
      },
      {
        "deltaTime": 1024,
        "channel": 1,
        "type": "channel",
        "subtype": "noteOff",
        "noteNumber": 62,
        "velocity": 0
      },
      {
        "deltaTime": 0,
        "channel": 1,
        "type": "channel",
        "subtype": "noteOff",
        "noteNumber": 66,
        "velocity": 0
      },
      {
        "deltaTime": 0,
        "channel": 1,
        "type": "channel",
        "noteNumber": 62,
        "velocity": 64,
        "subtype": "noteOn"
      },
      {
        "deltaTime": 0,
        "channel": 1,
        "type": "channel",
        "noteNumber": 66,
        "velocity": 64,
        "subtype": "noteOn"
      },
      {
        "deltaTime": 512,
        "channel": 1,
        "type": "channel",
        "subtype": "noteOff",
        "noteNumber": 62,
        "velocity": 0
      },
      {
        "deltaTime": 0,
        "channel": 1,
        "type": "channel",
        "subtype": "noteOff",
        "noteNumber": 66,
        "velocity": 0
      },
      {
        "deltaTime": 256,
        "channel": 1,
        "type": "channel",
        "noteNumber": 71,
        "velocity": 64,
        "subtype": "noteOn"
      },
      {
        "deltaTime": 256,
        "channel": 1,
        "type": "channel",
        "subtype": "noteOff",
        "noteNumber": 71,
        "velocity": 0
      },
      {
        "deltaTime": 0,
        "channel": 1,
        "type": "channel",
        "noteNumber": 71,
        "velocity": 64,
        "subtype": "noteOn"
      },
      {
        "deltaTime": 512,
        "channel": 1,
        "type": "channel",
        "subtype": "noteOff",
        "noteNumber": 71,
        "velocity": 0
      },
      {
        "deltaTime": 0,
        "channel": 1,
        "type": "channel",
        "noteNumber": 71,
        "velocity": 64,
        "subtype": "noteOn"
      },
      {
        "deltaTime": 512,
        "channel": 1,
        "type": "channel",
        "subtype": "noteOff",
        "noteNumber": 71,
        "velocity": 0
      },
      {
        "deltaTime": 0,
        "channel": 1,
        "type": "channel",
        "noteNumber": 71,
        "velocity": 64,
        "subtype": "noteOn"
      },
      {
        "deltaTime": 256,
        "channel": 1,
        "type": "channel",
        "subtype": "noteOff",
        "noteNumber": 71,
        "velocity": 0
      },
      {
        "deltaTime": 0,
        "channel": 1,
        "type": "channel",
        "noteNumber": 69,
        "velocity": 64,
        "subtype": "noteOn"
      },
      {
        "deltaTime": 256,
        "channel": 1,
        "type": "channel",
        "subtype": "noteOff",
        "noteNumber": 69,
        "velocity": 0
      },
      {
        "deltaTime": 0,
        "channel": 1,
        "type": "channel",
        "noteNumber": 67,
        "velocity": 64,
        "subtype": "noteOn"
      },
      {
        "deltaTime": 256,
        "channel": 1,
        "type": "channel",
        "subtype": "noteOff",
        "noteNumber": 67,
        "velocity": 0
      },
      {
        "deltaTime": 0,
        "channel": 1,
        "type": "channel",
        "noteNumber": 67,
        "velocity": 64,
        "subtype": "noteOn"
      },
      {
        "deltaTime": 256,
        "channel": 1,
        "type": "channel",
        "subtype": "noteOff",
        "noteNumber": 67,
        "velocity": 0
      },
      {
        "deltaTime": 768,
        "channel": 1,
        "type": "channel",
        "noteNumber": 72,
        "velocity": 64,
        "subtype": "noteOn"
      },
      {
        "deltaTime": 256,
        "channel": 1,
        "type": "channel",
        "subtype": "noteOff",
        "noteNumber": 72,
        "velocity": 0
      },
      {
        "deltaTime": 256,
        "channel": 1,
        "type": "channel",
        "noteNumber": 71,
        "velocity": 64,
        "subtype": "noteOn"
      },
      {
        "deltaTime": 768,
        "channel": 1,
        "type": "channel",
        "subtype": "noteOff",
        "noteNumber": 71,
        "velocity": 0
      },
      {
        "deltaTime": 0,
        "channel": 1,
        "type": "channel",
        "noteNumber": 69,
        "velocity": 64,
        "subtype": "noteOn"
      },
      {
        "deltaTime": 768,
        "channel": 1,
        "type": "channel",
        "subtype": "noteOff",
        "noteNumber": 69,
        "velocity": 0
      },
      {
        "deltaTime": 0,
        "channel": 1,
        "type": "channel",
        "noteNumber": 69,
        "velocity": 64,
        "subtype": "noteOn"
      },
      {
        "deltaTime": 256,
        "channel": 1,
        "type": "channel",
        "subtype": "noteOff",
        "noteNumber": 69,
        "velocity": 0
      },
      {
        "deltaTime": 0,
        "channel": 1,
        "type": "channel",
        "noteNumber": 69,
        "velocity": 64,
        "subtype": "noteOn"
      },
      {
        "deltaTime": 256,
        "channel": 1,
        "type": "channel",
        "subtype": "noteOff",
        "noteNumber": 69,
        "velocity": 0
      },
      {
        "deltaTime": 0,
        "channel": 1,
        "type": "channel",
        "noteNumber": 67,
        "velocity": 64,
        "subtype": "noteOn"
      },
      {
        "deltaTime": 256,
        "channel": 1,
        "type": "channel",
        "subtype": "noteOff",
        "noteNumber": 67,
        "velocity": 0
      },
      {
        "deltaTime": 0,
        "channel": 1,
        "type": "channel",
        "noteNumber": 66,
        "velocity": 64,
        "subtype": "noteOn"
      },
      {
        "deltaTime": 512,
        "channel": 1,
        "type": "channel",
        "subtype": "noteOff",
        "noteNumber": 66,
        "velocity": 0
      },
      {
        "deltaTime": 0,
        "channel": 1,
        "type": "channel",
        "noteNumber": 66,
        "velocity": 64,
        "subtype": "noteOn"
      },
      {
        "deltaTime": 768,
        "channel": 1,
        "type": "channel",
        "subtype": "noteOff",
        "noteNumber": 66,
        "velocity": 0
      },
      {
        "deltaTime": 0,
        "channel": 1,
        "type": "channel",
        "noteNumber": 62,
        "velocity": 64,
        "subtype": "noteOn"
      },
      {
        "deltaTime": 256,
        "channel": 1,
        "type": "channel",
        "subtype": "noteOff",
        "noteNumber": 62,
        "velocity": 0
      },
      {
        "deltaTime": 0,
        "channel": 1,
        "type": "channel",
        "noteNumber": 71,
        "velocity": 64,
        "subtype": "noteOn"
      },
      {
        "deltaTime": 512,
        "channel": 1,
        "type": "channel",
        "subtype": "noteOff",
        "noteNumber": 71,
        "velocity": 0
      },
      {
        "deltaTime": 0,
        "channel": 1,
        "type": "channel",
        "noteNumber": 71,
        "velocity": 64,
        "subtype": "noteOn"
      },
      {
        "deltaTime": 512,
        "channel": 1,
        "type": "channel",
        "subtype": "noteOff",
        "noteNumber": 71,
        "velocity": 0
      },
      {
        "deltaTime": 0,
        "channel": 1,
        "type": "channel",
        "noteNumber": 71,
        "velocity": 64,
        "subtype": "noteOn"
      },
      {
        "deltaTime": 768,
        "channel": 1,
        "type": "channel",
        "subtype": "noteOff",
        "noteNumber": 71,
        "velocity": 0
      },
      {
        "deltaTime": 0,
        "channel": 1,
        "type": "channel",
        "noteNumber": 67,
        "velocity": 64,
        "subtype": "noteOn"
      },
      {
        "deltaTime": 256,
        "channel": 1,
        "type": "channel",
        "subtype": "noteOff",
        "noteNumber": 67,
        "velocity": 0
      },
      {
        "deltaTime": 512,
        "channel": 1,
        "type": "channel",
        "noteNumber": 69,
        "velocity": 64,
        "subtype": "noteOn"
      },
      {
        "deltaTime": 256,
        "channel": 1,
        "type": "channel",
        "subtype": "noteOff",
        "noteNumber": 69,
        "velocity": 0
      },
      {
        "deltaTime": 0,
        "channel": 1,
        "type": "channel",
        "noteNumber": 67,
        "velocity": 64,
        "subtype": "noteOn"
      },
      {
        "deltaTime": 256,
        "channel": 1,
        "type": "channel",
        "subtype": "noteOff",
        "noteNumber": 67,
        "velocity": 0
      },
      {
        "deltaTime": 2048,
        "channel": 1,
        "type": "channel",
        "noteNumber": 62,
        "velocity": 64,
        "subtype": "noteOn"
      },
      {
        "deltaTime": 0,
        "channel": 1,
        "type": "channel",
        "noteNumber": 66,
        "velocity": 64,
        "subtype": "noteOn"
      },
      {
        "deltaTime": 1024,
        "channel": 1,
        "type": "channel",
        "subtype": "noteOff",
        "noteNumber": 62,
        "velocity": 0
      },
      {
        "deltaTime": 0,
        "channel": 1,
        "type": "channel",
        "subtype": "noteOff",
        "noteNumber": 66,
        "velocity": 0
      },
      {
        "deltaTime": 0,
        "channel": 1,
        "type": "channel",
        "noteNumber": 62,
        "velocity": 64,
        "subtype": "noteOn"
      },
      {
        "deltaTime": 0,
        "channel": 1,
        "type": "channel",
        "noteNumber": 66,
        "velocity": 64,
        "subtype": "noteOn"
      },
      {
        "deltaTime": 1024,
        "channel": 1,
        "type": "channel",
        "subtype": "noteOff",
        "noteNumber": 62,
        "velocity": 0
      },
      {
        "deltaTime": 0,
        "channel": 1,
        "type": "channel",
        "subtype": "noteOff",
        "noteNumber": 66,
        "velocity": 0
      },
      {
        "deltaTime": 0,
        "channel": 1,
        "type": "channel",
        "noteNumber": 62,
        "velocity": 64,
        "subtype": "noteOn"
      },
      {
        "deltaTime": 0,
        "channel": 1,
        "type": "channel",
        "noteNumber": 66,
        "velocity": 64,
        "subtype": "noteOn"
      },
      {
        "deltaTime": 512,
        "channel": 1,
        "type": "channel",
        "subtype": "noteOff",
        "noteNumber": 62,
        "velocity": 0
      },
      {
        "deltaTime": 0,
        "channel": 1,
        "type": "channel",
        "subtype": "noteOff",
        "noteNumber": 66,
        "velocity": 0
      },
      {
        "deltaTime": 0,
        "channel": 1,
        "type": "channel",
        "noteNumber": 71,
        "velocity": 64,
        "subtype": "noteOn"
      },
      {
        "deltaTime": 256,
        "channel": 1,
        "type": "channel",
        "subtype": "noteOff",
        "noteNumber": 71,
        "velocity": 0
      },
      {
        "deltaTime": 0,
        "channel": 1,
        "type": "channel",
        "noteNumber": 71,
        "velocity": 64,
        "subtype": "noteOn"
      },
      {
        "deltaTime": 256,
        "channel": 1,
        "type": "channel",
        "subtype": "noteOff",
        "noteNumber": 71,
        "velocity": 0
      },
      {
        "deltaTime": 0,
        "channel": 1,
        "type": "channel",
        "noteNumber": 71,
        "velocity": 64,
        "subtype": "noteOn"
      },
      {
        "deltaTime": 512,
        "channel": 1,
        "type": "channel",
        "subtype": "noteOff",
        "noteNumber": 71,
        "velocity": 0
      },
      {
        "deltaTime": 0,
        "channel": 1,
        "type": "channel",
        "noteNumber": 69,
        "velocity": 64,
        "subtype": "noteOn"
      },
      {
        "deltaTime": 256,
        "channel": 1,
        "type": "channel",
        "subtype": "noteOff",
        "noteNumber": 69,
        "velocity": 0
      },
      {
        "deltaTime": 0,
        "channel": 1,
        "type": "channel",
        "noteNumber": 67,
        "velocity": 64,
        "subtype": "noteOn"
      },
      {
        "deltaTime": 256,
        "channel": 1,
        "type": "channel",
        "subtype": "noteOff",
        "noteNumber": 67,
        "velocity": 0
      },
      {
        "deltaTime": 0,
        "channel": 1,
        "type": "channel",
        "noteNumber": 67,
        "velocity": 64,
        "subtype": "noteOn"
      },
      {
        "deltaTime": 512,
        "channel": 1,
        "type": "channel",
        "subtype": "noteOff",
        "noteNumber": 67,
        "velocity": 0
      },
      {
        "deltaTime": 0,
        "channel": 1,
        "type": "channel",
        "noteNumber": 67,
        "velocity": 64,
        "subtype": "noteOn"
      },
      {
        "deltaTime": 256,
        "channel": 1,
        "type": "channel",
        "subtype": "noteOff",
        "noteNumber": 67,
        "velocity": 0
      },
      {
        "deltaTime": 0,
        "channel": 1,
        "type": "channel",
        "noteNumber": 64,
        "velocity": 64,
        "subtype": "noteOn"
      },
      {
        "deltaTime": 256,
        "channel": 1,
        "type": "channel",
        "subtype": "noteOff",
        "noteNumber": 64,
        "velocity": 0
      },
      {
        "deltaTime": 0,
        "channel": 1,
        "type": "channel",
        "noteNumber": 67,
        "velocity": 64,
        "subtype": "noteOn"
      },
      {
        "deltaTime": 256,
        "channel": 1,
        "type": "channel",
        "subtype": "noteOff",
        "noteNumber": 67,
        "velocity": 0
      },
      {
        "deltaTime": 0,
        "channel": 1,
        "type": "channel",
        "noteNumber": 64,
        "velocity": 64,
        "subtype": "noteOn"
      },
      {
        "deltaTime": 256,
        "channel": 1,
        "type": "channel",
        "subtype": "noteOff",
        "noteNumber": 64,
        "velocity": 0
      },
      {
        "deltaTime": 0,
        "channel": 1,
        "type": "channel",
        "noteNumber": 67,
        "velocity": 64,
        "subtype": "noteOn"
      },
      {
        "deltaTime": 512,
        "channel": 1,
        "type": "channel",
        "subtype": "noteOff",
        "noteNumber": 67,
        "velocity": 0
      },
      {
        "deltaTime": 1024,
        "channel": 1,
        "type": "channel",
        "noteNumber": 69,
        "velocity": 64,
        "subtype": "noteOn"
      },
      {
        "deltaTime": 256,
        "channel": 1,
        "type": "channel",
        "subtype": "noteOff",
        "noteNumber": 69,
        "velocity": 0
      },
      {
        "deltaTime": 0,
        "channel": 1,
        "type": "channel",
        "noteNumber": 71,
        "velocity": 64,
        "subtype": "noteOn"
      },
      {
        "deltaTime": 256,
        "channel": 1,
        "type": "channel",
        "subtype": "noteOff",
        "noteNumber": 71,
        "velocity": 0
      },
      {
        "deltaTime": 0,
        "channel": 1,
        "type": "channel",
        "noteNumber": 69,
        "velocity": 64,
        "subtype": "noteOn"
      },
      {
        "deltaTime": 256,
        "channel": 1,
        "type": "channel",
        "subtype": "noteOff",
        "noteNumber": 69,
        "velocity": 0
      },
      {
        "deltaTime": 0,
        "channel": 1,
        "type": "channel",
        "noteNumber": 67,
        "velocity": 64,
        "subtype": "noteOn"
      },
      {
        "deltaTime": 256,
        "channel": 1,
        "type": "channel",
        "subtype": "noteOff",
        "noteNumber": 67,
        "velocity": 0
      },
      {
        "deltaTime": 0,
        "channel": 1,
        "type": "channel",
        "noteNumber": 69,
        "velocity": 64,
        "subtype": "noteOn"
      },
      {
        "deltaTime": 512,
        "channel": 1,
        "type": "channel",
        "subtype": "noteOff",
        "noteNumber": 69,
        "velocity": 0
      },
      {
        "deltaTime": 0,
        "channel": 1,
        "type": "channel",
        "noteNumber": 69,
        "velocity": 64,
        "subtype": "noteOn"
      },
      {
        "deltaTime": 256,
        "channel": 1,
        "type": "channel",
        "subtype": "noteOff",
        "noteNumber": 69,
        "velocity": 0
      },
      {
        "deltaTime": 0,
        "channel": 1,
        "type": "channel",
        "noteNumber": 67,
        "velocity": 64,
        "subtype": "noteOn"
      },
      {
        "deltaTime": 256,
        "channel": 1,
        "type": "channel",
        "subtype": "noteOff",
        "noteNumber": 67,
        "velocity": 0
      },
      {
        "deltaTime": 0,
        "channel": 1,
        "type": "channel",
        "noteNumber": 71,
        "velocity": 64,
        "subtype": "noteOn"
      },
      {
        "deltaTime": 512,
        "channel": 1,
        "type": "channel",
        "subtype": "noteOff",
        "noteNumber": 71,
        "velocity": 0
      },
      {
        "deltaTime": 0,
        "channel": 1,
        "type": "channel",
        "noteNumber": 69,
        "velocity": 64,
        "subtype": "noteOn"
      },
      {
        "deltaTime": 256,
        "channel": 1,
        "type": "channel",
        "subtype": "noteOff",
        "noteNumber": 69,
        "velocity": 0
      },
      {
        "deltaTime": 0,
        "channel": 1,
        "type": "channel",
        "noteNumber": 69,
        "velocity": 64,
        "subtype": "noteOn"
      },
      {
        "deltaTime": 256,
        "channel": 1,
        "type": "channel",
        "subtype": "noteOff",
        "noteNumber": 69,
        "velocity": 0
      },
      {
        "deltaTime": 256,
        "channel": 1,
        "type": "channel",
        "noteNumber": 67,
        "velocity": 64,
        "subtype": "noteOn"
      },
      {
        "deltaTime": 768,
        "channel": 1,
        "type": "channel",
        "subtype": "noteOff",
        "noteNumber": 67,
        "velocity": 0
      },
      {
        "deltaTime": 0,
        "channel": 1,
        "type": "channel",
        "noteNumber": 69,
        "velocity": 64,
        "subtype": "noteOn"
      },
      {
        "deltaTime": 256,
        "channel": 1,
        "type": "channel",
        "subtype": "noteOff",
        "noteNumber": 69,
        "velocity": 0
      },
      {
        "deltaTime": 0,
        "channel": 1,
        "type": "channel",
        "noteNumber": 71,
        "velocity": 64,
        "subtype": "noteOn"
      },
      {
        "deltaTime": 256,
        "channel": 1,
        "type": "channel",
        "subtype": "noteOff",
        "noteNumber": 71,
        "velocity": 0
      },
      {
        "deltaTime": 0,
        "channel": 1,
        "type": "channel",
        "noteNumber": 69,
        "velocity": 64,
        "subtype": "noteOn"
      },
      {
        "deltaTime": 256,
        "channel": 1,
        "type": "channel",
        "subtype": "noteOff",
        "noteNumber": 69,
        "velocity": 0
      },
      {
        "deltaTime": 0,
        "channel": 1,
        "type": "channel",
        "noteNumber": 67,
        "velocity": 64,
        "subtype": "noteOn"
      },
      {
        "deltaTime": 256,
        "channel": 1,
        "type": "channel",
        "subtype": "noteOff",
        "noteNumber": 67,
        "velocity": 0
      },
      {
        "deltaTime": 0,
        "channel": 1,
        "type": "channel",
        "noteNumber": 69,
        "velocity": 64,
        "subtype": "noteOn"
      },
      {
        "deltaTime": 256,
        "channel": 1,
        "type": "channel",
        "subtype": "noteOff",
        "noteNumber": 69,
        "velocity": 0
      },
      {
        "deltaTime": 0,
        "channel": 1,
        "type": "channel",
        "noteNumber": 67,
        "velocity": 64,
        "subtype": "noteOn"
      },
      {
        "deltaTime": 256,
        "channel": 1,
        "type": "channel",
        "subtype": "noteOff",
        "noteNumber": 67,
        "velocity": 0
      },
      {
        "deltaTime": 0,
        "channel": 1,
        "type": "channel",
        "noteNumber": 64,
        "velocity": 64,
        "subtype": "noteOn"
      },
      {
        "deltaTime": 256,
        "channel": 1,
        "type": "channel",
        "subtype": "noteOff",
        "noteNumber": 64,
        "velocity": 0
      },
      {
        "deltaTime": 0,
        "channel": 1,
        "type": "channel",
        "noteNumber": 64,
        "velocity": 64,
        "subtype": "noteOn"
      },
      {
        "deltaTime": 256,
        "channel": 1,
        "type": "channel",
        "subtype": "noteOff",
        "noteNumber": 64,
        "velocity": 0
      },
      {
        "deltaTime": 0,
        "channel": 1,
        "type": "channel",
        "noteNumber": 64,
        "velocity": 64,
        "subtype": "noteOn"
      },
      {
        "deltaTime": 256,
        "channel": 1,
        "type": "channel",
        "subtype": "noteOff",
        "noteNumber": 64,
        "velocity": 0
      },
      {
        "deltaTime": 0,
        "channel": 1,
        "type": "channel",
        "noteNumber": 62,
        "velocity": 64,
        "subtype": "noteOn"
      },
      {
        "deltaTime": 256,
        "channel": 1,
        "type": "channel",
        "subtype": "noteOff",
        "noteNumber": 62,
        "velocity": 0
      },
      {
        "deltaTime": 0,
        "channel": 1,
        "type": "channel",
        "noteNumber": 67,
        "velocity": 64,
        "subtype": "noteOn"
      },
      {
        "deltaTime": 512,
        "channel": 1,
        "type": "channel",
        "subtype": "noteOff",
        "noteNumber": 67,
        "velocity": 0
      },
      {
        "deltaTime": 2048,
        "channel": 1,
        "type": "channel",
        "noteNumber": 62,
        "velocity": 64,
        "subtype": "noteOn"
      },
      {
        "deltaTime": 0,
        "channel": 1,
        "type": "channel",
        "noteNumber": 66,
        "velocity": 64,
        "subtype": "noteOn"
      },
      {
        "deltaTime": 1024,
        "channel": 1,
        "type": "channel",
        "subtype": "noteOff",
        "noteNumber": 62,
        "velocity": 0
      },
      {
        "deltaTime": 0,
        "channel": 1,
        "type": "channel",
        "subtype": "noteOff",
        "noteNumber": 66,
        "velocity": 0
      },
      {
        "deltaTime": 0,
        "channel": 1,
        "type": "channel",
        "noteNumber": 62,
        "velocity": 64,
        "subtype": "noteOn"
      },
      {
        "deltaTime": 0,
        "channel": 1,
        "type": "channel",
        "noteNumber": 66,
        "velocity": 64,
        "subtype": "noteOn"
      },
      {
        "deltaTime": 1024,
        "channel": 1,
        "type": "channel",
        "subtype": "noteOff",
        "noteNumber": 62,
        "velocity": 0
      },
      {
        "deltaTime": 0,
        "channel": 1,
        "type": "channel",
        "subtype": "noteOff",
        "noteNumber": 66,
        "velocity": 0
      },
      {
        "deltaTime": 0,
        "channel": 1,
        "type": "channel",
        "noteNumber": 62,
        "velocity": 64,
        "subtype": "noteOn"
      },
      {
        "deltaTime": 0,
        "channel": 1,
        "type": "channel",
        "noteNumber": 66,
        "velocity": 64,
        "subtype": "noteOn"
      },
      {
        "deltaTime": 512,
        "channel": 1,
        "type": "channel",
        "subtype": "noteOff",
        "noteNumber": 62,
        "velocity": 0
      },
      {
        "deltaTime": 0,
        "channel": 1,
        "type": "channel",
        "subtype": "noteOff",
        "noteNumber": 66,
        "velocity": 0
      },
      {
        "deltaTime": 0,
        "channel": 1,
        "type": "channel",
        "noteNumber": 71,
        "velocity": 64,
        "subtype": "noteOn"
      },
      {
        "deltaTime": 256,
        "channel": 1,
        "type": "channel",
        "subtype": "noteOff",
        "noteNumber": 71,
        "velocity": 0
      },
      {
        "deltaTime": 0,
        "channel": 1,
        "type": "channel",
        "noteNumber": 71,
        "velocity": 64,
        "subtype": "noteOn"
      },
      {
        "deltaTime": 256,
        "channel": 1,
        "type": "channel",
        "subtype": "noteOff",
        "noteNumber": 71,
        "velocity": 0
      },
      {
        "deltaTime": 0,
        "channel": 1,
        "type": "channel",
        "noteNumber": 71,
        "velocity": 64,
        "subtype": "noteOn"
      },
      {
        "deltaTime": 512,
        "channel": 1,
        "type": "channel",
        "subtype": "noteOff",
        "noteNumber": 71,
        "velocity": 0
      },
      {
        "deltaTime": 0,
        "channel": 1,
        "type": "channel",
        "noteNumber": 69,
        "velocity": 64,
        "subtype": "noteOn"
      },
      {
        "deltaTime": 256,
        "channel": 1,
        "type": "channel",
        "subtype": "noteOff",
        "noteNumber": 69,
        "velocity": 0
      },
      {
        "deltaTime": 0,
        "channel": 1,
        "type": "channel",
        "noteNumber": 67,
        "velocity": 64,
        "subtype": "noteOn"
      },
      {
        "deltaTime": 256,
        "channel": 1,
        "type": "channel",
        "subtype": "noteOff",
        "noteNumber": 67,
        "velocity": 0
      },
      {
        "deltaTime": 0,
        "channel": 1,
        "type": "channel",
        "noteNumber": 67,
        "velocity": 64,
        "subtype": "noteOn"
      },
      {
        "deltaTime": 512,
        "channel": 1,
        "type": "channel",
        "subtype": "noteOff",
        "noteNumber": 67,
        "velocity": 0
      },
      {
        "deltaTime": 0,
        "channel": 1,
        "type": "channel",
        "noteNumber": 67,
        "velocity": 64,
        "subtype": "noteOn"
      },
      {
        "deltaTime": 256,
        "channel": 1,
        "type": "channel",
        "subtype": "noteOff",
        "noteNumber": 67,
        "velocity": 0
      },
      {
        "deltaTime": 0,
        "channel": 1,
        "type": "channel",
        "noteNumber": 64,
        "velocity": 64,
        "subtype": "noteOn"
      },
      {
        "deltaTime": 256,
        "channel": 1,
        "type": "channel",
        "subtype": "noteOff",
        "noteNumber": 64,
        "velocity": 0
      },
      {
        "deltaTime": 0,
        "channel": 1,
        "type": "channel",
        "noteNumber": 67,
        "velocity": 64,
        "subtype": "noteOn"
      },
      {
        "deltaTime": 256,
        "channel": 1,
        "type": "channel",
        "subtype": "noteOff",
        "noteNumber": 67,
        "velocity": 0
      },
      {
        "deltaTime": 0,
        "channel": 1,
        "type": "channel",
        "noteNumber": 64,
        "velocity": 64,
        "subtype": "noteOn"
      },
      {
        "deltaTime": 256,
        "channel": 1,
        "type": "channel",
        "subtype": "noteOff",
        "noteNumber": 64,
        "velocity": 0
      },
      {
        "deltaTime": 0,
        "channel": 1,
        "type": "channel",
        "noteNumber": 67,
        "velocity": 64,
        "subtype": "noteOn"
      },
      {
        "deltaTime": 512,
        "channel": 1,
        "type": "channel",
        "subtype": "noteOff",
        "noteNumber": 67,
        "velocity": 0
      },
      {
        "deltaTime": 1024,
        "channel": 1,
        "type": "channel",
        "noteNumber": 69,
        "velocity": 64,
        "subtype": "noteOn"
      },
      {
        "deltaTime": 256,
        "channel": 1,
        "type": "channel",
        "subtype": "noteOff",
        "noteNumber": 69,
        "velocity": 0
      },
      {
        "deltaTime": 0,
        "channel": 1,
        "type": "channel",
        "noteNumber": 71,
        "velocity": 64,
        "subtype": "noteOn"
      },
      {
        "deltaTime": 256,
        "channel": 1,
        "type": "channel",
        "subtype": "noteOff",
        "noteNumber": 71,
        "velocity": 0
      },
      {
        "deltaTime": 0,
        "channel": 1,
        "type": "channel",
        "noteNumber": 69,
        "velocity": 64,
        "subtype": "noteOn"
      },
      {
        "deltaTime": 256,
        "channel": 1,
        "type": "channel",
        "subtype": "noteOff",
        "noteNumber": 69,
        "velocity": 0
      },
      {
        "deltaTime": 0,
        "channel": 1,
        "type": "channel",
        "noteNumber": 67,
        "velocity": 64,
        "subtype": "noteOn"
      },
      {
        "deltaTime": 256,
        "channel": 1,
        "type": "channel",
        "subtype": "noteOff",
        "noteNumber": 67,
        "velocity": 0
      },
      {
        "deltaTime": 0,
        "channel": 1,
        "type": "channel",
        "noteNumber": 69,
        "velocity": 64,
        "subtype": "noteOn"
      },
      {
        "deltaTime": 512,
        "channel": 1,
        "type": "channel",
        "subtype": "noteOff",
        "noteNumber": 69,
        "velocity": 0
      },
      {
        "deltaTime": 0,
        "channel": 1,
        "type": "channel",
        "noteNumber": 69,
        "velocity": 64,
        "subtype": "noteOn"
      },
      {
        "deltaTime": 256,
        "channel": 1,
        "type": "channel",
        "subtype": "noteOff",
        "noteNumber": 69,
        "velocity": 0
      },
      {
        "deltaTime": 0,
        "channel": 1,
        "type": "channel",
        "noteNumber": 67,
        "velocity": 64,
        "subtype": "noteOn"
      },
      {
        "deltaTime": 256,
        "channel": 1,
        "type": "channel",
        "subtype": "noteOff",
        "noteNumber": 67,
        "velocity": 0
      },
      {
        "deltaTime": 0,
        "channel": 1,
        "type": "channel",
        "noteNumber": 71,
        "velocity": 64,
        "subtype": "noteOn"
      },
      {
        "deltaTime": 512,
        "channel": 1,
        "type": "channel",
        "subtype": "noteOff",
        "noteNumber": 71,
        "velocity": 0
      },
      {
        "deltaTime": 0,
        "channel": 1,
        "type": "channel",
        "noteNumber": 69,
        "velocity": 64,
        "subtype": "noteOn"
      },
      {
        "deltaTime": 256,
        "channel": 1,
        "type": "channel",
        "subtype": "noteOff",
        "noteNumber": 69,
        "velocity": 0
      },
      {
        "deltaTime": 0,
        "channel": 1,
        "type": "channel",
        "noteNumber": 69,
        "velocity": 64,
        "subtype": "noteOn"
      },
      {
        "deltaTime": 256,
        "channel": 1,
        "type": "channel",
        "subtype": "noteOff",
        "noteNumber": 69,
        "velocity": 0
      },
      {
        "deltaTime": 256,
        "channel": 1,
        "type": "channel",
        "noteNumber": 67,
        "velocity": 64,
        "subtype": "noteOn"
      },
      {
        "deltaTime": 768,
        "channel": 1,
        "type": "channel",
        "subtype": "noteOff",
        "noteNumber": 67,
        "velocity": 0
      },
      {
        "deltaTime": 0,
        "channel": 1,
        "type": "channel",
        "noteNumber": 69,
        "velocity": 64,
        "subtype": "noteOn"
      },
      {
        "deltaTime": 256,
        "channel": 1,
        "type": "channel",
        "subtype": "noteOff",
        "noteNumber": 69,
        "velocity": 0
      },
      {
        "deltaTime": 0,
        "channel": 1,
        "type": "channel",
        "noteNumber": 71,
        "velocity": 64,
        "subtype": "noteOn"
      },
      {
        "deltaTime": 256,
        "channel": 1,
        "type": "channel",
        "subtype": "noteOff",
        "noteNumber": 71,
        "velocity": 0
      },
      {
        "deltaTime": 0,
        "channel": 1,
        "type": "channel",
        "noteNumber": 69,
        "velocity": 64,
        "subtype": "noteOn"
      },
      {
        "deltaTime": 256,
        "channel": 1,
        "type": "channel",
        "subtype": "noteOff",
        "noteNumber": 69,
        "velocity": 0
      },
      {
        "deltaTime": 0,
        "channel": 1,
        "type": "channel",
        "noteNumber": 67,
        "velocity": 64,
        "subtype": "noteOn"
      },
      {
        "deltaTime": 256,
        "channel": 1,
        "type": "channel",
        "subtype": "noteOff",
        "noteNumber": 67,
        "velocity": 0
      },
      {
        "deltaTime": 0,
        "channel": 1,
        "type": "channel",
        "noteNumber": 69,
        "velocity": 64,
        "subtype": "noteOn"
      },
      {
        "deltaTime": 256,
        "channel": 1,
        "type": "channel",
        "subtype": "noteOff",
        "noteNumber": 69,
        "velocity": 0
      },
      {
        "deltaTime": 0,
        "channel": 1,
        "type": "channel",
        "noteNumber": 67,
        "velocity": 64,
        "subtype": "noteOn"
      },
      {
        "deltaTime": 256,
        "channel": 1,
        "type": "channel",
        "subtype": "noteOff",
        "noteNumber": 67,
        "velocity": 0
      },
      {
        "deltaTime": 0,
        "channel": 1,
        "type": "channel",
        "noteNumber": 64,
        "velocity": 64,
        "subtype": "noteOn"
      },
      {
        "deltaTime": 256,
        "channel": 1,
        "type": "channel",
        "subtype": "noteOff",
        "noteNumber": 64,
        "velocity": 0
      },
      {
        "deltaTime": 0,
        "channel": 1,
        "type": "channel",
        "noteNumber": 64,
        "velocity": 64,
        "subtype": "noteOn"
      },
      {
        "deltaTime": 256,
        "channel": 1,
        "type": "channel",
        "subtype": "noteOff",
        "noteNumber": 64,
        "velocity": 0
      },
      {
        "deltaTime": 0,
        "channel": 1,
        "type": "channel",
        "noteNumber": 64,
        "velocity": 64,
        "subtype": "noteOn"
      },
      {
        "deltaTime": 256,
        "channel": 1,
        "type": "channel",
        "subtype": "noteOff",
        "noteNumber": 64,
        "velocity": 0
      },
      {
        "deltaTime": 0,
        "channel": 1,
        "type": "channel",
        "noteNumber": 62,
        "velocity": 64,
        "subtype": "noteOn"
      },
      {
        "deltaTime": 256,
        "channel": 1,
        "type": "channel",
        "subtype": "noteOff",
        "noteNumber": 62,
        "velocity": 0
      },
      {
        "deltaTime": 0,
        "channel": 1,
        "type": "channel",
        "noteNumber": 67,
        "velocity": 64,
        "subtype": "noteOn"
      },
      {
        "deltaTime": 512,
        "channel": 1,
        "type": "channel",
        "subtype": "noteOff",
        "noteNumber": 67,
        "velocity": 0
      },
      {
        "deltaTime": 2048,
        "channel": 1,
        "type": "channel",
        "noteNumber": 62,
        "velocity": 64,
        "subtype": "noteOn"
      },
      {
        "deltaTime": 0,
        "channel": 1,
        "type": "channel",
        "noteNumber": 66,
        "velocity": 64,
        "subtype": "noteOn"
      },
      {
        "deltaTime": 1024,
        "channel": 1,
        "type": "channel",
        "subtype": "noteOff",
        "noteNumber": 62,
        "velocity": 0
      },
      {
        "deltaTime": 0,
        "channel": 1,
        "type": "channel",
        "subtype": "noteOff",
        "noteNumber": 66,
        "velocity": 0
      },
      {
        "deltaTime": 0,
        "channel": 1,
        "type": "channel",
        "noteNumber": 62,
        "velocity": 64,
        "subtype": "noteOn"
      },
      {
        "deltaTime": 0,
        "channel": 1,
        "type": "channel",
        "noteNumber": 66,
        "velocity": 64,
        "subtype": "noteOn"
      },
      {
        "deltaTime": 1024,
        "channel": 1,
        "type": "channel",
        "subtype": "noteOff",
        "noteNumber": 62,
        "velocity": 0
      },
      {
        "deltaTime": 0,
        "channel": 1,
        "type": "channel",
        "subtype": "noteOff",
        "noteNumber": 66,
        "velocity": 0
      },
      {
        "deltaTime": 0,
        "channel": 1,
        "type": "channel",
        "noteNumber": 62,
        "velocity": 64,
        "subtype": "noteOn"
      },
      {
        "deltaTime": 0,
        "channel": 1,
        "type": "channel",
        "noteNumber": 66,
        "velocity": 64,
        "subtype": "noteOn"
      },
      {
        "deltaTime": 1024,
        "channel": 1,
        "type": "channel",
        "subtype": "noteOff",
        "noteNumber": 62,
        "velocity": 0
      },
      {
        "deltaTime": 0,
        "channel": 1,
        "type": "channel",
        "subtype": "noteOff",
        "noteNumber": 66,
        "velocity": 0
      },
      {
        "deltaTime": 0,
        "channel": 1,
        "type": "channel",
        "noteNumber": 67,
        "velocity": 64,
        "subtype": "noteOn"
      },
      {
        "deltaTime": 512,
        "channel": 1,
        "type": "channel",
        "subtype": "noteOff",
        "noteNumber": 67,
        "velocity": 0
      },
      {
        "deltaTime": 0,
        "channel": 1,
        "type": "channel",
        "noteNumber": 69,
        "velocity": 64,
        "subtype": "noteOn"
      },
      {
        "deltaTime": 512,
        "channel": 1,
        "type": "channel",
        "subtype": "noteOff",
        "noteNumber": 69,
        "velocity": 0
      },
      {
        "deltaTime": 0,
        "channel": 1,
        "type": "channel",
        "noteNumber": 71,
        "velocity": 64,
        "subtype": "noteOn"
      },
      {
        "deltaTime": 1536,
        "channel": 1,
        "type": "channel",
        "subtype": "noteOff",
        "noteNumber": 71,
        "velocity": 0
      },
      {
        "deltaTime": 0,
        "channel": 1,
        "type": "channel",
        "noteNumber": 69,
        "velocity": 64,
        "subtype": "noteOn"
      },
      {
        "deltaTime": 256,
        "channel": 1,
        "type": "channel",
        "subtype": "noteOff",
        "noteNumber": 69,
        "velocity": 0
      },
      {
        "deltaTime": 0,
        "channel": 1,
        "type": "channel",
        "noteNumber": 71,
        "velocity": 64,
        "subtype": "noteOn"
      },
      {
        "deltaTime": 256,
        "channel": 1,
        "type": "channel",
        "subtype": "noteOff",
        "noteNumber": 71,
        "velocity": 0
      },
      {
        "deltaTime": 0,
        "channel": 1,
        "type": "channel",
        "noteNumber": 72,
        "velocity": 64,
        "subtype": "noteOn"
      },
      {
        "deltaTime": 1024,
        "channel": 1,
        "type": "channel",
        "subtype": "noteOff",
        "noteNumber": 72,
        "velocity": 0
      },
      {
        "deltaTime": 0,
        "channel": 1,
        "type": "channel",
        "noteNumber": 71,
        "velocity": 64,
        "subtype": "noteOn"
      },
      {
        "deltaTime": 1024,
        "channel": 1,
        "type": "channel",
        "subtype": "noteOff",
        "noteNumber": 71,
        "velocity": 0
      },
      {
        "deltaTime": 0,
        "channel": 1,
        "type": "channel",
        "noteNumber": 69,
        "velocity": 64,
        "subtype": "noteOn"
      },
      {
        "deltaTime": 1024,
        "channel": 1,
        "type": "channel",
        "subtype": "noteOff",
        "noteNumber": 69,
        "velocity": 0
      },
      {
        "deltaTime": 0,
        "channel": 1,
        "type": "channel",
        "noteNumber": 62,
        "velocity": 64,
        "subtype": "noteOn"
      },
      {
        "deltaTime": 0,
        "channel": 1,
        "type": "channel",
        "noteNumber": 66,
        "velocity": 64,
        "subtype": "noteOn"
      },
      {
        "deltaTime": 1024,
        "channel": 1,
        "type": "channel",
        "subtype": "noteOff",
        "noteNumber": 62,
        "velocity": 0
      },
      {
        "deltaTime": 0,
        "channel": 1,
        "type": "channel",
        "subtype": "noteOff",
        "noteNumber": 66,
        "velocity": 0
      },
      {
        "deltaTime": 0,
        "channel": 1,
        "type": "channel",
        "noteNumber": 62,
        "velocity": 64,
        "subtype": "noteOn"
      },
      {
        "deltaTime": 0,
        "channel": 1,
        "type": "channel",
        "noteNumber": 66,
        "velocity": 64,
        "subtype": "noteOn"
      },
      {
        "deltaTime": 1024,
        "channel": 1,
        "type": "channel",
        "subtype": "noteOff",
        "noteNumber": 62,
        "velocity": 0
      },
      {
        "deltaTime": 0,
        "channel": 1,
        "type": "channel",
        "subtype": "noteOff",
        "noteNumber": 66,
        "velocity": 0
      },
      {
        "deltaTime": 0,
        "channel": 1,
        "type": "channel",
        "noteNumber": 67,
        "velocity": 64,
        "subtype": "noteOn"
      },
      {
        "deltaTime": 512,
        "channel": 1,
        "type": "channel",
        "subtype": "noteOff",
        "noteNumber": 67,
        "velocity": 0
      },
      {
        "deltaTime": 0,
        "channel": 1,
        "type": "channel",
        "noteNumber": 69,
        "velocity": 64,
        "subtype": "noteOn"
      },
      {
        "deltaTime": 512,
        "channel": 1,
        "type": "channel",
        "subtype": "noteOff",
        "noteNumber": 69,
        "velocity": 0
      },
      {
        "deltaTime": 0,
        "channel": 1,
        "type": "channel",
        "noteNumber": 71,
        "velocity": 64,
        "subtype": "noteOn"
      },
      {
        "deltaTime": 1536,
        "channel": 1,
        "type": "channel",
        "subtype": "noteOff",
        "noteNumber": 71,
        "velocity": 0
      },
      {
        "deltaTime": 0,
        "channel": 1,
        "type": "channel",
        "noteNumber": 69,
        "velocity": 64,
        "subtype": "noteOn"
      },
      {
        "deltaTime": 256,
        "channel": 1,
        "type": "channel",
        "subtype": "noteOff",
        "noteNumber": 69,
        "velocity": 0
      },
      {
        "deltaTime": 0,
        "channel": 1,
        "type": "channel",
        "noteNumber": 71,
        "velocity": 64,
        "subtype": "noteOn"
      },
      {
        "deltaTime": 256,
        "channel": 1,
        "type": "channel",
        "subtype": "noteOff",
        "noteNumber": 71,
        "velocity": 0
      },
      {
        "deltaTime": 0,
        "channel": 1,
        "type": "channel",
        "noteNumber": 72,
        "velocity": 64,
        "subtype": "noteOn"
      },
      {
        "deltaTime": 1024,
        "channel": 1,
        "type": "channel",
        "subtype": "noteOff",
        "noteNumber": 72,
        "velocity": 0
      },
      {
        "deltaTime": 0,
        "channel": 1,
        "type": "channel",
        "noteNumber": 71,
        "velocity": 64,
        "subtype": "noteOn"
      },
      {
        "deltaTime": 1024,
        "channel": 1,
        "type": "channel",
        "subtype": "noteOff",
        "noteNumber": 71,
        "velocity": 0
      },
      {
        "deltaTime": 0,
        "channel": 1,
        "type": "channel",
        "noteNumber": 69,
        "velocity": 64,
        "subtype": "noteOn"
      },
      {
        "deltaTime": 1024,
        "channel": 1,
        "type": "channel",
        "subtype": "noteOff",
        "noteNumber": 69,
        "velocity": 0
      },
      {
        "deltaTime": 0,
        "channel": 1,
        "type": "channel",
        "noteNumber": 62,
        "velocity": 64,
        "subtype": "noteOn"
      },
      {
        "deltaTime": 0,
        "channel": 1,
        "type": "channel",
        "noteNumber": 66,
        "velocity": 64,
        "subtype": "noteOn"
      },
      {
        "deltaTime": 1024,
        "channel": 1,
        "type": "channel",
        "subtype": "noteOff",
        "noteNumber": 62,
        "velocity": 0
      },
      {
        "deltaTime": 0,
        "channel": 1,
        "type": "channel",
        "subtype": "noteOff",
        "noteNumber": 66,
        "velocity": 0
      },
      {
        "deltaTime": 0,
        "channel": 1,
        "type": "channel",
        "noteNumber": 62,
        "velocity": 64,
        "subtype": "noteOn"
      },
      {
        "deltaTime": 0,
        "channel": 1,
        "type": "channel",
        "noteNumber": 66,
        "velocity": 64,
        "subtype": "noteOn"
      },
      {
        "deltaTime": 1024,
        "channel": 1,
        "type": "channel",
        "subtype": "noteOff",
        "noteNumber": 62,
        "velocity": 0
      },
      {
        "deltaTime": 0,
        "channel": 1,
        "type": "channel",
        "subtype": "noteOff",
        "noteNumber": 66,
        "velocity": 0
      },
      {
        "deltaTime": 0,
        "channel": 1,
        "type": "channel",
        "noteNumber": 74,
        "velocity": 64,
        "subtype": "noteOn"
      },
      {
        "deltaTime": 512,
        "channel": 1,
        "type": "channel",
        "subtype": "noteOff",
        "noteNumber": 74,
        "velocity": 0
      },
      {
        "deltaTime": 0,
        "channel": 1,
        "type": "channel",
        "noteNumber": 72,
        "velocity": 64,
        "subtype": "noteOn"
      },
      {
        "deltaTime": 512,
        "channel": 1,
        "type": "channel",
        "subtype": "noteOff",
        "noteNumber": 72,
        "velocity": 0
      },
      {
        "deltaTime": 0,
        "channel": 1,
        "type": "channel",
        "noteNumber": 71,
        "velocity": 64,
        "subtype": "noteOn"
      },
      {
        "deltaTime": 1536,
        "channel": 1,
        "type": "channel",
        "subtype": "noteOff",
        "noteNumber": 71,
        "velocity": 0
      },
      {
        "deltaTime": 0,
        "channel": 1,
        "type": "channel",
        "noteNumber": 69,
        "velocity": 64,
        "subtype": "noteOn"
      },
      {
        "deltaTime": 256,
        "channel": 1,
        "type": "channel",
        "subtype": "noteOff",
        "noteNumber": 69,
        "velocity": 0
      },
      {
        "deltaTime": 0,
        "channel": 1,
        "type": "channel",
        "noteNumber": 71,
        "velocity": 64,
        "subtype": "noteOn"
      },
      {
        "deltaTime": 256,
        "channel": 1,
        "type": "channel",
        "subtype": "noteOff",
        "noteNumber": 71,
        "velocity": 0
      },
      {
        "deltaTime": 0,
        "channel": 1,
        "type": "channel",
        "noteNumber": 72,
        "velocity": 64,
        "subtype": "noteOn"
      },
      {
        "deltaTime": 1024,
        "channel": 1,
        "type": "channel",
        "subtype": "noteOff",
        "noteNumber": 72,
        "velocity": 0
      },
      {
        "deltaTime": 0,
        "channel": 1,
        "type": "channel",
        "noteNumber": 64,
        "velocity": 64,
        "subtype": "noteOn"
      },
      {
        "deltaTime": 1024,
        "channel": 1,
        "type": "channel",
        "subtype": "noteOff",
        "noteNumber": 64,
        "velocity": 0
      },
      {
        "deltaTime": 0,
        "channel": 1,
        "type": "channel",
        "noteNumber": 66,
        "velocity": 64,
        "subtype": "noteOn"
      },
      {
        "deltaTime": 1024,
        "channel": 1,
        "type": "channel",
        "subtype": "noteOff",
        "noteNumber": 66,
        "velocity": 0
      },
      {
        "deltaTime": 0,
        "channel": 1,
        "type": "channel",
        "noteNumber": 62,
        "velocity": 64,
        "subtype": "noteOn"
      },
      {
        "deltaTime": 0,
        "channel": 1,
        "type": "channel",
        "noteNumber": 66,
        "velocity": 64,
        "subtype": "noteOn"
      },
      {
        "deltaTime": 1024,
        "channel": 1,
        "type": "channel",
        "subtype": "noteOff",
        "noteNumber": 62,
        "velocity": 0
      },
      {
        "deltaTime": 0,
        "channel": 1,
        "type": "channel",
        "subtype": "noteOff",
        "noteNumber": 66,
        "velocity": 0
      },
      {
        "deltaTime": 0,
        "channel": 1,
        "type": "channel",
        "noteNumber": 62,
        "velocity": 64,
        "subtype": "noteOn"
      },
      {
        "deltaTime": 0,
        "channel": 1,
        "type": "channel",
        "noteNumber": 66,
        "velocity": 64,
        "subtype": "noteOn"
      },
      {
        "deltaTime": 1024,
        "channel": 1,
        "type": "channel",
        "subtype": "noteOff",
        "noteNumber": 62,
        "velocity": 0
      },
      {
        "deltaTime": 0,
        "channel": 1,
        "type": "channel",
        "subtype": "noteOff",
        "noteNumber": 66,
        "velocity": 0
      },
      {
        "deltaTime": 0,
        "channel": 1,
        "type": "channel",
        "noteNumber": 62,
        "velocity": 64,
        "subtype": "noteOn"
      },
      {
        "deltaTime": 0,
        "channel": 1,
        "type": "channel",
        "noteNumber": 66,
        "velocity": 64,
        "subtype": "noteOn"
      },
      {
        "deltaTime": 1024,
        "channel": 1,
        "type": "channel",
        "subtype": "noteOff",
        "noteNumber": 62,
        "velocity": 0
      },
      {
        "deltaTime": 0,
        "channel": 1,
        "type": "channel",
        "subtype": "noteOff",
        "noteNumber": 66,
        "velocity": 0
      },
      {
        "deltaTime": 0,
        "channel": 1,
        "type": "channel",
        "noteNumber": 67,
        "velocity": 64,
        "subtype": "noteOn"
      },
      {
        "deltaTime": 2048,
        "channel": 1,
        "type": "channel",
        "subtype": "noteOff",
        "noteNumber": 67,
        "velocity": 0
      },
      {
        "deltaTime": 1536,
        "channel": 1,
        "type": "channel",
        "noteNumber": 69,
        "velocity": 64,
        "subtype": "noteOn"
      },
      {
        "deltaTime": 512,
        "channel": 1,
        "type": "channel",
        "subtype": "noteOff",
        "noteNumber": 69,
        "velocity": 0
      },
      {
        "deltaTime": 0,
        "channel": 1,
        "type": "channel",
        "noteNumber": 62,
        "velocity": 64,
        "subtype": "noteOn"
      },
      {
        "deltaTime": 0,
        "channel": 1,
        "type": "channel",
        "noteNumber": 66,
        "velocity": 64,
        "subtype": "noteOn"
      },
      {
        "deltaTime": 1024,
        "channel": 1,
        "type": "channel",
        "subtype": "noteOff",
        "noteNumber": 62,
        "velocity": 0
      },
      {
        "deltaTime": 0,
        "channel": 1,
        "type": "channel",
        "subtype": "noteOff",
        "noteNumber": 66,
        "velocity": 0
      },
      {
        "deltaTime": 0,
        "channel": 1,
        "type": "channel",
        "noteNumber": 62,
        "velocity": 64,
        "subtype": "noteOn"
      },
      {
        "deltaTime": 0,
        "channel": 1,
        "type": "channel",
        "noteNumber": 66,
        "velocity": 64,
        "subtype": "noteOn"
      },
      {
        "deltaTime": 1024,
        "channel": 1,
        "type": "channel",
        "subtype": "noteOff",
        "noteNumber": 62,
        "velocity": 0
      },
      {
        "deltaTime": 0,
        "channel": 1,
        "type": "channel",
        "subtype": "noteOff",
        "noteNumber": 66,
        "velocity": 0
      },
      {
        "deltaTime": 0,
        "channel": 1,
        "type": "channel",
        "noteNumber": 62,
        "velocity": 64,
        "subtype": "noteOn"
      },
      {
        "deltaTime": 0,
        "channel": 1,
        "type": "channel",
        "noteNumber": 66,
        "velocity": 64,
        "subtype": "noteOn"
      },
      {
        "deltaTime": 1024,
        "channel": 1,
        "type": "channel",
        "subtype": "noteOff",
        "noteNumber": 62,
        "velocity": 0
      },
      {
        "deltaTime": 0,
        "channel": 1,
        "type": "channel",
        "subtype": "noteOff",
        "noteNumber": 66,
        "velocity": 0
      },
      {
        "deltaTime": 0,
        "channel": 1,
        "type": "channel",
        "noteNumber": 83,
        "velocity": 64,
        "subtype": "noteOn"
      },
      {
        "deltaTime": 512,
        "channel": 1,
        "type": "channel",
        "subtype": "noteOff",
        "noteNumber": 83,
        "velocity": 0
      },
      {
        "deltaTime": 0,
        "channel": 1,
        "type": "channel",
        "noteNumber": 81,
        "velocity": 64,
        "subtype": "noteOn"
      },
      {
        "deltaTime": 256,
        "channel": 1,
        "type": "channel",
        "subtype": "noteOff",
        "noteNumber": 81,
        "velocity": 0
      },
      {
        "deltaTime": 0,
        "channel": 1,
        "type": "channel",
        "noteNumber": 79,
        "velocity": 64,
        "subtype": "noteOn"
      },
      {
        "deltaTime": 256,
        "channel": 1,
        "type": "channel",
        "subtype": "noteOff",
        "noteNumber": 79,
        "velocity": 0
      },
      {
        "deltaTime": 0,
        "channel": 1,
        "type": "channel",
        "noteNumber": 79,
        "velocity": 64,
        "subtype": "noteOn"
      },
      {
        "deltaTime": 512,
        "channel": 1,
        "type": "channel",
        "subtype": "noteOff",
        "noteNumber": 79,
        "velocity": 0
      },
      {
        "deltaTime": 0,
        "channel": 1,
        "type": "channel",
        "noteNumber": 79,
        "velocity": 64,
        "subtype": "noteOn"
      },
      {
        "deltaTime": 256,
        "channel": 1,
        "type": "channel",
        "subtype": "noteOff",
        "noteNumber": 79,
        "velocity": 0
      },
      {
        "deltaTime": 0,
        "channel": 1,
        "type": "channel",
        "noteNumber": 76,
        "velocity": 64,
        "subtype": "noteOn"
      },
      {
        "deltaTime": 256,
        "channel": 1,
        "type": "channel",
        "subtype": "noteOff",
        "noteNumber": 76,
        "velocity": 0
      },
      {
        "deltaTime": 0,
        "channel": 1,
        "type": "channel",
        "noteNumber": 79,
        "velocity": 64,
        "subtype": "noteOn"
      },
      {
        "deltaTime": 256,
        "channel": 1,
        "type": "channel",
        "subtype": "noteOff",
        "noteNumber": 79,
        "velocity": 0
      },
      {
        "deltaTime": 0,
        "channel": 1,
        "type": "channel",
        "noteNumber": 76,
        "velocity": 64,
        "subtype": "noteOn"
      },
      {
        "deltaTime": 256,
        "channel": 1,
        "type": "channel",
        "subtype": "noteOff",
        "noteNumber": 76,
        "velocity": 0
      },
      {
        "deltaTime": 0,
        "channel": 1,
        "type": "channel",
        "noteNumber": 79,
        "velocity": 64,
        "subtype": "noteOn"
      },
      {
        "deltaTime": 512,
        "channel": 1,
        "type": "channel",
        "subtype": "noteOff",
        "noteNumber": 79,
        "velocity": 0
      },
      {
        "deltaTime": 1024,
        "channel": 1,
        "type": "channel",
        "noteNumber": 81,
        "velocity": 64,
        "subtype": "noteOn"
      },
      {
        "deltaTime": 256,
        "channel": 1,
        "type": "channel",
        "subtype": "noteOff",
        "noteNumber": 81,
        "velocity": 0
      },
      {
        "deltaTime": 0,
        "channel": 1,
        "type": "channel",
        "noteNumber": 83,
        "velocity": 64,
        "subtype": "noteOn"
      },
      {
        "deltaTime": 256,
        "channel": 1,
        "type": "channel",
        "subtype": "noteOff",
        "noteNumber": 83,
        "velocity": 0
      },
      {
        "deltaTime": 0,
        "channel": 1,
        "type": "channel",
        "noteNumber": 81,
        "velocity": 64,
        "subtype": "noteOn"
      },
      {
        "deltaTime": 256,
        "channel": 1,
        "type": "channel",
        "subtype": "noteOff",
        "noteNumber": 81,
        "velocity": 0
      },
      {
        "deltaTime": 0,
        "channel": 1,
        "type": "channel",
        "noteNumber": 79,
        "velocity": 64,
        "subtype": "noteOn"
      },
      {
        "deltaTime": 256,
        "channel": 1,
        "type": "channel",
        "subtype": "noteOff",
        "noteNumber": 79,
        "velocity": 0
      },
      {
        "deltaTime": 0,
        "channel": 1,
        "type": "channel",
        "noteNumber": 81,
        "velocity": 64,
        "subtype": "noteOn"
      },
      {
        "deltaTime": 512,
        "channel": 1,
        "type": "channel",
        "subtype": "noteOff",
        "noteNumber": 81,
        "velocity": 0
      },
      {
        "deltaTime": 0,
        "channel": 1,
        "type": "channel",
        "noteNumber": 81,
        "velocity": 64,
        "subtype": "noteOn"
      },
      {
        "deltaTime": 256,
        "channel": 1,
        "type": "channel",
        "subtype": "noteOff",
        "noteNumber": 81,
        "velocity": 0
      },
      {
        "deltaTime": 0,
        "channel": 1,
        "type": "channel",
        "noteNumber": 79,
        "velocity": 64,
        "subtype": "noteOn"
      },
      {
        "deltaTime": 256,
        "channel": 1,
        "type": "channel",
        "subtype": "noteOff",
        "noteNumber": 79,
        "velocity": 0
      },
      {
        "deltaTime": 0,
        "channel": 1,
        "type": "channel",
        "noteNumber": 83,
        "velocity": 64,
        "subtype": "noteOn"
      },
      {
        "deltaTime": 512,
        "channel": 1,
        "type": "channel",
        "subtype": "noteOff",
        "noteNumber": 83,
        "velocity": 0
      },
      {
        "deltaTime": 0,
        "channel": 1,
        "type": "channel",
        "noteNumber": 81,
        "velocity": 64,
        "subtype": "noteOn"
      },
      {
        "deltaTime": 256,
        "channel": 1,
        "type": "channel",
        "subtype": "noteOff",
        "noteNumber": 81,
        "velocity": 0
      },
      {
        "deltaTime": 0,
        "channel": 1,
        "type": "channel",
        "noteNumber": 81,
        "velocity": 64,
        "subtype": "noteOn"
      },
      {
        "deltaTime": 256,
        "channel": 1,
        "type": "channel",
        "subtype": "noteOff",
        "noteNumber": 81,
        "velocity": 0
      },
      {
        "deltaTime": 256,
        "channel": 1,
        "type": "channel",
        "noteNumber": 79,
        "velocity": 64,
        "subtype": "noteOn"
      },
      {
        "deltaTime": 768,
        "channel": 1,
        "type": "channel",
        "subtype": "noteOff",
        "noteNumber": 79,
        "velocity": 0
      },
      {
        "deltaTime": 0,
        "channel": 1,
        "type": "channel",
        "noteNumber": 81,
        "velocity": 64,
        "subtype": "noteOn"
      },
      {
        "deltaTime": 256,
        "channel": 1,
        "type": "channel",
        "subtype": "noteOff",
        "noteNumber": 81,
        "velocity": 0
      },
      {
        "deltaTime": 0,
        "channel": 1,
        "type": "channel",
        "noteNumber": 83,
        "velocity": 64,
        "subtype": "noteOn"
      },
      {
        "deltaTime": 256,
        "channel": 1,
        "type": "channel",
        "subtype": "noteOff",
        "noteNumber": 83,
        "velocity": 0
      },
      {
        "deltaTime": 0,
        "channel": 1,
        "type": "channel",
        "noteNumber": 81,
        "velocity": 64,
        "subtype": "noteOn"
      },
      {
        "deltaTime": 256,
        "channel": 1,
        "type": "channel",
        "subtype": "noteOff",
        "noteNumber": 81,
        "velocity": 0
      },
      {
        "deltaTime": 0,
        "channel": 1,
        "type": "channel",
        "noteNumber": 79,
        "velocity": 64,
        "subtype": "noteOn"
      },
      {
        "deltaTime": 256,
        "channel": 1,
        "type": "channel",
        "subtype": "noteOff",
        "noteNumber": 79,
        "velocity": 0
      },
      {
        "deltaTime": 0,
        "channel": 1,
        "type": "channel",
        "noteNumber": 81,
        "velocity": 64,
        "subtype": "noteOn"
      },
      {
        "deltaTime": 256,
        "channel": 1,
        "type": "channel",
        "subtype": "noteOff",
        "noteNumber": 81,
        "velocity": 0
      },
      {
        "deltaTime": 0,
        "channel": 1,
        "type": "channel",
        "noteNumber": 79,
        "velocity": 64,
        "subtype": "noteOn"
      },
      {
        "deltaTime": 256,
        "channel": 1,
        "type": "channel",
        "subtype": "noteOff",
        "noteNumber": 79,
        "velocity": 0
      },
      {
        "deltaTime": 0,
        "channel": 1,
        "type": "channel",
        "noteNumber": 76,
        "velocity": 64,
        "subtype": "noteOn"
      },
      {
        "deltaTime": 256,
        "channel": 1,
        "type": "channel",
        "subtype": "noteOff",
        "noteNumber": 76,
        "velocity": 0
      },
      {
        "deltaTime": 0,
        "channel": 1,
        "type": "channel",
        "noteNumber": 76,
        "velocity": 64,
        "subtype": "noteOn"
      },
      {
        "deltaTime": 256,
        "channel": 1,
        "type": "channel",
        "subtype": "noteOff",
        "noteNumber": 76,
        "velocity": 0
      },
      {
        "deltaTime": 0,
        "channel": 1,
        "type": "channel",
        "noteNumber": 76,
        "velocity": 64,
        "subtype": "noteOn"
      },
      {
        "deltaTime": 256,
        "channel": 1,
        "type": "channel",
        "subtype": "noteOff",
        "noteNumber": 76,
        "velocity": 0
      },
      {
        "deltaTime": 0,
        "channel": 1,
        "type": "channel",
        "noteNumber": 74,
        "velocity": 64,
        "subtype": "noteOn"
      },
      {
        "deltaTime": 256,
        "channel": 1,
        "type": "channel",
        "subtype": "noteOff",
        "noteNumber": 74,
        "velocity": 0
      },
      {
        "deltaTime": 0,
        "channel": 1,
        "type": "channel",
        "noteNumber": 79,
        "velocity": 64,
        "subtype": "noteOn"
      },
      {
        "deltaTime": 512,
        "channel": 1,
        "type": "channel",
        "subtype": "noteOff",
        "noteNumber": 79,
        "velocity": 0
      },
      {
        "deltaTime": 2048,
        "channel": 1,
        "type": "channel",
        "noteNumber": 74,
        "velocity": 64,
        "subtype": "noteOn"
      },
      {
        "deltaTime": 0,
        "channel": 1,
        "type": "channel",
        "noteNumber": 78,
        "velocity": 64,
        "subtype": "noteOn"
      },
      {
        "deltaTime": 1024,
        "channel": 1,
        "type": "channel",
        "subtype": "noteOff",
        "noteNumber": 74,
        "velocity": 0
      },
      {
        "deltaTime": 0,
        "channel": 1,
        "type": "channel",
        "subtype": "noteOff",
        "noteNumber": 78,
        "velocity": 0
      },
      {
        "deltaTime": 0,
        "channel": 1,
        "type": "channel",
        "noteNumber": 74,
        "velocity": 64,
        "subtype": "noteOn"
      },
      {
        "deltaTime": 0,
        "channel": 1,
        "type": "channel",
        "noteNumber": 78,
        "velocity": 64,
        "subtype": "noteOn"
      },
      {
        "deltaTime": 1024,
        "channel": 1,
        "type": "channel",
        "subtype": "noteOff",
        "noteNumber": 74,
        "velocity": 0
      },
      {
        "deltaTime": 0,
        "channel": 1,
        "type": "channel",
        "subtype": "noteOff",
        "noteNumber": 78,
        "velocity": 0
      },
      {
        "deltaTime": 0,
        "channel": 1,
        "type": "channel",
        "noteNumber": 74,
        "velocity": 64,
        "subtype": "noteOn"
      },
      {
        "deltaTime": 0,
        "channel": 1,
        "type": "channel",
        "noteNumber": 78,
        "velocity": 64,
        "subtype": "noteOn"
      },
      {
        "deltaTime": 1024,
        "channel": 1,
        "type": "channel",
        "subtype": "noteOff",
        "noteNumber": 74,
        "velocity": 0
      },
      {
        "deltaTime": 0,
        "channel": 1,
        "type": "channel",
        "subtype": "noteOff",
        "noteNumber": 78,
        "velocity": 0
      },
      {
        "deltaTime": 0,
        "channel": 1,
        "type": "channel",
        "noteNumber": 83,
        "velocity": 64,
        "subtype": "noteOn"
      },
      {
        "deltaTime": 512,
        "channel": 1,
        "type": "channel",
        "subtype": "noteOff",
        "noteNumber": 83,
        "velocity": 0
      },
      {
        "deltaTime": 0,
        "channel": 1,
        "type": "channel",
        "noteNumber": 81,
        "velocity": 64,
        "subtype": "noteOn"
      },
      {
        "deltaTime": 256,
        "channel": 1,
        "type": "channel",
        "subtype": "noteOff",
        "noteNumber": 81,
        "velocity": 0
      },
      {
        "deltaTime": 0,
        "channel": 1,
        "type": "channel",
        "noteNumber": 79,
        "velocity": 64,
        "subtype": "noteOn"
      },
      {
        "deltaTime": 256,
        "channel": 1,
        "type": "channel",
        "subtype": "noteOff",
        "noteNumber": 79,
        "velocity": 0
      },
      {
        "deltaTime": 0,
        "channel": 1,
        "type": "channel",
        "noteNumber": 79,
        "velocity": 64,
        "subtype": "noteOn"
      },
      {
        "deltaTime": 512,
        "channel": 1,
        "type": "channel",
        "subtype": "noteOff",
        "noteNumber": 79,
        "velocity": 0
      },
      {
        "deltaTime": 0,
        "channel": 1,
        "type": "channel",
        "noteNumber": 79,
        "velocity": 64,
        "subtype": "noteOn"
      },
      {
        "deltaTime": 256,
        "channel": 1,
        "type": "channel",
        "subtype": "noteOff",
        "noteNumber": 79,
        "velocity": 0
      },
      {
        "deltaTime": 0,
        "channel": 1,
        "type": "channel",
        "noteNumber": 76,
        "velocity": 64,
        "subtype": "noteOn"
      },
      {
        "deltaTime": 256,
        "channel": 1,
        "type": "channel",
        "subtype": "noteOff",
        "noteNumber": 76,
        "velocity": 0
      },
      {
        "deltaTime": 0,
        "channel": 1,
        "type": "channel",
        "noteNumber": 79,
        "velocity": 64,
        "subtype": "noteOn"
      },
      {
        "deltaTime": 256,
        "channel": 1,
        "type": "channel",
        "subtype": "noteOff",
        "noteNumber": 79,
        "velocity": 0
      },
      {
        "deltaTime": 0,
        "channel": 1,
        "type": "channel",
        "noteNumber": 76,
        "velocity": 64,
        "subtype": "noteOn"
      },
      {
        "deltaTime": 256,
        "channel": 1,
        "type": "channel",
        "subtype": "noteOff",
        "noteNumber": 76,
        "velocity": 0
      },
      {
        "deltaTime": 0,
        "channel": 1,
        "type": "channel",
        "noteNumber": 79,
        "velocity": 64,
        "subtype": "noteOn"
      },
      {
        "deltaTime": 512,
        "channel": 1,
        "type": "channel",
        "subtype": "noteOff",
        "noteNumber": 79,
        "velocity": 0
      },
      {
        "deltaTime": 1024,
        "channel": 1,
        "type": "channel",
        "noteNumber": 81,
        "velocity": 64,
        "subtype": "noteOn"
      },
      {
        "deltaTime": 256,
        "channel": 1,
        "type": "channel",
        "subtype": "noteOff",
        "noteNumber": 81,
        "velocity": 0
      },
      {
        "deltaTime": 0,
        "channel": 1,
        "type": "channel",
        "noteNumber": 83,
        "velocity": 64,
        "subtype": "noteOn"
      },
      {
        "deltaTime": 256,
        "channel": 1,
        "type": "channel",
        "subtype": "noteOff",
        "noteNumber": 83,
        "velocity": 0
      },
      {
        "deltaTime": 0,
        "channel": 1,
        "type": "channel",
        "noteNumber": 81,
        "velocity": 64,
        "subtype": "noteOn"
      },
      {
        "deltaTime": 256,
        "channel": 1,
        "type": "channel",
        "subtype": "noteOff",
        "noteNumber": 81,
        "velocity": 0
      },
      {
        "deltaTime": 0,
        "channel": 1,
        "type": "channel",
        "noteNumber": 79,
        "velocity": 64,
        "subtype": "noteOn"
      },
      {
        "deltaTime": 256,
        "channel": 1,
        "type": "channel",
        "subtype": "noteOff",
        "noteNumber": 79,
        "velocity": 0
      },
      {
        "deltaTime": 0,
        "channel": 1,
        "type": "channel",
        "noteNumber": 81,
        "velocity": 64,
        "subtype": "noteOn"
      },
      {
        "deltaTime": 512,
        "channel": 1,
        "type": "channel",
        "subtype": "noteOff",
        "noteNumber": 81,
        "velocity": 0
      },
      {
        "deltaTime": 0,
        "channel": 1,
        "type": "channel",
        "noteNumber": 81,
        "velocity": 64,
        "subtype": "noteOn"
      },
      {
        "deltaTime": 256,
        "channel": 1,
        "type": "channel",
        "subtype": "noteOff",
        "noteNumber": 81,
        "velocity": 0
      },
      {
        "deltaTime": 0,
        "channel": 1,
        "type": "channel",
        "noteNumber": 79,
        "velocity": 64,
        "subtype": "noteOn"
      },
      {
        "deltaTime": 256,
        "channel": 1,
        "type": "channel",
        "subtype": "noteOff",
        "noteNumber": 79,
        "velocity": 0
      },
      {
        "deltaTime": 0,
        "channel": 1,
        "type": "channel",
        "noteNumber": 83,
        "velocity": 64,
        "subtype": "noteOn"
      },
      {
        "deltaTime": 512,
        "channel": 1,
        "type": "channel",
        "subtype": "noteOff",
        "noteNumber": 83,
        "velocity": 0
      },
      {
        "deltaTime": 0,
        "channel": 1,
        "type": "channel",
        "noteNumber": 81,
        "velocity": 64,
        "subtype": "noteOn"
      },
      {
        "deltaTime": 256,
        "channel": 1,
        "type": "channel",
        "subtype": "noteOff",
        "noteNumber": 81,
        "velocity": 0
      },
      {
        "deltaTime": 0,
        "channel": 1,
        "type": "channel",
        "noteNumber": 81,
        "velocity": 64,
        "subtype": "noteOn"
      },
      {
        "deltaTime": 256,
        "channel": 1,
        "type": "channel",
        "subtype": "noteOff",
        "noteNumber": 81,
        "velocity": 0
      },
      {
        "deltaTime": 256,
        "channel": 1,
        "type": "channel",
        "noteNumber": 79,
        "velocity": 64,
        "subtype": "noteOn"
      },
      {
        "deltaTime": 768,
        "channel": 1,
        "type": "channel",
        "subtype": "noteOff",
        "noteNumber": 79,
        "velocity": 0
      },
      {
        "deltaTime": 0,
        "channel": 1,
        "type": "channel",
        "noteNumber": 81,
        "velocity": 64,
        "subtype": "noteOn"
      },
      {
        "deltaTime": 256,
        "channel": 1,
        "type": "channel",
        "subtype": "noteOff",
        "noteNumber": 81,
        "velocity": 0
      },
      {
        "deltaTime": 0,
        "channel": 1,
        "type": "channel",
        "noteNumber": 83,
        "velocity": 64,
        "subtype": "noteOn"
      },
      {
        "deltaTime": 256,
        "channel": 1,
        "type": "channel",
        "subtype": "noteOff",
        "noteNumber": 83,
        "velocity": 0
      },
      {
        "deltaTime": 0,
        "channel": 1,
        "type": "channel",
        "noteNumber": 81,
        "velocity": 64,
        "subtype": "noteOn"
      },
      {
        "deltaTime": 256,
        "channel": 1,
        "type": "channel",
        "subtype": "noteOff",
        "noteNumber": 81,
        "velocity": 0
      },
      {
        "deltaTime": 0,
        "channel": 1,
        "type": "channel",
        "noteNumber": 79,
        "velocity": 64,
        "subtype": "noteOn"
      },
      {
        "deltaTime": 256,
        "channel": 1,
        "type": "channel",
        "subtype": "noteOff",
        "noteNumber": 79,
        "velocity": 0
      },
      {
        "deltaTime": 0,
        "channel": 1,
        "type": "channel",
        "noteNumber": 81,
        "velocity": 64,
        "subtype": "noteOn"
      },
      {
        "deltaTime": 256,
        "channel": 1,
        "type": "channel",
        "subtype": "noteOff",
        "noteNumber": 81,
        "velocity": 0
      },
      {
        "deltaTime": 0,
        "channel": 1,
        "type": "channel",
        "noteNumber": 79,
        "velocity": 64,
        "subtype": "noteOn"
      },
      {
        "deltaTime": 256,
        "channel": 1,
        "type": "channel",
        "subtype": "noteOff",
        "noteNumber": 79,
        "velocity": 0
      },
      {
        "deltaTime": 0,
        "channel": 1,
        "type": "channel",
        "noteNumber": 76,
        "velocity": 64,
        "subtype": "noteOn"
      },
      {
        "deltaTime": 256,
        "channel": 1,
        "type": "channel",
        "subtype": "noteOff",
        "noteNumber": 76,
        "velocity": 0
      },
      {
        "deltaTime": 0,
        "channel": 1,
        "type": "channel",
        "noteNumber": 76,
        "velocity": 64,
        "subtype": "noteOn"
      },
      {
        "deltaTime": 256,
        "channel": 1,
        "type": "channel",
        "subtype": "noteOff",
        "noteNumber": 76,
        "velocity": 0
      },
      {
        "deltaTime": 0,
        "channel": 1,
        "type": "channel",
        "noteNumber": 76,
        "velocity": 64,
        "subtype": "noteOn"
      },
      {
        "deltaTime": 256,
        "channel": 1,
        "type": "channel",
        "subtype": "noteOff",
        "noteNumber": 76,
        "velocity": 0
      },
      {
        "deltaTime": 0,
        "channel": 1,
        "type": "channel",
        "noteNumber": 74,
        "velocity": 64,
        "subtype": "noteOn"
      },
      {
        "deltaTime": 256,
        "channel": 1,
        "type": "channel",
        "subtype": "noteOff",
        "noteNumber": 74,
        "velocity": 0
      },
      {
        "deltaTime": 0,
        "channel": 1,
        "type": "channel",
        "noteNumber": 79,
        "velocity": 64,
        "subtype": "noteOn"
      },
      {
        "deltaTime": 512,
        "channel": 1,
        "type": "channel",
        "subtype": "noteOff",
        "noteNumber": 79,
        "velocity": 0
      },
      {
        "deltaTime": 2048,
        "channel": 1,
        "type": "channel",
        "noteNumber": 74,
        "velocity": 64,
        "subtype": "noteOn"
      },
      {
        "deltaTime": 0,
        "channel": 1,
        "type": "channel",
        "noteNumber": 78,
        "velocity": 64,
        "subtype": "noteOn"
      },
      {
        "deltaTime": 1024,
        "channel": 1,
        "type": "channel",
        "subtype": "noteOff",
        "noteNumber": 74,
        "velocity": 0
      },
      {
        "deltaTime": 0,
        "channel": 1,
        "type": "channel",
        "subtype": "noteOff",
        "noteNumber": 78,
        "velocity": 0
      },
      {
        "deltaTime": 0,
        "channel": 1,
        "type": "channel",
        "noteNumber": 74,
        "velocity": 64,
        "subtype": "noteOn"
      },
      {
        "deltaTime": 0,
        "channel": 1,
        "type": "channel",
        "noteNumber": 78,
        "velocity": 64,
        "subtype": "noteOn"
      },
      {
        "deltaTime": 1024,
        "channel": 1,
        "type": "channel",
        "subtype": "noteOff",
        "noteNumber": 74,
        "velocity": 0
      },
      {
        "deltaTime": 0,
        "channel": 1,
        "type": "channel",
        "subtype": "noteOff",
        "noteNumber": 78,
        "velocity": 0
      },
      {
        "deltaTime": 0,
        "channel": 1,
        "type": "channel",
        "noteNumber": 74,
        "velocity": 64,
        "subtype": "noteOn"
      },
      {
        "deltaTime": 0,
        "channel": 1,
        "type": "channel",
        "noteNumber": 78,
        "velocity": 64,
        "subtype": "noteOn"
      },
      {
        "deltaTime": 512,
        "channel": 1,
        "type": "channel",
        "subtype": "noteOff",
        "noteNumber": 74,
        "velocity": 0
      },
      {
        "deltaTime": 0,
        "channel": 1,
        "type": "channel",
        "subtype": "noteOff",
        "noteNumber": 78,
        "velocity": 0
      },
      {
        "deltaTime": 0,
        "channel": 1,
        "type": "channel",
        "noteNumber": 62,
        "velocity": 64,
        "subtype": "noteOn"
      },
      {
        "deltaTime": 256,
        "channel": 1,
        "type": "channel",
        "subtype": "noteOff",
        "noteNumber": 62,
        "velocity": 0
      },
      {
        "deltaTime": 0,
        "channel": 1,
        "type": "channel",
        "noteNumber": 62,
        "velocity": 64,
        "subtype": "noteOn"
      },
      {
        "deltaTime": 256,
        "channel": 1,
        "type": "channel",
        "subtype": "noteOff",
        "noteNumber": 62,
        "velocity": 0
      },
      {
        "deltaTime": 0,
        "channel": 1,
        "type": "channel",
        "noteNumber": 71,
        "velocity": 64,
        "subtype": "noteOn"
      },
      {
        "deltaTime": 256,
        "channel": 1,
        "type": "channel",
        "subtype": "noteOff",
        "noteNumber": 71,
        "velocity": 0
      },
      {
        "deltaTime": 0,
        "channel": 1,
        "type": "channel",
        "noteNumber": 69,
        "velocity": 64,
        "subtype": "noteOn"
      },
      {
        "deltaTime": 512,
        "channel": 1,
        "type": "channel",
        "subtype": "noteOff",
        "noteNumber": 69,
        "velocity": 0
      },
      {
        "deltaTime": 0,
        "channel": 1,
        "type": "channel",
        "noteNumber": 69,
        "velocity": 64,
        "subtype": "noteOn"
      },
      {
        "deltaTime": 256,
        "channel": 1,
        "type": "channel",
        "subtype": "noteOff",
        "noteNumber": 69,
        "velocity": 0
      },
      {
        "deltaTime": 256,
        "channel": 1,
        "type": "channel",
        "noteNumber": 67,
        "velocity": 64,
        "subtype": "noteOn"
      },
      {
        "deltaTime": 256,
        "channel": 1,
        "type": "channel",
        "subtype": "noteOff",
        "noteNumber": 67,
        "velocity": 0
      },
      {
        "deltaTime": 0,
        "channel": 1,
        "type": "channel",
        "noteNumber": 64,
        "velocity": 64,
        "subtype": "noteOn"
      },
      {
        "deltaTime": 512,
        "channel": 1,
        "type": "channel",
        "subtype": "noteOff",
        "noteNumber": 64,
        "velocity": 0
      },
      {
        "deltaTime": 3073,
        "type": "meta",
        "subtype": "endOfTrack"
      }
    ]
  ]
}